junicode_regular-italic.sfdir

StartChar: exclam
Encoding: 33 33 1
Width: 520
GlyphClass: 2
Flags: W
LayerCount: 2
Fore
SplineSet
324 436 m 2,0,1
 318 419 318 419 287.5 419 c 128,-1,2
 257 419 257 419 257 432 c 0,3,-1
 442 1286 l 2,4,5
 450 1324 450 1324 489 1361.5 c 128,-1,6
 528 1399 528 1399 571 1399 c 0,7,8
 650 1399 650 1399 650 1329 c 0,9,10
 650 1302 650 1302 641 1278 c 2,11,-1
 324 436 l 2,0,1
317 90 m 128,-1,13
 317 38 317 38 282.5 6.5 c 128,-1,14
 248 -25 248 -25 201 -25 c 128,-1,15
 154 -25 154 -25 113 3.5 c 128,-1,16
 72 32 72 32 72 82.5 c 128,-1,17
 72 133 72 133 103 172 c 128,-1,18
 134 211 134 211 190 211 c 128,-1,19
 246 211 246 211 281.5 176.5 c 128,-1,12
 317 142 317 142 317 90 c 128,-1,13
EndSplineSet
Substitution2: "'ss18' Style Set 18 lookup 25-1" exclam.alt
Comment: "last+AD0A-19" 
Colour: ffffff
EndChar

StartChar: quotesingle
Encoding: 39 39 7
Width: 422
GlyphClass: 2
Flags: W
LayerCount: 2
Fore
SplineSet
424 944 m 1,0,-1
 356 944 l 1,1,2
 379 1124 379 1124 424 1395 c 0,3,4
 448 1481 448 1481 543 1481 c 0,5,6
 619 1481 619 1481 619 1426 c 0,7,8
 619 1415 619 1415 614 1397 c 0,9,10
 541 1234 541 1234 424 944 c 1,0,-1
EndSplineSet
Comment: "last+AD0A-10" 
Colour: ffffff
EndChar

StartChar: parenright
Encoding: 41 41 9
Width: 676
GlyphClass: 2
Flags: W
LayerCount: 2
Fore
SplineSet
616 958 m 0,0,1
 616 786 616 786 551 560 c 128,-1,2
 486 334 486 334 294 77.5 c 128,-1,3
 102 -179 102 -179 -115 -338 c 0,4,5
 -137 -354 -137 -354 -155 -354 c 128,-1,6
 -173 -354 -173 -354 -182 -342 c 128,-1,7
 -191 -330 -191 -330 -189.5 -319 c 136,-1,8
 -188 -308 -188 -308 -162 -289 c 0,9,10
 65 -107 65 -107 206.5 115 c 128,-1,11
 348 337 348 337 414.5 568 c 128,-1,12
 481 799 481 799 481 987 c 0,13,14
 481 1251 481 1251 338 1462 c 0,15,16
 327 1478 327 1478 335.5 1504 c 128,-1,17
 344 1530 344 1530 374.5 1530 c 128,-1,18
 405 1530 405 1530 416 1516 c 0,19,20
 616 1263 616 1263 616 958 c 0,0,1
EndSplineSet
Substitution2: "'subs' Subscript lookup 29-1" uni208E
Substitution2: "'sups' superscripts subtable" uni207E
Substitution2: "'ss18' Style Set 18 lookup 25-1" parenright.alt1
Substitution2: "'ss16' Upright brackets-1" parenright.alt
Comment: "last+AD0A-20" 
Colour: ffffff
EndChar

StartChar: asterisk
Encoding: 42 42 10
Width: 807
GlyphClass: 2
Flags: W
LayerCount: 2
Fore
SplineSet
754 1187 m 1,0,-1
 476 1044 l 1,1,-1
 691 903 l 1,2,-1
 642 841 l 1,3,-1
 426 982 l 1,4,-1
 365 694 l 1,5,-1
 293 694 l 1,6,-1
 354 981 l 1,7,-1
 83 842 l 1,8,-1
 60 904 l 1,9,-1
 333 1044 l 1,10,-1
 117 1186 l 1,11,-1
 166 1248 l 1,12,-1
 381 1107 l 1,13,-1
 440 1384 l 1,14,-1
 512 1384 l 1,15,-1
 452 1105 l 1,16,-1
 731 1249 l 1,17,-1
 754 1187 l 1,0,-1
EndSplineSet
Comment: "last+AD0A-17" 
Colour: ffffff
EndChar

StartChar: plus
Encoding: 43 43 11
Width: 1024
GlyphClass: 2
Flags: W
LayerCount: 2
Fore
SplineSet
907 371 m 1,0,-1
 573 371 l 1,1,-1
 573 0 l 1,2,-1
 453 0 l 1,3,-1
 453 371 l 1,4,-1
 119 371 l 1,5,-1
 119 471 l 1,6,-1
 453 471 l 1,7,-1
 453 807 l 1,8,-1
 573 807 l 1,9,-1
 573 471 l 1,10,-1
 907 471 l 1,11,-1
 907 371 l 1,0,-1
EndSplineSet
Substitution2: "'subs' Subscript lookup 29-1" uni208A
Substitution2: "'sups' superscripts subtable" uni207A
Comment: "last+AD0A-11" 
Colour: ffffff
EndChar

StartChar: comma
Encoding: 44 44 12
Width: 520
GlyphClass: 2
Flags: W
LayerCount: 2
Fore
SplineSet
340 104 m 256,0,1
 340 28 340 28 291.5 -59.5 c 128,-1,2
 243 -147 243 -147 142 -234.5 c 128,-1,3
 41 -322 41 -322 -66 -369 c 0,4,5
 -68 -370 -68 -370 -71 -370 c 0,6,7
 -80 -370 -80 -370 -85 -361.5 c 128,-1,8
 -90 -353 -90 -353 -90 -346 c 0,9,10
 -90 -341 -90 -341 -86 -338 c 0,11,12
 -2 -276 -2 -276 69 -204.5 c 128,-1,13
 140 -133 140 -133 162 -57 c 0,14,15
 165 -46 165 -46 165 -25 c 128,-1,16
 165 -4 165 -4 147 4 c 0,17,18
 64 43 64 43 64 108 c 256,19,20
 64 159 64 159 107.5 197.5 c 128,-1,21
 151 236 151 236 211 236 c 0,22,23
 273 236 273 236 306.5 192 c 128,-1,24
 340 148 340 148 340 104 c 256,0,1
EndSplineSet
Comment: "last+AD0A-24" 
Colour: ffffff
EndChar

StartChar: hyphen
Encoding: 45 45 13
Width: 827
GlyphClass: 2
Flags: W
LayerCount: 2
Fore
SplineSet
745 487 m 2,0,-1
 172 487 l 2,1,2
 166 487 166 487 166 506 c 128,-1,3
 166 525 166 525 180 563.5 c 128,-1,4
 194 602 194 602 205 602 c 2,5,-1
 778 602 l 2,6,7
 784 602 784 602 784 580.5 c 128,-1,8
 784 559 784 559 769 523 c 128,-1,9
 754 487 754 487 745 487 c 2,0,-1
EndSplineSet
Substitution2: "'subs' Subscript lookup 29-1" uni208B
Substitution2: "'sups' superscripts subtable" uni207B
Comment: "last+AD0A-9" 
Colour: ffffff
EndChar

StartChar: period
Encoding: 46 46 14
Width: 520
GlyphClass: 2
Flags: W
LayerCount: 2
Fore
SplineSet
315 85.5 m 128,-1,1
 315 37 315 37 281.5 6 c 128,-1,2
 248 -25 248 -25 191 -25 c 128,-1,3
 134 -25 134 -25 103 12 c 128,-1,4
 72 49 72 49 72 92 c 128,-1,5
 72 135 72 135 104 173 c 128,-1,6
 136 211 136 211 196 211 c 128,-1,7
 256 211 256 211 285.5 172.5 c 128,-1,0
 315 134 315 134 315 85.5 c 128,-1,1
EndSplineSet
Comment: "last+AD0A-7" 
Colour: ffffff
EndChar

StartChar: slash
Encoding: 47 47 15
Width: 541
GlyphClass: 2
Flags: W
LayerCount: 2
Fore
SplineSet
90 -12 m 2,0,1
 84 -27 84 -27 57 -27 c 128,-1,2
 30 -27 30 -27 10 -8 c 128,-1,3
 -10 11 -10 11 -10 19 c 128,-1,4
 -10 27 -10 27 -8 33 c 2,5,-1
 602 1473 l 2,6,7
 608 1488 608 1488 635.5 1488 c 128,-1,8
 663 1488 663 1488 683.5 1469.5 c 128,-1,9
 704 1451 704 1451 704 1443.5 c 128,-1,10
 704 1436 704 1436 702 1430 c 2,11,-1
 90 -12 l 2,0,1
EndSplineSet
Comment: "last+AD0A-11" 
Colour: ffffff
EndChar

StartChar: two
Encoding: 50 50 18
Width: 956
GlyphClass: 2
Flags: W
LayerCount: 2
Fore
SplineSet
209 180 m 0,0,1
 186 160 186 160 186 148.5 c 128,-1,2
 186 137 186 137 213 137 c 2,3,-1
 510 137 l 2,4,5
 669 137 669 137 747 194 c 0,6,7
 782 219 782 219 812 260 c 0,8,9
 816 267 816 267 840.5 267 c 128,-1,10
 865 267 865 267 865 248 c 0,11,12
 865 245 865 245 864 244 c 2,13,-1
 706 25 l 2,14,15
 682 -8 682 -8 645 -8 c 9,16,17
 523 0 523 0 310 0 c 128,-1,18
 97 0 97 0 -33 -8 c 17,19,20
 -67 -8 -67 -8 -67 22 c 0,21,22
 -67 38 -67 38 -53 49 c 0,23,24
 231 282 231 282 424.5 472.5 c 128,-1,25
 618 663 618 663 718 804.5 c 128,-1,26
 818 946 818 946 818 1048 c 256,27,28
 818 1130 818 1130 772 1168 c 128,-1,29
 726 1206 726 1206 657 1206 c 0,30,31
 511 1206 511 1206 362 1024 c 0,32,33
 357 1019 357 1019 344 1019 c 128,-1,34
 331 1019 331 1019 321 1031 c 128,-1,35
 311 1043 311 1043 311 1047.5 c 128,-1,36
 311 1052 311 1052 313 1054 c 0,37,38
 402 1171 402 1171 525 1252 c 128,-1,39
 648 1333 648 1333 779 1333 c 256,40,41
 886 1333 886 1333 947.5 1268 c 128,-1,42
 1009 1203 1009 1203 1009 1102 c 0,43,44
 1009 960 1009 960 890.5 806.5 c 128,-1,45
 772 653 772 653 209 180 c 0,0,1
EndSplineSet
Substitution2: "'subs' Subscript lookup 29-1" uni2082
Substitution2: "'sups' superscripts subtable" uni00B2
Substitution2: "'onum' Oldstyle Figures in Latin lookup 5" two.oldstyle
Comment: "last+AD0A-45" 
Colour: ffffff
EndChar

StartChar: four
Encoding: 52 52 20
Width: 956
GlyphClass: 2
Flags: W
LayerCount: 2
Back
SplineSet
648 -48 m 2,18,-1
 891 1014 l 2,19,20
EndSplineSet
Fore
SplineSet
683 127 m 2,0,1
 680 116 680 116 680 106 c 0,2,3
 680 49 680 49 781 49 c 0,4,5
 791 49 791 49 791 33.5 c 128,-1,6
 791 18 791 18 786.5 5 c 128,-1,7
 782 -8 782 -8 766 -8 c 1,8,9
 681 0 681 0 551 0 c 128,-1,10
 421 0 421 0 336 -8 c 1,11,12
 326 -8 326 -8 326 8 c 128,-1,13
 326 24 326 24 331 36.5 c 128,-1,14
 336 49 336 49 351 49 c 0,15,16
 509 49 509 49 530 127 c 2,17,-1
 595 371 l 2,18,19
 600 391 600 391 580 391 c 2,20,-1
 103 391 l 2,21,22
 44 391 44 391 44 419.5 c 128,-1,23
 44 448 44 448 116 520 c 2,24,-1
 418 821 l 2,25,26
 787 1190 787 1190 1000 1425 c 0,27,28
 1014 1437 1014 1437 1053.5 1437 c 128,-1,29
 1093 1437 1093 1437 1093 1413 c 0,30,31
 1093 1409 1093 1409 1092 1407 c 2,32,-1
 205 510 l 2,33,34
 191 496 191 496 191 486.5 c 128,-1,35
 191 477 191 477 214 477 c 2,36,-1
 603 477 l 2,37,38
 623 477 623 477 629 498 c 2,39,-1
 748 942 l 2,40,41
 752 957 752 957 827 957 c 128,-1,42
 902 957 902 957 902 942 c 2,43,-1
 783 498 l 2,44,45
 777 477 777 477 798 477 c 2,46,-1
 916 477 l 2,47,48
 924 477 924 477 924 454 c 128,-1,49
 924 431 924 431 912 411 c 128,-1,50
 900 391 900 391 893 391 c 2,51,-1
 774 391 l 2,52,53
 754 391 754 391 749 371 c 2,54,-1
 683 127 l 2,0,1
EndSplineSet
Substitution2: "'subs' Subscript lookup 29-1" uni2084
Substitution2: "'sups' superscripts subtable" uni2074
Substitution2: "'onum' Oldstyle Figures in Latin lookup 5" four.oldstyle
Comment: "last+AD0A-54" 
Colour: ffffff
EndChar

StartChar: five
Encoding: 53 53 21
Width: 956
GlyphClass: 2
Flags: W
LayerCount: 2
Fore
SplineSet
882 606 m 0,0,1
 882 403 882 403 696 193.5 c 128,-1,2
 510 -16 510 -16 248 -16 c 0,3,4
 164 -16 164 -16 100 9 c 128,-1,5
 36 34 36 34 36 84 c 0,6,7
 36 140 36 140 74 166.5 c 128,-1,8
 112 193 112 193 146 193 c 256,9,10
 180 193 180 193 235 130.5 c 128,-1,11
 290 68 290 68 354 68 c 0,12,13
 494 68 494 68 607 219.5 c 128,-1,14
 720 371 720 371 720 520 c 0,15,16
 720 743 720 743 461 743 c 0,17,18
 405 743 405 743 327 724 c 8,19,20
 305 719 305 719 305 736 c 0,21,22
 305 747 305 747 310 758 c 2,23,-1
 543 1288 l 2,24,25
 557 1317 557 1317 584 1317 c 2,26,-1
 1055 1317 l 2,27,28
 1059 1316 1059 1316 1059 1303.5 c 128,-1,29
 1059 1291 1059 1291 1027.5 1232.5 c 128,-1,30
 996 1174 996 1174 982 1174 c 2,31,-1
 599 1174 l 2,32,33
 570 1174 570 1174 558 1147 c 2,34,-1
 453 913 l 2,35,36
 441 887 441 887 461 890 c 0,37,38
 502 895 502 895 541 895 c 0,39,40
 882 895 882 895 882 606 c 0,0,1
EndSplineSet
Substitution2: "'subs' Subscript lookup 29-1" uni2085
Substitution2: "'sups' superscripts subtable" uni2075
Substitution2: "'onum' Oldstyle Figures in Latin lookup 5" five.oldstyle
Comment: "last+AD0A-40" 
Colour: ffffff
EndChar

StartChar: six
Encoding: 54 54 22
Width: 956
GlyphClass: 2
Flags: W
LayerCount: 2
Fore
SplineSet
903 510 m 0,0,1
 903 307 903 307 745.5 145.5 c 128,-1,2
 588 -16 588 -16 387 -16 c 0,3,4
 117 -16 117 -16 117 287 c 0,5,6
 117 428 117 428 195.5 613 c 128,-1,7
 274 798 274 798 505 1026 c 128,-1,8
 736 1254 736 1254 1039 1378 c 0,9,10
 1050 1382 1050 1382 1056.5 1374 c 128,-1,11
 1063 1366 1063 1366 1062.5 1349.5 c 128,-1,12
 1062 1333 1062 1333 1052 1329 c 0,13,14
 893 1251 893 1251 768.5 1154 c 128,-1,15
 644 1057 644 1057 545.5 932 c 128,-1,16
 447 807 447 807 368 629 c 1,17,18
 560 766 560 766 682 766 c 256,19,20
 782 766 782 766 842.5 694.5 c 128,-1,21
 903 623 903 623 903 510 c 0,0,1
731 440 m 0,22,23
 731 653 731 653 562 653 c 0,24,25
 450 653 450 653 334 543 c 1,26,27
 276 402 276 402 276 264 c 0,28,29
 276 63 276 63 432 63 c 0,30,31
 559 63 559 63 645 184.5 c 128,-1,32
 731 306 731 306 731 440 c 0,22,23
EndSplineSet
Substitution2: "'subs' Subscript lookup 29-1" uni2086
Substitution2: "'sups' superscripts subtable" uni2076
Substitution2: "'onum' Oldstyle Figures in Latin lookup 5" six.oldstyle
Comment: "last+AD0A-32" 
Colour: ffffff
EndChar

StartChar: eight
Encoding: 56 56 24
Width: 956
GlyphClass: 2
Flags: W
LayerCount: 2
Fore
SplineSet
1018 1135 m 0,0,1
 1018 862 1018 862 691 711 c 1,2,3
 870 574 870 574 870 406 c 256,4,5
 870 238 870 238 718.5 111 c 128,-1,6
 567 -16 567 -16 403 -16 c 256,7,8
 250 -16 250 -16 172 51 c 128,-1,9
 94 118 94 118 94 223 c 0,10,11
 94 489 94 489 474 668 c 1,12,13
 317 794 317 794 317 924 c 0,14,15
 317 1090 317 1090 454.5 1211.5 c 128,-1,16
 592 1333 592 1333 738 1333 c 256,17,18
 884 1333 884 1333 951 1276.5 c 128,-1,19
 1018 1220 1018 1220 1018 1135 c 0,0,1
868 1085 m 0,20,21
 868 1167 868 1167 825.5 1212 c 128,-1,22
 783 1257 783 1257 708 1257 c 0,23,24
 611 1257 611 1257 533.5 1185.5 c 128,-1,25
 456 1114 456 1114 456 1026 c 256,26,27
 456 958 456 958 492 902.5 c 128,-1,28
 528 847 528 847 648 754 c 1,29,30
 868 883 868 883 868 1085 c 0,20,21
707 338 m 0,31,32
 707 471 707 471 520 625 c 1,33,34
 387 556 387 556 322 453.5 c 128,-1,35
 257 351 257 351 257 243 c 256,36,37
 257 156 257 156 308 103.5 c 128,-1,38
 359 51 359 51 440 51 c 0,39,40
 550 51 550 51 628.5 139 c 128,-1,41
 707 227 707 227 707 338 c 0,31,32
EndSplineSet
Substitution2: "'subs' Subscript lookup 29-1" uni2088
Substitution2: "'sups' superscripts subtable" uni2078
Substitution2: "'onum' Oldstyle Figures in Latin lookup 5" eight.oldstyle
Comment: "last+AD0A-41" 
Colour: ffffff
EndChar

StartChar: nine
Encoding: 57 57 25
Width: 956
GlyphClass: 2
Flags: W
LayerCount: 2
Fore
SplineSet
1028 1037 m 256,0,1
 1028 881 1028 881 945.5 699.5 c 128,-1,2
 863 518 863 518 647.5 310.5 c 128,-1,3
 432 103 432 103 122 -35 c 1,4,-1
 113 -35 l 1,5,6
 98 -28 98 -28 97 -3 c 128,-1,7
 96 22 96 22 105 27 c 0,8,9
 391 172 391 172 537.5 329 c 128,-1,10
 684 486 684 486 776 686 c 1,11,12
 614 551 614 551 480 551 c 256,13,14
 370 551 370 551 305 625.5 c 128,-1,15
 240 700 240 700 240 790 c 256,16,17
 240 904 240 904 291 1015 c 128,-1,18
 342 1126 342 1126 463 1229.5 c 128,-1,19
 584 1333 584 1333 750 1333 c 256,20,21
 886 1333 886 1333 957 1252 c 128,-1,22
 1028 1171 1028 1171 1028 1037 c 256,0,1
867 1053 m 0,23,24
 867 1251 867 1251 706 1251 c 0,25,26
 582 1251 582 1251 497.5 1125.5 c 128,-1,27
 413 1000 413 1000 413 871 c 256,28,29
 413 771 413 771 457.5 716.5 c 128,-1,30
 502 662 502 662 576 662 c 0,31,32
 687 662 687 662 809 774 c 1,33,34
 867 915 867 915 867 1053 c 0,23,24
EndSplineSet
Substitution2: "'subs' Subscript lookup 29-1" uni2089
Substitution2: "'sups' superscripts subtable" uni2079
Substitution2: "'onum' Oldstyle Figures in Latin lookup 5" nine.oldstyle
Comment: "last+AD0A-34" 
Colour: ffffff
EndChar

StartChar: colon
Encoding: 58 58 26
Width: 561
GlyphClass: 2
Flags: W
LayerCount: 2
Fore
SplineSet
356 85 m 128,-1,1
 356 36 356 36 321.5 6 c 128,-1,2
 287 -24 287 -24 230 -24 c 128,-1,3
 173 -24 173 -24 143 13.5 c 128,-1,4
 113 51 113 51 113 95 c 128,-1,5
 113 139 113 139 145.5 175 c 128,-1,6
 178 211 178 211 238.5 211 c 128,-1,7
 299 211 299 211 327.5 172.5 c 128,-1,0
 356 134 356 134 356 85 c 128,-1,1
530 725 m 128,-1,9
 530 676 530 676 495.5 646 c 128,-1,10
 461 616 461 616 404 616 c 128,-1,11
 347 616 347 616 317 653 c 128,-1,12
 287 690 287 690 287 734 c 128,-1,13
 287 778 287 778 319.5 814 c 128,-1,14
 352 850 352 850 412.5 850 c 128,-1,15
 473 850 473 850 501.5 812 c 128,-1,8
 530 774 530 774 530 725 c 128,-1,9
EndSplineSet
Substitution2: "'ss18' Style Set 18 lookup 25-1" colon.alt
Comment: "last+AD0A-15" 
Colour: ffffff
EndChar

StartChar: equal
Encoding: 61 61 29
Width: 1024
GlyphClass: 2
Flags: W
LayerCount: 2
Fore
SplineSet
907 596 m 1,0,-1
 119 596 l 1,1,-1
 119 696 l 1,2,-1
 907 696 l 1,3,-1
 907 596 l 1,0,-1
907 330 m 1,4,-1
 119 330 l 1,5,-1
 119 430 l 1,6,-1
 907 430 l 1,7,-1
 907 330 l 1,4,-1
EndSplineSet
Substitution2: "'subs' Subscript lookup 29-1" uni208C
Substitution2: "'sups' superscripts subtable" uni207C
Comment: "last+AD0A-7" 
Colour: ffffff
EndChar

StartChar: at
Encoding: 64 64 32
Width: 1556
GlyphClass: 2
Flags: W
LayerCount: 2
Fore
SplineSet
1526 858 m 256,0,1
 1526 646 1526 646 1380 502 c 128,-1,2
 1234 358 1234 358 995 358 c 0,3,4
 914 358 914 358 893 373.5 c 128,-1,5
 872 389 872 389 872 419 c 128,-1,6
 872 449 872 449 922 596 c 1,7,-1
 913 600 l 1,8,9
 734 361 734 361 610 361 c 0,10,11
 518 361 518 361 518 487 c 0,12,13
 518 644 518 644 646 829 c 128,-1,14
 774 1014 774 1014 924 1014 c 0,15,16
 979 1014 979 1014 1023 973 c 1,17,-1
 1042 1029 l 2,18,19
 1048 1043 1048 1043 1088 1043 c 0,20,21
 1135 1043 1135 1043 1129 1025 c 2,22,-1
 988 533 l 2,23,24
 974 486 974 486 974 458 c 0,25,26
 974 426 974 426 1022 426 c 0,27,28
 1200 426 1200 426 1319 540.5 c 0,29,30
 1438 656 1438 656 1438 856 c 256,31,32
 1438 1056 1438 1056 1286.5 1185.5 c 128,-1,33
 1135 1315 1135 1315 903 1315 c 0,34,35
 609 1315 609 1315 431.5 1106.5 c 128,-1,36
 254 898 254 898 254 602 c 0,37,38
 254 360 254 360 412 199.5 c 128,-1,39
 570 39 570 39 864 39 c 0,40,41
 1015 39 1015 39 1182 111 c 0,42,43
 1186 112 1186 112 1193 105 c 128,-1,44
 1200 98 1200 98 1201 86.5 c 128,-1,45
 1202 75 1202 75 1198 72 c 0,46,47
 1031 -33 1031 -33 803 -33 c 0,48,49
 524 -33 524 -33 318.5 132 c 128,-1,50
 113 297 113 297 113 600 c 0,51,52
 113 948 113 948 352.5 1166 c 128,-1,53
 592 1384 592 1384 922 1384 c 0,54,55
 1202 1384 1202 1384 1364 1227 c 128,-1,56
 1526 1070 1526 1070 1526 858 c 256,0,1
968 788 m 2,57,-1
 1002 902 l 1,58,59
 969 965 969 965 904 965 c 0,60,61
 800 965 800 965 714.5 797 c 128,-1,62
 629 629 629 629 629 513 c 0,63,64
 629 443 629 443 673 443 c 0,65,66
 728 443 728 443 840 571 c 0,67,68
 937 682 937 682 968 788 c 2,57,-1
EndSplineSet
Comment: "last+AD0A-67" 
Colour: ffffff
EndChar

StartChar: A
Encoding: 65 65 33
Width: 1108
GlyphClass: 2
Flags: W
AnchorPoint: "above" 950 1415 basechar 0
LayerCount: 2
Fore
SplineSet
909 186 m 2,0,1
 908 179 908 179 908 165 c 0,2,3
 908 69 908 69 1052 69 c 0,4,5
 1060 69 1060 69 1060 48 c 128,-1,6
 1060 27 1060 27 1048.5 10 c 128,-1,7
 1037 -7 1037 -7 1032 -7 c 1,8,9
 944 0 944 0 819 0 c 128,-1,10
 694 0 694 0 607 -7 c 1,11,12
 599 -7 599 -7 599.5 13.5 c 128,-1,13
 600 34 600 34 611 51.5 c 128,-1,14
 622 69 622 69 629 69 c 0,15,16
 710 69 710 69 738 99.5 c 128,-1,17
 766 130 766 130 773 186 c 2,18,-1
 810 496 l 2,19,20
 814 531 814 531 782 531 c 2,21,-1
 472 531 l 2,22,23
 441 531 441 531 424 506 c 2,24,-1
 214 182 l 2,25,26
 191 147 191 147 191 124 c 0,27,28
 191 69 191 69 323 69 c 0,29,30
 330 69 330 69 330 48 c 128,-1,31
 330 27 330 27 319 10 c 128,-1,32
 308 -7 308 -7 302 -7 c 1,33,34
 216 0 216 0 89 0 c 128,-1,35
 -38 0 -38 0 -124 -7 c 1,36,37
 -132 -7 -132 -7 -132 13 c 128,-1,38
 -132 33 -132 33 -121 51 c 128,-1,39
 -110 69 -110 69 -104 69 c 0,40,41
 -28 69 -28 69 22 91 c 128,-1,42
 72 113 72 113 132 201 c 2,43,-1
 806 1199 l 2,44,45
 822 1222 822 1222 822 1237 c 0,46,47
 822 1244 822 1244 814 1255 c 128,-1,48
 806 1266 806 1266 806 1273 c 0,49,50
 806 1283 806 1283 831 1293 c 0,51,52
 929 1332 929 1332 976.5 1358.5 c 128,-1,53
 1024 1385 1024 1385 1040 1385 c 256,54,55
 1056 1385 1056 1385 1055 1367 c 0,56,57
 1055 1360 1055 1360 1046.5 1322 c 128,-1,58
 1038 1284 1038 1284 1026 1179 c 2,59,-1
 909 186 l 2,0,1
824 629 m 2,60,-1
 886 1159 l 2,61,62
 886 1168 886 1168 874 1168 c 256,63,64
 862 1168 862 1168 856 1159 c 2,65,-1
 503 629 l 2,66,67
 495 619 495 619 495 609.5 c 128,-1,68
 495 600 495 600 514 600 c 2,69,-1
 789 600 l 2,70,71
 821 600 821 600 824 629 c 2,60,-1
EndSplineSet
Substitution2: "'swsh' Swash in Latin lookup 14" A.swash
Substitution2: "'ss19' Latin to Gothic transliteration subtable" u10330
AlternateSubs2: "'salt' Stylistic Alternatives lookup 24-1" uniF13A
Comment: "last+AD0A-71" 
Colour: ffffff
EndChar

StartChar: B
Encoding: 66 66 34
Width: 1217
GlyphClass: 2
Flags: W
AnchorPoint: "above" 846 1415 basechar 0
LayerCount: 2
Back
SplineSet
1157 390 m 0,0,1
 1157 228 1157 228 1021 110.5 c 128,-1,2
 885 -7 885 -7 550 -7 c 0,3,4
 488 -7 488 -7 414.5 -3.5 c 128,-1,5
 341 0 341 0 244.5 0 c 128,-1,6
 148 0 148 0 29 -7 c 1,7,8
 21 -7 21 -7 21 13 c 128,-1,9
 21 33 21 33 32 51 c 128,-1,10
 43 69 43 69 49 69 c 0,11,12
 155.38 69 155.38 69 199.61 92.3795 c 128,-1,13
 243.84 115.759 243.84 115.759 264 186 c 2,14,-1
 547 1172 l 2,15,16
 552 1189.42 552 1189.42 552 1209 c 0,17,18
 552 1256 552 1256 510 1269 c 128,-1,19
 468 1282 468 1282 390 1282 c 0,20,21
 382 1282 382 1282 382 1303 c 128,-1,22
 382 1324 382 1324 393 1341 c 128,-1,23
 404 1358 404 1358 410 1358 c 1,24,25
 570.19 1354 570.19 1354 641.595 1354 c 128,-1,26
 713 1354 713 1354 779 1356 c 152,-1,27
 845 1358 845 1358 904 1358 c 0,28,29
 1075.55 1358 1075.55 1358 1166.28 1281.5 c 128,-1,30
 1257 1205 1257 1205 1257 1095 c 0,31,32
 1257 937 1257 937 1169.55 850.736 c 128,-1,33
 1082.1 764.472 1082.1 764.472 909 733 c 0,34,35
 898 731 898 731 898 725.5 c 128,-1,36
 898 720 898 720 909 716 c 0,37,38
 1157 633 1157 633 1157 390 c 0,0,1
1117 1074 m 0,39,40
 1117 1305 1117 1305 778 1305 c 0,41,42
 728 1305 728 1305 707 1230 c 2,43,-1
 583 795 l 2,44,45
 581 785 581 785 581 783 c 0,46,47
 581 753 581 753 676 753 c 0,48,49
 875 753 875 753 996 845.5 c 128,-1,50
 1117 938 1117 938 1117 1074 c 0,39,40
1005 421.5 m 256,51,52
 1005 556 1005 556 913 625.5 c 128,-1,53
 821 695 821 695 663 695 c 256,54,55
 553 695 553 695 536 636 c 2,56,-1
 434 277 l 2,57,58
 413 205 413 205 413 167 c 0,59,60
 413 57 413 57 554 57 c 0,61,62
 760 57 760 57 882.5 151.5 c 128,-1,63
 1005 246 1005 246 1005 421.5 c 256,51,52
EndSplineSet
Fore
SplineSet
1157 390 m 0,0,1
 1157 228 1157 228 1021 110.5 c 128,-1,2
 885 -7 885 -7 550 -7 c 0,3,4
 488 -7 488 -7 414.5 -3.5 c 128,-1,5
 341 0 341 0 244.5 0 c 128,-1,6
 148 0 148 0 29 -7 c 1,7,8
 21 -7 21 -7 21 13 c 128,-1,9
 21 33 21 33 32 51 c 128,-1,10
 43 69 43 69 49 69 c 0,11,12
 155 69 155 69 199.5 92.5 c 128,-1,13
 244 116 244 116 264 186 c 2,14,-1
 547 1172 l 2,15,16
 552 1189 552 1189 552 1209 c 0,17,18
 552 1256 552 1256 510 1269 c 128,-1,19
 468 1282 468 1282 390 1282 c 0,20,21
 382 1282 382 1282 382 1303 c 128,-1,22
 382 1324 382 1324 393 1341 c 128,-1,23
 404 1358 404 1358 410 1358 c 1,24,25
 570 1354 570 1354 641.5 1354 c 128,-1,26
 713 1354 713 1354 779 1356 c 152,-1,27
 845 1358 845 1358 904 1358 c 0,28,29
 1076 1358 1076 1358 1166.5 1281.5 c 128,-1,30
 1257 1205 1257 1205 1257 1095 c 0,31,32
 1257 937 1257 937 1169.5 850.5 c 128,-1,33
 1082 764 1082 764 909 733 c 0,34,35
 898 731 898 731 898 725.5 c 128,-1,36
 898 720 898 720 909 716 c 0,37,38
 1157 633 1157 633 1157 390 c 0,0,1
1117 1074 m 0,39,40
 1117 1193 1117 1193 1029.5 1249 c 128,-1,41
 942 1305 942 1305 778 1305 c 0,42,43
 728 1305 728 1305 707 1230 c 2,44,-1
 583 795 l 2,45,46
 581 785 581 785 581 783 c 0,47,48
 581 753 581 753 676 753 c 0,49,50
 875 753 875 753 996 845.5 c 128,-1,51
 1117 938 1117 938 1117 1074 c 0,39,40
1005 422 m 256,52,53
 1005 556 1005 556 913 625.5 c 128,-1,54
 821 695 821 695 663 695 c 256,55,56
 553 695 553 695 536 636 c 2,57,-1
 434 277 l 2,58,59
 413 205 413 205 413 167 c 0,60,61
 413 57 413 57 554 57 c 0,62,63
 760 57 760 57 882.5 151.5 c 128,-1,64
 1005 246 1005 246 1005 422 c 256,52,53
EndSplineSet
Substitution2: "'ss19' Latin to Gothic transliteration subtable" u10331
Comment: "last+AD0A-64" 
Colour: ffffff
EndChar

StartChar: E
Encoding: 69 69 37
Width: 1255
GlyphClass: 2
Flags: W
AnchorPoint: "above" 966 1415 basechar 0
LayerCount: 2
Fore
SplineSet
1081 19 m 2,0,1
 1073 -7 1073 -7 1053 -7 c 3,2,3
 1008 -7 1008 -7 763.5 -3.5 c 144,-1,4
 519 -0 519 -0 340.5 -0 c 128,-1,5
 162 0 162 0 29 -7 c 1,6,7
 21 -7 21 -7 21 11 c 128,-1,8
 21 29 21 29 32 49 c 128,-1,9
 43 69 43 69 49 69 c 0,10,11
 144 69 144 69 192 90 c 128,-1,12
 240 111 240 111 262 186 c 2,13,-1
 545 1172 l 2,14,15
 549 1186 549 1186 549 1205 c 0,16,17
 549 1282 549 1282 392 1282 c 0,18,19
 384 1282 384 1282 384 1301.5 c 128,-1,20
 384 1321 384 1321 395 1339.5 c 128,-1,21
 406 1358 406 1358 412 1358 c 1,22,23
 545 1354 545 1354 687.5 1354 c 131,-1,24
 830 1354 830 1354 1014.5 1356 c 128,-1,25
 1199 1358 1199 1358 1343 1358 c 3,26,27
 1405 1358 1405 1358 1405 1336 c 0,28,29
 1405 1331 1405 1331 1402 1320 c 2,30,-1
 1314 1010 l 2,31,32
 1310 996 1310 996 1270.5 996 c 128,-1,33
 1231 996 1231 996 1234 1010 c 0,34,35
 1245 1066 1245 1066 1245 1088 c 0,36,37
 1245 1183 1245 1183 1181 1230 c 128,-1,38
 1117 1277 1117 1277 1054 1280 c 0,39,40
 841 1289 841 1289 751 1289 c 0,41,42
 722 1289 722 1289 716 1267 c 2,43,-1
 556 713 l 2,44,45
 554 704 554 704 554 698 c 0,46,47
 554 676 554 676 583 676 c 2,48,-1
 775 676 l 2,49,50
 844 676 844 676 866 688 c 0,51,52
 901 706 901 706 917 764 c 2,53,-1
 944 864 l 2,54,55
 948 879 948 879 984 879 c 128,-1,56
 1020 879 1020 879 1017 864 c 0,57,58
 929 613 929 613 894 436 c 0,59,60
 890 421 890 421 856.5 421 c 128,-1,61
 823 421 823 421 827 437 c 2,62,-1
 852 527 l 2,63,64
 859 552 859 552 859 566 c 0,65,66
 859 607 859 607 756 607 c 2,67,-1
 558 607 l 2,68,69
 525 607 525 607 518 581 c 2,70,-1
 437 300 l 2,71,72
 410 206 410 206 410 160 c 0,73,74
 410 61 410 61 524 61 c 9,75,-1
 764 69 l 2,76,77
 997 77 997 77 1092 344 c 0,78,79
 1097 358 1097 358 1138 358 c 128,-1,80
 1179 358 1179 358 1175 344 c 2,81,-1
 1081 19 l 2,0,1
EndSplineSet
Substitution2: "'ss19' Latin to Gothic transliteration subtable" u10334
AlternateSubs2: "'salt' Stylistic Alternatives lookup 24-1" uniF10A
Comment: "last+AD0A-81" 
Colour: ffffff
EndChar

StartChar: F
Encoding: 70 70 38
Width: 1217
GlyphClass: 2
Flags: W
AnchorPoint: "above" 930 1415 basechar 0
LayerCount: 2
Fore
SplineSet
407 186 m 2,0,1
 401 165 401 165 401 148 c 0,2,3
 401 69 401 69 565 69 c 0,4,5
 572 69 572 69 572 47.5 c 128,-1,6
 572 26 572 26 561.5 9.5 c 128,-1,7
 551 -7 551 -7 545 -7 c 1,8,9
 459 0 459 0 298 0 c 128,-1,10
 137 0 137 0 29 -7 c 1,11,12
 21 -7 21 -7 21 11 c 128,-1,13
 21 29 21 29 32 49 c 128,-1,14
 43 69 43 69 49 69 c 0,15,16
 144 69 144 69 184 87 c 0,17,18
 240 111 240 111 262 186 c 2,19,-1
 545 1172 l 2,20,21
 549 1186 549 1186 549 1205 c 0,22,23
 549 1282 549 1282 392 1282 c 0,24,25
 384 1282 384 1282 384 1301.5 c 128,-1,26
 384 1321 384 1321 395 1339.5 c 128,-1,27
 406 1358 406 1358 412 1358 c 1,28,29
 538 1354 538 1354 634.5 1354 c 128,-1,30
 731 1354 731 1354 982.5 1356 c 128,-1,31
 1234 1358 1234 1358 1343 1358 c 0,32,33
 1405 1358 1405 1358 1405 1336 c 0,34,35
 1405 1331 1405 1331 1402 1320 c 2,36,-1
 1314 1010 l 2,37,38
 1310 996 1310 996 1270.5 996 c 128,-1,39
 1231 996 1231 996 1234 1010 c 0,40,41
 1245 1066 1245 1066 1245 1088 c 0,42,43
 1245 1180 1245 1180 1181 1228.5 c 128,-1,44
 1117 1277 1117 1277 1054 1280 c 0,45,46
 841 1289 841 1289 751 1289 c 0,47,48
 722 1289 722 1289 716 1267 c 2,49,-1
 567 753 l 2,50,51
 565 746 565 746 565 734 c 0,52,53
 565 716 565 716 594 716 c 2,54,-1
 749 716 l 2,55,56
 870 716 870 716 906 846 c 2,57,-1
 938 963 l 2,58,59
 942 977 942 977 975 977 c 128,-1,60
 1008 977 1008 977 1006 963 c 1,61,62
 978 890 978 890 918.5 678.5 c 128,-1,63
 859 467 859 467 844 395 c 1,64,65
 840 380 840 380 804.5 380 c 128,-1,66
 769 380 769 380 773 395 c 2,67,-1
 808 512 l 2,68,69
 815 535 815 535 815 559 c 0,70,71
 815 640 815 640 728 640 c 2,72,-1
 567 640 l 2,73,74
 535 640 535 640 527 613 c 2,75,-1
 407 186 l 2,0,1
EndSplineSet
Substitution2: "'ss19' Latin to Gothic transliteration subtable" u10346
Comment: "last+AD0A-75" 
Colour: ffffff
EndChar

StartChar: G
Encoding: 71 71 39
Width: 1476
GlyphClass: 2
Flags: W
AnchorPoint: "above" 1152 1415 basechar 0
LayerCount: 2
Fore
SplineSet
1245 133 m 2,0,1
 1239 112 1239 112 1239 96.5 c 128,-1,2
 1239 81 1239 81 1256.5 78 c 128,-1,3
 1274 75 1274 75 1274 63 c 0,4,5
 1274 31 1274 31 1252 31 c 0,6,7
 1215 31 1215 31 1075 11 c 128,-1,8
 935 -9 935 -9 870 -18 c 128,-1,9
 805 -27 805 -27 721 -27 c 0,10,11
 500 -27 500 -27 358.5 103.5 c 128,-1,12
 217 234 217 234 217 454 c 0,13,14
 217 796 217 796 503.5 1090.5 c 128,-1,15
 790 1385 790 1385 1130 1385 c 0,16,17
 1300 1385 1300 1385 1428 1356 c 128,-1,18
 1556 1327 1556 1327 1573 1327 c 1,19,20
 1573 1222 1573 1222 1514 1019 c 0,21,22
 1509 1001 1509 1001 1475.5 1001 c 128,-1,23
 1442 1001 1442 1001 1444 1014 c 0,24,25
 1449 1045 1449 1045 1449 1076 c 0,26,27
 1449 1200 1449 1200 1359 1257 c 128,-1,28
 1269 1314 1269 1314 1103 1314 c 0,29,30
 804 1314 804 1314 592 1046.5 c 128,-1,31
 380 779 380 779 380 475 c 0,32,33
 380 302 380 302 483.5 175 c 0,34,35
 588 48 588 48 780 48 c 0,36,37
 1086 48 1086 48 1120 173 c 2,38,-1
 1173 363 l 2,39,40
 1182 395 1182 395 1182 412 c 0,41,42
 1182 454 1182 454 1139 466 c 128,-1,43
 1096 478 1096 478 978 478 c 0,44,45
 971 478 971 478 971 498.5 c 128,-1,46
 971 519 971 519 982.5 536.5 c 128,-1,47
 994 554 994 554 1001 554 c 1,48,49
 1076 549 1076 549 1261 549 c 128,-1,50
 1446 549 1446 549 1507 554 c 1,51,52
 1515 554 1515 554 1515 534.5 c 128,-1,53
 1515 515 1515 515 1503 496.5 c 128,-1,54
 1491 478 1491 478 1484 478 c 0,55,56
 1390 478 1390 478 1360 456.5 c 128,-1,57
 1330 435 1330 435 1310 363 c 2,58,-1
 1245 133 l 2,0,1
EndSplineSet
Substitution2: "'ss19' Latin to Gothic transliteration subtable" u10332
AlternateSubs2: "'salt' Stylistic Alternatives lookup 24-1" uniF10E
Comment: "last+AD0A-57+AAoA-width of curve: 163" 
Colour: ffffff
EndChar

StartChar: H
Encoding: 72 72 40
Width: 1503
GlyphClass: 2
Flags: W
AnchorPoint: "above" 1056 1415 basechar 0
LayerCount: 2
Fore
SplineSet
1167 186 m 2,0,1
 1161 165 1161 165 1161 152 c 0,2,3
 1161 69 1161 69 1318 69 c 0,4,5
 1326 69 1326 69 1326 51 c 128,-1,6
 1326 33 1326 33 1315 13 c 128,-1,7
 1304 -7 1304 -7 1297 -7 c 1,8,9
 1209 0 1209 0 1049.5 0 c 128,-1,10
 890 0 890 0 789 -7 c 1,11,12
 782 -7 782 -7 782 12.5 c 128,-1,13
 782 32 782 32 793 50.5 c 128,-1,14
 804 69 804 69 810 69 c 0,15,16
 917 69 917 69 960.5 96 c 128,-1,17
 1004 123 1004 123 1022 186 c 2,18,-1
 1148 627 l 2,19,20
 1152 642 1152 642 1152 652.5 c 128,-1,21
 1152 663 1152 663 1123 663 c 2,22,-1
 576 663 l 2,23,24
 544 663 544 663 534 627 c 2,25,-1
 407 186 l 2,26,27
 401 165 401 165 401 151 c 0,28,29
 401 69 401 69 558 69 c 0,30,31
 565 69 565 69 565 47.5 c 128,-1,32
 565 26 565 26 554 9.5 c 128,-1,33
 543 -7 543 -7 536 -7 c 1,34,35
 451 0 451 0 279 0 c 128,-1,36
 107 0 107 0 29 -7 c 1,37,38
 21 -7 21 -7 21 11 c 128,-1,39
 21 29 21 29 32 49 c 128,-1,40
 43 69 43 69 49 69 c 0,41,42
 167 69 167 69 206.5 100 c 128,-1,43
 246 131 246 131 262 186 c 2,44,-1
 545 1172 l 2,45,46
 550 1189 550 1189 550 1207 c 0,47,48
 550 1287 550 1287 394 1287 c 0,49,50
 386 1287 386 1287 386 1306.5 c 128,-1,51
 386 1326 386 1326 397 1344.5 c 128,-1,52
 408 1363 408 1363 414 1363 c 1,53,54
 460 1358 460 1358 669 1358 c 128,-1,55
 878 1358 878 1358 924 1363 c 1,56,57
 932 1363 932 1363 932 1343.5 c 128,-1,58
 932 1324 932 1324 921 1305.5 c 128,-1,59
 910 1287 910 1287 904 1287 c 0,60,61
 787 1287 787 1287 746 1257.5 c 128,-1,62
 705 1228 705 1228 689 1172 c 2,63,-1
 577 780 l 2,64,65
 572 761 572 761 572 750 c 128,-1,66
 572 739 572 739 600 739 c 2,67,-1
 1146 739 l 2,68,69
 1180 739 1180 739 1192 780 c 2,70,-1
 1305 1172 l 2,71,72
 1310 1189 1310 1189 1310 1207 c 0,73,74
 1310 1287 1310 1287 1154 1287 c 0,75,76
 1146 1287 1146 1287 1146 1308.5 c 128,-1,77
 1146 1330 1146 1330 1157 1346.5 c 128,-1,78
 1168 1363 1168 1363 1175 1363 c 1,79,80
 1250 1358 1250 1358 1428 1358 c 128,-1,81
 1606 1358 1606 1358 1684 1363 c 1,82,83
 1692 1363 1692 1363 1692 1342 c 128,-1,84
 1692 1321 1692 1321 1681 1304 c 128,-1,85
 1670 1287 1670 1287 1664 1287 c 0,86,87
 1557 1287 1557 1287 1512 1261 c 128,-1,88
 1467 1235 1467 1235 1449 1172 c 10,89,-1
 1167 186 l 2,0,1
EndSplineSet
Substitution2: "'ss19' Latin to Gothic transliteration subtable" u10337
AlternateSubs2: "'salt' Stylistic Alternatives lookup 24-1" uniF110
Comment: "last+AD0A-89" 
Colour: ffffff
EndChar

StartChar: I
Encoding: 73 73 41
Width: 729
GlyphClass: 2
Flags: MW
AnchorPoint: "above" 678 1415 basechar 0
LayerCount: 2
Fore
SplineSet
407 186 m 2,0,1
 401 166 401 166 401 152 c 0,2,3
 401 69 401 69 558 69 c 0,4,5
 565 69 565 69 565 47.5 c 128,-1,6
 565 26 565 26 554 9.5 c 128,-1,7
 543 -7 543 -7 536 -7 c 1,8,9
 450 0 450 0 282.5 0 c 128,-1,10
 115 0 115 0 29 -7 c 1,11,12
 21 -7 21 -7 21 13 c 128,-1,13
 21 33 21 33 32 51 c 128,-1,14
 43 69 43 69 49 69 c 0,15,16
 137 69 137 69 189 90.5 c 128,-1,17
 241 112 241 112 262 186 c 2,18,-1
 545 1172 l 2,19,20
 550 1194 550 1194 550 1207 c 0,21,22
 550 1287 550 1287 394 1287 c 0,23,24
 386 1287 386 1287 386 1308 c 128,-1,25
 386 1329 386 1329 397 1346 c 128,-1,26
 408 1363 408 1363 414 1363 c 1,27,28
 460 1358 460 1358 669 1358 c 128,-1,29
 878 1358 878 1358 924 1363 c 1,30,31
 932 1363 932 1363 932 1342 c 128,-1,32
 932 1321 932 1321 921 1304 c 128,-1,33
 910 1287 910 1287 904 1287 c 0,34,35
 790 1287 790 1287 748 1259.5 c 128,-1,36
 706 1232 706 1232 689 1172 c 9,37,-1
 407 186 l 2,0,1
EndSplineSet
Substitution2: "'ss19' Latin to Gothic transliteration subtable" u10339
Comment: "last+AD0A-37+AAoA-width of stroke: 139" 
Colour: ffffff
EndChar

StartChar: J
Encoding: 74 74 42
Width: 720
GlyphClass: 2
Flags: W
AnchorPoint: "above" 680 1415 basechar 0
LayerCount: 2
Fore
SplineSet
409 160 m 18,0,1
 323 -129 323 -129 162.5 -274 c 128,-1,2
 2 -419 2 -419 -160 -419 c 0,3,4
 -191 -419 -191 -419 -228 -397.5 c 128,-1,5
 -265 -376 -265 -376 -265 -330.5 c 128,-1,6
 -265 -285 -265 -285 -228 -250.5 c 128,-1,7
 -191 -216 -191 -216 -123 -216 c 256,8,9
 -69 -216 -69 -216 -36.5 -250 c 128,-1,10
 -4 -284 -4 -284 -4 -317 c 1,11,12
 76 -292 76 -292 140.5 -189.5 c 128,-1,13
 205 -87 205 -87 410 634 c 10,14,-1
 563 1172 l 2,15,16
 568 1190 568 1190 568 1201 c 0,17,18
 568 1287 568 1287 407 1287 c 0,19,20
 399 1287 399 1287 399 1308.5 c 128,-1,21
 399 1330 399 1330 410 1346.5 c 128,-1,22
 421 1363 421 1363 428 1363 c 1,23,24
 475 1358 475 1358 669.5 1358 c 128,-1,25
 864 1358 864 1358 936 1363 c 1,26,27
 944 1363 944 1363 944 1342.5 c 128,-1,28
 944 1322 944 1322 933 1304.5 c 128,-1,29
 922 1287 922 1287 915 1287 c 0,30,31
 817 1287 817 1287 772.5 1260.5 c 128,-1,32
 728 1234 728 1234 709 1172 c 10,33,-1
 409 160 l 18,0,1
EndSplineSet
Substitution2: "'swsh' Swash in Latin lookup 14" J.swash
Substitution2: "'ss19' Latin to Gothic transliteration subtable" u1033E
Comment: "last+AD0A-33" 
Colour: ffffff
EndChar

StartChar: K
Encoding: 75 75 43
Width: 1301
GlyphClass: 2
Flags: W
AnchorPoint: "above" 1022 1415 basechar 0
LayerCount: 2
Fore
SplineSet
1012 173 m 18,0,1
 1044 109 1044 109 1094.5 89 c 128,-1,2
 1145 69 1145 69 1240 69 c 0,3,4
 1253 69 1253 69 1253 46.5 c 128,-1,5
 1253 24 1253 24 1242 8.5 c 128,-1,6
 1231 -7 1231 -7 1225 -7 c 1,7,8
 1138 0 1138 0 986 0 c 128,-1,9
 834 0 834 0 747 -7 c 1,10,11
 740 -7 740 -7 740 14 c 128,-1,12
 740 35 740 35 751 52 c 128,-1,13
 762 69 762 69 768 69 c 0,14,15
 870 69 870 69 870 116 c 0,16,17
 870 141 870 141 848 186 c 2,18,-1
 678 539 l 2,19,20
 653 590 653 590 617 617.5 c 128,-1,21
 581 645 581 645 558 645 c 128,-1,22
 535 645 535 645 531 625 c 2,23,-1
 407 186 l 2,24,25
 400 165 400 165 400 146 c 0,26,27
 400 69 400 69 550 69 c 0,28,29
 557 69 557 69 557 47 c 128,-1,30
 557 25 557 25 546 9 c 128,-1,31
 535 -7 535 -7 529 -7 c 1,32,33
 442 0 442 0 278.5 0 c 128,-1,34
 115 0 115 0 29 -7 c 1,35,36
 21 -7 21 -7 21 13 c 128,-1,37
 21 33 21 33 32 51 c 128,-1,38
 43 69 43 69 49 69 c 0,39,40
 172 69 172 69 210 102 c 128,-1,41
 248 135 248 135 262 186 c 2,42,-1
 545 1172 l 2,43,44
 551 1193 551 1193 551 1211 c 0,45,46
 551 1287 551 1287 392 1287 c 0,47,48
 383 1287 383 1287 383 1309.5 c 128,-1,49
 383 1332 383 1332 393.5 1347.5 c 128,-1,50
 404 1363 404 1363 410 1363 c 1,51,52
 458 1358 458 1358 667 1358 c 128,-1,53
 876 1358 876 1358 922 1363 c 1,54,55
 930 1363 930 1363 930 1342 c 128,-1,56
 930 1321 930 1321 919 1304 c 128,-1,57
 908 1287 908 1287 902 1287 c 0,58,59
 782 1287 782 1287 743 1256.5 c 128,-1,60
 704 1226 704 1226 689 1172 c 2,61,-1
 561 729 l 2,62,63
 559 723 559 723 559 718 c 128,-1,64
 559 713 559 713 569 713 c 0,65,66
 610 713 610 713 716 810 c 2,67,-1
 1116 1175 l 2,68,69
 1178 1232 1178 1232 1178 1262 c 0,70,71
 1178 1287 1178 1287 1130 1287 c 0,72,73
 1123 1287 1123 1287 1123 1308.5 c 128,-1,74
 1123 1330 1123 1330 1134 1346.5 c 128,-1,75
 1145 1363 1145 1363 1152 1363 c 1,76,77
 1198 1358 1198 1358 1344 1358 c 128,-1,78
 1490 1358 1490 1358 1536 1363 c 1,79,80
 1544 1363 1544 1363 1544 1342.5 c 128,-1,81
 1544 1322 1544 1322 1533 1304.5 c 128,-1,82
 1522 1287 1522 1287 1515 1287 c 0,83,84
 1415 1287 1415 1287 1353 1259.5 c 128,-1,85
 1291 1232 1291 1232 1199 1150 c 2,86,-1
 753 747 l 2,87,88
 743 738 743 738 743 728 c 256,89,90
 743 718 743 718 747 709 c 2,91,-1
 1012 173 l 18,0,1
EndSplineSet
Substitution2: "'ss19' Latin to Gothic transliteration subtable" u1033A
Comment: "last+AD0A-90" 
Colour: ffffff
EndChar

StartChar: N
Encoding: 78 78 46
Width: 1539
GlyphClass: 2
Flags: W
AnchorPoint: "above" 1106 1415 basechar 0
LayerCount: 2
Fore
SplineSet
1232 4 m 2,0,1
 1223 -29 1223 -29 1206.5 -29 c 128,-1,2
 1190 -29 1190 -29 1175 0 c 2,3,-1
 636 1117 l 2,4,5
 627 1137 627 1137 610.5 1137 c 128,-1,6
 594 1137 594 1137 587 1106 c 2,7,-1
 325 186 l 2,8,9
 317 159 317 159 317 141 c 0,10,11
 317 69 317 69 450 69 c 0,12,13
 458 69 458 69 458 48 c 128,-1,14
 458 27 458 27 447 10 c 128,-1,15
 436 -7 436 -7 430 -7 c 1,16,17
 344 0 344 0 229.5 0 c 128,-1,18
 115 0 115 0 29 -7 c 1,19,20
 21 -7 21 -7 21 13 c 128,-1,21
 21 33 21 33 32 51 c 128,-1,22
 43 69 43 69 49 69 c 0,23,24
 139 69 139 69 187 90 c 128,-1,25
 235 111 235 111 256 186 c 10,26,-1
 520 1114 l 2,27,28
 534 1164 534 1164 534 1212 c 128,-1,29
 534 1260 534 1260 486 1277 c 0,30,31
 456 1287 456 1287 390 1287 c 0,32,33
 382 1287 382 1287 382 1308 c 128,-1,34
 382 1329 382 1329 393 1346 c 128,-1,35
 404 1363 404 1363 410 1363 c 0,36,37
 458 1358 458 1358 540.5 1358 c 128,-1,38
 623 1358 623 1358 651.5 1353.5 c 128,-1,39
 680 1349 680 1349 698 1312 c 2,40,-1
 1188 288 l 2,41,42
 1202 260 1202 260 1218 260 c 256,43,44
 1234 260 1234 260 1241 290 c 2,45,-1
 1498 1172 l 2,46,47
 1505 1196 1505 1196 1505 1216 c 0,48,49
 1505 1287 1505 1287 1356 1287 c 0,50,51
 1349 1287 1349 1287 1349 1307 c 128,-1,52
 1349 1327 1349 1327 1361 1345 c 128,-1,53
 1373 1363 1373 1363 1379 1363 c 1,54,55
 1426 1358 1426 1358 1572 1358 c 128,-1,56
 1718 1358 1718 1358 1765 1363 c 1,57,58
 1772 1363 1772 1363 1772 1342 c 128,-1,59
 1772 1321 1772 1321 1761 1304 c 128,-1,60
 1750 1287 1750 1287 1744 1287 c 0,61,62
 1666 1287 1666 1287 1627 1267.5 c 128,-1,63
 1588 1248 1588 1248 1566 1172 c 10,64,-1
 1232 4 l 2,0,1
EndSplineSet
Substitution2: "'ss19' Latin to Gothic transliteration subtable" u1033D
Comment: "last+AD0A-64" 
Colour: ffffff
EndChar

StartChar: P
Encoding: 80 80 48
Width: 1184
GlyphClass: 2
Flags: W
AnchorPoint: "above" 924 1415 basechar 0
LayerCount: 2
Fore
SplineSet
1327 1081 m 0,0,1
 1327 868 1327 868 1141.5 728.5 c 128,-1,2
 956 589 956 589 731 589 c 0,3,4
 660 589 660 589 552 602 c 0,5,6
 527 605 527 605 521 583 c 2,7,-1
 409 186 l 2,8,9
 403 165 403 165 403 148 c 0,10,11
 403 69 403 69 560 69 c 0,12,13
 567 69 567 69 567 48 c 128,-1,14
 567 27 567 27 556 10 c 128,-1,15
 545 -7 545 -7 539 -7 c 1,16,17
 453 0 453 0 285 0 c 128,-1,18
 117 0 117 0 31 -7 c 1,19,20
 23 -7 23 -7 23 14 c 128,-1,21
 23 35 23 35 34 52 c 128,-1,22
 45 69 45 69 51 69 c 0,23,24
 141 69 141 69 192.5 93 c 128,-1,25
 244 117 244 117 264 186 c 10,26,-1
 547 1172 l 2,27,28
 551 1186 551 1186 551 1201 c 0,29,30
 551 1282 551 1282 392 1282 c 0,31,32
 384 1282 384 1282 384 1303 c 128,-1,33
 384 1324 384 1324 395 1341 c 128,-1,34
 406 1358 406 1358 412 1358 c 1,35,36
 512 1355 512 1355 640.5 1355 c 128,-1,37
 769 1355 769 1355 830.5 1356.5 c 128,-1,38
 892 1358 892 1358 969 1358 c 0,39,40
 1128 1358 1128 1358 1227.5 1283 c 128,-1,41
 1327 1208 1327 1208 1327 1081 c 0,0,1
1165 1068 m 0,42,43
 1165 1171 1165 1171 1089 1233.5 c 128,-1,44
 1013 1296 1013 1296 869 1296 c 256,45,46
 725 1296 725 1296 716 1265 c 2,47,-1
 554 698 l 2,48,49
 548 675 548 675 567 671 c 0,50,51
 631 658 631 658 687 658 c 0,52,53
 892 658 892 658 1028.5 772 c 128,-1,54
 1165 886 1165 886 1165 1068 c 0,42,43
EndSplineSet
Substitution2: "'ss19' Latin to Gothic transliteration subtable" u10340
Comment: "last+AD0A-53" 
Colour: ffffff
EndChar

StartChar: Q
Encoding: 81 81 49
Width: 1478
GlyphClass: 2
Flags: W
AnchorPoint: "above" 1090 1415 basechar 0
LayerCount: 2
Fore
SplineSet
1534 886 m 0,0,1
 1534 731 1534 731 1464.5 561 c 128,-1,2
 1395 391 1395 391 1248 241.5 c 128,-1,3
 1101 92 1101 92 944 29 c 0,4,5
 936 26 936 26 936 20 c 128,-1,6
 936 14 936 14 940 9 c 0,7,8
 992 -54 992 -54 1153 -141.5 c 128,-1,9
 1314 -229 1314 -229 1517 -284 c 0,10,11
 1526 -287 1526 -287 1526 -305.5 c 128,-1,12
 1526 -324 1526 -324 1509 -342.5 c 128,-1,13
 1492 -361 1492 -361 1482 -359 c 0,14,15
 1210 -302 1210 -302 949 -201 c 128,-1,16
 688 -100 688 -100 517.5 -16.5 c 128,-1,17
 347 67 347 67 282 167 c 128,-1,18
 217 267 217 267 217 443 c 0,19,20
 217 796 217 796 492.5 1090.5 c 128,-1,21
 768 1385 768 1385 1079 1385 c 0,22,23
 1295 1385 1295 1385 1414.5 1243 c 128,-1,24
 1534 1101 1534 1101 1534 886 c 0,0,1
1371 886 m 0,25,26
 1371 1080 1371 1080 1277 1196.5 c 128,-1,27
 1183 1313 1183 1313 1035 1314 c 256,28,29
 878 1314 878 1314 721 1184 c 128,-1,30
 564 1054 564 1054 472 852 c 128,-1,31
 380 650 380 650 380 448 c 256,32,33
 380 286 380 286 476.5 166.5 c 128,-1,34
 573 47 573 47 707 47 c 0,35,36
 980 47 980 47 1175.5 314.5 c 128,-1,37
 1371 582 1371 582 1371 886 c 0,25,26
EndSplineSet
Substitution2: "'swsh' Swash in Latin lookup 14" Q.swash
Substitution2: "'ss19' Latin to Gothic transliteration subtable" u10335
Comment: "last+AD0A-37" 
Colour: ffffff
EndChar

StartChar: R
Encoding: 82 82 50
Width: 1358
GlyphClass: 2
Flags: W
AnchorPoint: "above" 880 1415 basechar 0
LayerCount: 2
Fore
SplineSet
1361 1083 m 256,0,1
 1361 953 1361 953 1262 821.5 c 128,-1,2
 1163 690 1163 690 930 625 c 0,3,4
 912 620 912 620 912 604.5 c 128,-1,5
 912 589 912 589 917 573 c 0,6,7
 1002 296 1002 296 1146 120 c 0,8,9
 1232 15 1232 15 1343 15 c 0,10,11
 1352 15 1352 15 1352 5 c 0,12,13
 1352 -19 1352 -19 1331 -21 c 0,14,15
 1290 -24 1290 -24 1252 -24 c 0,16,17
 1139 -24 1139 -24 1074.5 -0.5 c 128,-1,18
 1010 23 1010 23 945.5 100.5 c 128,-1,19
 881 178 881 178 856 245 c 2,20,-1
 764 487 l 2,21,22
 744 538 744 538 714 574 c 0,23,24
 696 596 696 596 647 596 c 128,-1,25
 598 596 598 596 568 599.5 c 0,26,27
 538 604 538 604 531 598 c 0,28,29
 523 592 523 592 521 583 c 2,30,-1
 409 186 l 2,31,32
 402 161 402 161 402 143 c 0,33,34
 402 69 402 69 563 69 c 0,35,36
 570 69 570 69 570 47.5 c 128,-1,37
 570 26 570 26 559.5 9.5 c 128,-1,38
 549 -7 549 -7 543 -7 c 1,39,40
 456 0 456 0 285.5 0 c 128,-1,41
 115 0 115 0 29 -7 c 1,42,43
 21 -7 21 -7 21 13 c 128,-1,44
 21 33 21 33 32 51 c 128,-1,45
 43 69 43 69 49 69 c 0,46,47
 152 69 152 69 198.5 94 c 128,-1,48
 245 119 245 119 264 186 c 10,49,-1
 547 1172 l 2,50,51
 552 1189 552 1189 552 1215 c 0,52,53
 552 1282 552 1282 390 1282 c 0,54,55
 382 1282 382 1282 382 1303 c 128,-1,56
 382 1324 382 1324 393 1341 c 128,-1,57
 404 1358 404 1358 410 1358 c 1,58,59
 510 1355 510 1355 653 1355 c 128,-1,60
 796 1355 796 1355 851 1356.5 c 128,-1,61
 906 1358 906 1358 984 1358 c 0,62,63
 1147 1358 1147 1358 1254 1285.5 c 128,-1,64
 1361 1213 1361 1213 1361 1083 c 256,0,1
1199 1066 m 0,65,66
 1199 1168 1199 1168 1114.5 1232 c 128,-1,67
 1030 1296 1030 1296 862 1296 c 0,68,69
 768 1296 768 1296 744.5 1288.5 c 128,-1,70
 721 1281 721 1281 716 1265 c 2,71,-1
 554 698 l 2,72,73
 553 694 553 694 553 684.5 c 128,-1,74
 553 675 553 675 570 671 c 0,75,76
 639 658 639 658 687 658 c 0,77,78
 897 658 897 658 1048 767 c 128,-1,79
 1199 876 1199 876 1199 1066 c 0,65,66
EndSplineSet
Substitution2: "'ss19' Latin to Gothic transliteration subtable" u10342
Comment: "last+AD0A-77" 
Colour: ffffff
EndChar

StartChar: S
Encoding: 83 83 51
Width: 1042
GlyphClass: 2
Flags: W
AnchorPoint: "above" 850 1415 basechar 0
LayerCount: 2
Fore
SplineSet
991 504 m 0,0,1
 991 303 991 303 829.5 138 c 128,-1,2
 668 -27 668 -27 464 -27 c 0,3,4
 349 -27 349 -27 285.5 -7 c 128,-1,5
 222 13 222 13 116 73 c 1,6,-1
 116 145 l 1,7,8
 127 318 127 318 151 365 c 0,9,10
 159 381 159 381 190 381 c 0,11,12
 220 381 220 381 221 374 c 1,13,14
 214 336 214 336 214 307 c 0,15,16
 214 178 214 178 299 113 c 128,-1,17
 384 48 384 48 522 48 c 0,18,19
 636 48 636 48 728.5 154.5 c 128,-1,20
 821 261 821 261 821 385 c 0,21,22
 821 541 821 541 668 607 c 2,23,-1
 490 683 l 2,24,25
 338 748 338 748 338 934 c 256,26,27
 338 1120 338 1120 492 1252.5 c 128,-1,28
 646 1385 646 1385 839 1385 c 0,29,30
 946 1385 946 1385 1028 1365 c 128,-1,31
 1110 1345 1110 1345 1133 1345 c 1,32,33
 1131 1248 1131 1248 1098 1081 c 0,34,35
 1093 1062 1093 1062 1060.5 1062 c 128,-1,36
 1028 1062 1028 1062 1026 1079 c 2,37,-1
 1025 1135 l 2,38,39
 1007 1318 1007 1318 801 1318 c 0,40,41
 670 1318 670 1318 579 1223 c 128,-1,42
 488 1128 488 1128 488 996 c 0,43,44
 488 890 488 890 618 833 c 2,45,-1
 860 730 l 2,46,47
 991 674 991 674 991 504 c 0,0,1
EndSplineSet
Substitution2: "'ss19' Latin to Gothic transliteration subtable" u10343
AlternateSubs2: "'salt' Stylistic Alternatives lookup 24-1" uniF126
Comment: "last+AD0A-46" 
Colour: ffffff
EndChar

StartChar: T
Encoding: 84 84 52
Width: 1275
GlyphClass: 2
Flags: W
AnchorPoint: "above" 1120 1415 basechar 0
LayerCount: 2
Fore
SplineSet
699 186 m 2,0,1
 694 169 694 169 694 149 c 0,2,3
 694 69 694 69 851 69 c 0,4,5
 858 69 858 69 858 47.5 c 128,-1,6
 858 26 858 26 847.5 9.5 c 128,-1,7
 837 -7 837 -7 831 -7 c 1,8,9
 743 0 743 0 566.5 0 c 128,-1,10
 390 0 390 0 304 -7 c 1,11,12
 296 -7 296 -7 296 14 c 128,-1,13
 296 35 296 35 307 52 c 128,-1,14
 318 69 318 69 324 69 c 0,15,16
 440 69 440 69 489.5 97 c 128,-1,17
 539 125 539 125 556 186 c 10,18,-1
 857 1240 l 2,19,20
 862 1258 862 1258 862 1263 c 0,21,22
 862 1282 862 1282 825 1282 c 2,23,-1
 687 1282 l 2,24,25
 432 1282 432 1282 353 1006 c 0,26,27
 349 992 349 992 313 992 c 128,-1,28
 277 992 277 992 275 1006 c 1,29,-1
 367 1327 l 2,30,31
 376 1358 376 1358 445 1358 c 0,32,33
 557 1358 557 1358 688 1356 c 128,-1,34
 819 1354 819 1354 936 1354 c 128,-1,35
 1053 1354 1053 1354 1188.5 1356 c 128,-1,36
 1324 1358 1324 1358 1474 1358 c 0,37,38
 1546 1358 1546 1358 1546 1338 c 2,39,-1
 1449 1006 l 2,40,41
 1445 992 1445 992 1405.5 992 c 128,-1,42
 1366 992 1366 992 1369 1006 c 0,43,44
 1384 1076 1384 1076 1384 1104 c 0,45,46
 1384 1282 1384 1282 1188 1282 c 2,47,-1
 1054 1282 l 2,48,49
 1013 1282 1013 1282 1002 1245 c 2,50,-1
 699 186 l 2,0,1
EndSplineSet
Substitution2: "'ss19' Latin to Gothic transliteration subtable" u10344
Substitution2: "'ss09' Alternates in PUA-1" T.alt
Comment: "last+AD0A-48" 
Colour: ffffff
EndChar

StartChar: W
Encoding: 87 87 55
Width: 1944
GlyphClass: 2
Flags: W
AnchorPoint: "above" 1302 1415 basechar 0
LayerCount: 2
Fore
SplineSet
1703 686 m 2,0,-1
 1219 -13 l 18,1,2
 1203 -36 1203 -36 1191 -36 c 256,3,4
 1178 -36 1178 -36 1169 6 c 2,5,-1
 1062 511 l 2,6,7
 1058 536 1058 536 1051 536 c 256,8,9
 1044 536 1044 536 1027 511 c 2,10,-1
 665 -13 l 2,11,12
 650 -36 650 -36 636 -36 c 256,13,14
 622 -36 622 -36 615 6 c 2,15,-1
 368 1172 l 2,16,17
 353 1245 353 1245 322.5 1266 c 128,-1,18
 292 1287 292 1287 222 1287 c 0,19,20
 215 1287 215 1287 215 1306.5 c 128,-1,21
 215 1326 215 1326 226 1344.5 c 128,-1,22
 237 1363 237 1363 243 1363 c 1,23,24
 289 1358 289 1358 451.5 1358 c 128,-1,25
 614 1358 614 1358 687 1363 c 1,26,27
 695 1363 695 1363 695 1343.5 c 128,-1,28
 695 1324 695 1324 684 1305.5 c 128,-1,29
 673 1287 673 1287 667 1287 c 0,30,31
 506 1287 506 1287 506 1209 c 0,32,33
 506 1190 506 1190 510 1172 c 2,34,-1
 709 252 l 2,35,36
 716 226 716 226 730 226 c 256,37,38
 744 226 744 226 762 250 c 2,39,-1
 1002 590 l 2,40,41
 1026 624 1026 624 1026 652 c 256,42,43
 1026 680 1026 680 1022 700 c 2,44,-1
 922 1172 l 2,45,46
 906 1249 906 1249 883 1268 c 128,-1,47
 860 1287 860 1287 795 1287 c 0,48,49
 787 1287 787 1287 787 1306.5 c 128,-1,50
 787 1326 787 1326 798 1344.5 c 128,-1,51
 809 1363 809 1363 815 1363 c 1,52,53
 861 1358 861 1358 1020 1358 c 128,-1,54
 1179 1358 1179 1358 1241 1363 c 1,55,56
 1249 1363 1249 1363 1249 1342 c 128,-1,57
 1249 1321 1249 1321 1238.5 1305 c 128,-1,58
 1228 1289 1228 1289 1221 1287 c 0,59,60
 1060 1287 1060 1287 1060 1209 c 0,61,62
 1060 1191 1060 1191 1064 1172 c 2,63,-1
 1134 847 l 2,64,65
 1140 815 1140 815 1147 815 c 256,66,67
 1154 815 1154 815 1173 847 c 2,68,-1
 1379 1163 l 2,69,70
 1412 1212 1412 1212 1412 1246 c 0,71,72
 1412 1287 1412 1287 1307 1287 c 0,73,74
 1299 1287 1299 1287 1299 1306.5 c 128,-1,75
 1299 1326 1299 1326 1310 1344.5 c 128,-1,76
 1321 1363 1321 1363 1327 1363 c 1,77,78
 1374 1358 1374 1358 1532.5 1358 c 128,-1,79
 1691 1358 1691 1358 1755 1363 c 1,80,81
 1763 1363 1763 1363 1763 1342 c 128,-1,82
 1763 1321 1763 1321 1752.5 1305 c 128,-1,83
 1742 1289 1742 1289 1735 1287 c 0,84,85
 1584 1287 1584 1287 1522 1201 c 2,86,-1
 1205 763 l 2,87,88
 1175 722 1175 722 1175 692 c 256,89,90
 1175 662 1175 662 1178 647 c 2,91,-1
 1263 252 l 2,92,93
 1269 225 1269 225 1283 225 c 256,94,95
 1297 225 1297 225 1316 250 c 0,96,97
 1502 494 1502 494 1933 1163 c 0,98,99
 1966 1217 1966 1217 1966 1246 c 0,100,101
 1966 1287 1966 1287 1861 1287 c 0,102,103
 1853 1287 1853 1287 1853 1306.5 c 128,-1,104
 1853 1326 1853 1326 1864 1344.5 c 128,-1,105
 1875 1363 1875 1363 1881 1363 c 1,106,107
 1928 1358 1928 1358 2094 1358 c 128,-1,108
 2260 1358 2260 1358 2309 1363 c 1,109,110
 2317 1363 2317 1363 2317 1342 c 128,-1,111
 2317 1321 2317 1321 2306 1304 c 128,-1,112
 2295 1287 2295 1287 2289 1287 c 0,113,114
 2141 1287 2141 1287 2076 1201 c 0,115,116
 1920 1000 1920 1000 1703 686 c 2,0,-1
EndSplineSet
Substitution2: "'ss19' Latin to Gothic transliteration subtable" u10345
Substitution2: "'ss02' Style Set 2 in Latin lookup 10" uni01F7
Comment: "last+AD0A-108" 
Colour: ffffff
EndChar

StartChar: backslash
Encoding: 92 92 60
Width: 717
GlyphClass: 2
Flags: W
LayerCount: 2
Fore
SplineSet
713 25 m 2,0,1
 714 23 714 23 714 19 c 0,2,3
 714 -3 714 -3 666 -17 c 0,4,5
 649 -22 649 -22 632.5 -22 c 128,-1,6
 616 -22 616 -22 612 -12 c 2,7,-1
 4 1432 l 2,8,9
 2 1438 2 1438 2 1441 c 0,10,11
 2 1467 2 1467 44 1483 c 0,12,13
 62 1490 62 1490 81 1490 c 128,-1,14
 100 1490 100 1490 106 1475 c 2,15,-1
 713 25 l 2,0,1
EndSplineSet
Comment: "last+AD0A-15" 
Colour: ffffff
EndChar

StartChar: bracketright
Encoding: 93 93 61
Width: 725
GlyphClass: 2
Flags: W
LayerCount: 2
Fore
SplineSet
229 -332 m 2,0,1
 223 -354 223 -354 201 -354 c 2,2,-1
 -231 -354 l 2,3,4
 -240 -354 -240 -354 -240 -333.5 c 128,-1,5
 -240 -313 -240 -313 -232 -294.5 c 128,-1,6
 -224 -276 -224 -276 -213 -276 c 2,7,-1
 92 -276 l 2,8,9
 106 -276 106 -276 113 -252 c 2,10,-1
 596 1430 l 2,11,12
 602 1452 602 1452 584 1452 c 2,13,-1
 305 1452 l 2,14,15
 296 1452 296 1452 296 1475.5 c 128,-1,16
 296 1499 296 1499 307 1514.5 c 128,-1,17
 318 1530 318 1530 324 1530 c 2,18,-1
 743 1530 l 2,19,20
 759 1530 759 1530 759 1518 c 0,21,22
 759 1515 759 1515 758 1511 c 2,23,-1
 229 -332 l 2,0,1
EndSplineSet
Substitution2: "'ss16' Upright brackets-1" bracketright.alt
Comment: "last+AD0A-23" 
Colour: ffffff
EndChar

StartChar: a
Encoding: 97 97 65
Width: 918
GlyphClass: 2
Flags: W
AnchorPoint: "below" 282 -75 basechar 0
AnchorPoint: "above" 620 900 basechar 0
LayerCount: 2
Fore
SplineSet
690 203 m 2,0,1
 680 168 680 168 680 144 c 0,2,3
 680 103 680 103 712 103 c 0,4,5
 745 103 745 103 842 197 c 0,6,7
 851 206 851 206 870 186 c 0,8,9
 883 172 883 172 884 164 c 0,10,11
 884 160 884 160 881 156 c 0,12,13
 815 75 815 75 735.5 24 c 128,-1,14
 656 -27 656 -27 596 -27 c 0,15,16
 535 -27 535 -27 535 52 c 0,17,18
 535 108 535 108 559 172 c 2,19,-1
 602 287 l 1,20,-1
 590 291 l 1,21,22
 352 -27 352 -27 186 -27 c 0,23,24
 126 -27 126 -27 94.5 21 c 128,-1,25
 63 69 63 69 63 141 c 0,26,27
 63 352 63 352 236.5 598 c 128,-1,28
 410 844 410 844 604 844 c 0,29,30
 676 844 676 844 737 788 c 1,31,-1
 761 858 l 2,32,33
 769 882 769 882 824.5 882 c 128,-1,34
 880 882 880 882 880 863 c 0,35,36
 880 861 880 861 879 858 c 2,37,-1
 690 203 l 2,0,1
664 543 m 2,38,-1
 709 694 l 1,39,40
 666 778 666 778 578 778 c 0,41,42
 442 778 442 778 326.5 558 c 128,-1,43
 211 338 211 338 211 176 c 0,44,45
 211 82 211 82 270 82 c 0,46,47
 325 82 325 82 425 182.5 c 128,-1,48
 525 283 525 283 581.5 369 c 128,-1,49
 638 455 638 455 664 543 c 2,38,-1
EndSplineSet
Substitution2: "'ss19' Latin to Gothic transliteration subtable" u10330
Substitution2: "'sups' superscripts subtable" uni1D43
Comment: "last+AD0A-50+AAoA-curve width: 148" 
Colour: ffffff
EndChar

StartChar: c
Encoding: 99 99 67
Width: 674
GlyphClass: 2
Flags: W
AnchorPoint: "below" 288 -75 basechar 0
AnchorPoint: "above" 550 900 basechar 0
LayerCount: 2
Fore
SplineSet
584 113 m 0,0,1
 444 -27 444 -27 301 -27 c 0,2,3
 209 -27 209 -27 153.5 52.5 c 128,-1,4
 98 132 98 132 98 256 c 0,5,6
 98 459 98 459 241.5 655.5 c 128,-1,7
 385 852 385 852 557 852 c 0,8,9
 619 852 619 852 670 822.5 c 128,-1,10
 721 793 721 793 721 754 c 0,11,12
 721 722 721 722 696 699.5 c 128,-1,13
 671 677 671 677 645 677 c 0,14,15
 618 677 618 677 608 696 c 1,16,17
 599 753 599 753 593 762 c 0,18,19
 573 788 573 788 504 788 c 0,20,21
 414 788 414 788 324 626.5 c 128,-1,22
 234 465 234 465 233 324 c 0,23,24
 233 203 233 203 270.5 133 c 128,-1,25
 308 63 308 63 369 63 c 0,26,27
 432 63 432 63 470 84.5 c 128,-1,28
 508 106 508 106 551 145 c 0,29,30
 556 149 556 149 569 145.5 c 128,-1,31
 582 142 582 142 585.5 130.5 c 128,-1,32
 589 119 589 119 584 113 c 0,0,1
EndSplineSet
Substitution2: "'swsh' Swash in Latin lookup 14" uniF198
Substitution2: "'sups' superscripts subtable" uni1D9C
Comment: "last+AD0A-32+AAoA-curve width: 135" 
Colour: ffffff
EndChar

StartChar: d
Encoding: 100 100 68
Width: 958
GlyphClass: 2
Flags: W
AnchorPoint: "above" 736 1545 basechar 0
LayerCount: 2
Back
SplineSet
738 273 m 2,18,-1
 981 1335 l 2,19,20
EndSplineSet
Fore
SplineSet
721 209 m 2,0,1
 714 180 714 180 714 162 c 0,2,3
 714 113 714 113 739 113 c 0,4,5
 790 113 790 113 872 207 c 24,6,7
 875 210 875 210 888 205 c 128,-1,8
 901 200 901 200 909 187 c 128,-1,9
 917 174 917 174 913 170 c 0,10,11
 739 -27 739 -27 637 -27 c 0,12,13
 577 -27 577 -27 577 80 c 0,14,15
 577 106 577 106 584 135 c 2,16,-1
 624 313 l 1,17,-1
 610 324 l 1,18,19
 508 175 508 175 396.5 74 c 128,-1,20
 285 -27 285 -27 186 -27 c 0,21,22
 126 -27 126 -27 94.5 24.5 c 128,-1,23
 63 76 63 76 63 145 c 0,24,25
 63 358 63 358 236 605 c 128,-1,26
 409 852 409 852 604 852 c 0,27,28
 684 852 684 852 735 789 c 1,29,-1
 827 1200 l 2,30,31
 843 1267 843 1267 843 1296 c 0,32,33
 843 1378 843 1378 766 1378 c 0,34,35
 751 1378 751 1378 751 1404 c 128,-1,36
 751 1430 751 1430 766 1430 c 0,37,38
 836 1430 836 1430 914 1457.5 c 128,-1,39
 992 1485 992 1485 997 1485 c 0,40,41
 1010 1485 1010 1485 1010 1472 c 0,42,43
 1010 1469 1010 1469 1008 1460 c 2,44,-1
 721 209 l 2,0,1
710 688 m 1,45,46
 666 786 666 786 578 786 c 0,47,48
 442 786 442 786 326.5 563 c 128,-1,49
 211 340 211 340 211 180 c 0,50,51
 211 82 211 82 270 82 c 0,52,53
 340 82 340 82 469 226.5 c 128,-1,54
 598 371 598 371 668 504 c 2,55,-1
 710 688 l 1,45,46
EndSplineSet
Substitution2: "'ss19' Latin to Gothic transliteration subtable" u10333
Substitution2: "'sups' superscripts subtable" uni1D48
Substitution2: "'swsh' Swash in Latin lookup 14" uniF193
Substitution2: "'ss02' Style Set 2 in Latin lookup 10" uniA77A
Comment: "last+AD0A-54+AAoA-curve width: 148" 
Colour: ffffff
EndChar

StartChar: h
Encoding: 104 104 72
Width: 879
GlyphClass: 2
Flags: W
AnchorPoint: "above" 632 1545 basechar 0
LayerCount: 2
Back
SplineSet
111 153 m 2,18,-1
 354 1215 l 2,19,20
EndSplineSet
Fore
SplineSet
870 618 m 0,0,1
 870 436 870 436 763 204.5 c 128,-1,2
 656 -27 656 -27 496 -27 c 0,3,4
 448 -27 448 -27 414.5 2.5 c 128,-1,5
 381 32 381 32 381 61 c 0,6,7
 381 115 381 115 400 138.5 c 128,-1,8
 419 162 419 162 444 162 c 0,9,10
 507 162 507 162 518 110.5 c 128,-1,11
 529 59 529 59 562 59 c 128,-1,12
 595 59 595 59 633 129.5 c 128,-1,13
 671 200 671 200 702 331.5 c 128,-1,14
 733 463 733 463 733 569 c 0,15,16
 733 743 733 743 657 743 c 0,17,18
 540 743 540 743 344 461 c 0,19,20
 294 389 294 389 252 221 c 2,21,-1
 197 0 l 2,22,23
 190 -27 190 -27 135 -27 c 0,24,25
 76 -27 76 -27 76 -4 c 0,26,-1
 76 0 l 9,27,-1
 355 1201 l 2,28,29
 371 1270 371 1270 371 1304 c 0,30,31
 371 1377 371 1377 294 1377 c 0,32,33
 279 1377 279 1377 279 1403 c 128,-1,34
 279 1429 279 1429 294 1429 c 0,35,36
 370 1429 370 1429 445.5 1456.5 c 128,-1,37
 521 1484 521 1484 525 1484 c 0,38,39
 542 1484 542 1484 538 1466 c 2,40,-1
 326 545 l 1,41,-1
 336 535 l 1,42,43
 524 852 524 852 707 852 c 0,44,45
 870 852 870 852 870 618 c 0,0,1
EndSplineSet
Substitution2: "'ss19' Latin to Gothic transliteration subtable" u10337
Substitution2: "'sups' superscripts subtable" uni02B0
Comment: "last+AD0A-45+AAoA-left sidebearing+AD0A-76" 
Colour: ffffff
EndChar

StartChar: i
Encoding: 105 105 73
Width: 528
GlyphClass: 2
Flags: W
AnchorPoint: "above" 452 1305 basechar 0
LayerCount: 2
Fore
SplineSet
293 203 m 2,0,1
 282 164 282 164 282 142 c 0,2,3
 282 102 282 102 310.5 102 c 128,-1,4
 339 102 339 102 442 195 c 0,5,6
 451 203 451 203 469 186 c 0,7,8
 483 173 483 173 483 164 c 0,9,10
 483 161 483 161 481 158 c 0,11,12
 461 123 461 123 363.5 48 c 128,-1,13
 266 -27 266 -27 195 -27 c 0,14,15
 141 -27 141 -27 141 60 c 0,16,17
 141 98 141 98 152 137 c 2,18,-1
 289 625 l 2,19,20
 294 643 294 643 294 661 c 0,21,22
 294 711 294 711 269.5 711 c 128,-1,23
 245 711 245 711 152 623 c 0,24,25
 143 614 143 614 124 634 c 0,26,27
 111 648 111 648 111 657 c 0,28,29
 111 660 111 660 113 663 c 0,30,31
 150 722 150 722 238.5 787 c 128,-1,32
 327 852 327 852 385 852 c 0,33,34
 441 852 441 852 441 766 c 0,35,36
 441 729 441 729 430 690 c 2,37,-1
 293 203 l 2,0,1
540 1135 m 0,38,39
 540 1077 540 1077 506.5 1043.5 c 128,-1,40
 473 1010 473 1010 428 1010 c 0,41,42
 341 1010 341 1010 341 1100 c 0,43,44
 341 1152 341 1152 376 1188.5 c 128,-1,45
 411 1225 411 1225 455 1225 c 0,46,47
 540 1224 540 1224 540 1135 c 0,38,39
EndSplineSet
Substitution2: "'ss19' Latin to Gothic transliteration subtable" u10339
Substitution2: "'sups' superscripts subtable" uni2071
Substitution2: "Single Substitution untagged lookup-1" dotlessi
Comment: "last+AD0A-47+AAoA-left sidebearing+AD0A-141" 
Colour: ffffff
EndChar

StartChar: j
Encoding: 106 106 74
Width: 420
GlyphClass: 2
Flags: W
AnchorPoint: "above" 456 1305 basechar 0
LayerCount: 2
Fore
SplineSet
285 139 m 2,0,1
 259 27 259 27 207 -143.5 c 128,-1,2
 155 -314 155 -314 45.5 -433.5 c 128,-1,3
 -64 -553 -64 -553 -231 -553 c 0,4,5
 -263 -553 -263 -553 -284 -527.5 c 128,-1,6
 -305 -502 -305 -502 -305 -477 c 0,7,8
 -305 -448 -305 -448 -278.5 -433 c 128,-1,9
 -252 -418 -252 -418 -223 -418 c 0,10,11
 -192 -418 -192 -418 -164 -442.5 c 128,-1,12
 -136 -467 -136 -467 -113 -467 c 0,13,14
 -44 -467 -44 -467 5.5 -401 c 128,-1,15
 55 -335 55 -335 72 -260 c 2,16,-1
 274 623 l 2,17,18
 279 645 279 645 279 659 c 0,19,20
 279 702 279 702 247.5 702 c 128,-1,21
 216 702 216 702 143 610 c 0,22,23
 131 596 131 596 107 630 c 0,24,25
 102 637 102 637 103 643 c 0,26,27
 103 646 103 646 104 649 c 0,28,29
 256 852 256 852 358 852 c 0,30,31
 419 852 419 852 419 755 c 0,32,33
 419 725 419 725 412 694 c 2,34,-1
 285 139 l 2,0,1
540 1135 m 0,35,36
 540 1077 540 1077 506.5 1043.5 c 128,-1,37
 473 1010 473 1010 428 1010 c 0,38,39
 341 1010 341 1010 341 1100 c 0,40,41
 341 1152 341 1152 376 1188.5 c 128,-1,42
 411 1225 411 1225 455 1225 c 0,43,44
 540 1224 540 1224 540 1135 c 0,35,36
EndSplineSet
Substitution2: "'ss19' Latin to Gothic transliteration subtable" u1033E
Substitution2: "'sups' superscripts subtable" uni02B2
Substitution2: "Narrow j for Lithuanian-1" j.alt
Substitution2: "Single Substitution untagged lookup-1" uni0237
Comment: "last+AD0A-44" 
Colour: ffffff
EndChar

StartChar: q
Encoding: 113 113 81
Width: 952
GlyphClass: 2
Flags: W
AnchorPoint: "above" 688 900 basechar 0
LayerCount: 2
Back
SplineSet
711 -246 m 2,18,-1
 954 816 l 2,19,20
EndSplineSet
Fore
SplineSet
678 -387 m 2,0,1
 676 -396 676 -396 676 -406 c 0,2,3
 676 -454 676 -454 745 -454 c 0,4,5
 764 -454 764 -454 786 -451 c 0,6,7
 797 -449 797 -449 797 -468 c 0,8,9
 797 -510 797 -510 779 -510 c 0,10,11
 635 -510 635 -510 389 -559 c 1,12,13
 378 -559 378 -559 378 -543 c 0,14,15
 378 -502 378 -502 401 -500 c 0,16,17
 534 -490 534 -490 557 -391 c 2,18,-1
 733 383 l 1,19,-1
 723 381 l 1,20,21
 643 243 643 243 495 108 c 128,-1,22
 347 -27 347 -27 227 -27 c 0,23,24
 166 -27 166 -27 130 17 c 128,-1,25
 94 61 94 61 94 133 c 0,26,27
 94 358 94 358 277 605 c 128,-1,28
 460 852 460 852 707 852 c 0,29,30
 798 852 798 852 829 729 c 1,31,-1
 918 895 l 2,32,33
 922 903 922 903 937 903 c 0,34,35
 982 903 982 903 976 878 c 2,36,-1
 891 532 l 1,37,-1
 678 -387 l 2,0,1
756 643 m 0,38,39
 756 788 756 788 674 788 c 0,40,41
 536 788 536 788 389 542 c 128,-1,42
 242 296 242 296 242 141 c 0,43,44
 242 63 242 63 291 63 c 0,45,46
 337 63 337 63 454 158.5 c 128,-1,47
 571 254 571 254 655 375 c 0,48,49
 756 523 756 523 756 643 c 0,38,39
EndSplineSet
Substitution2: "'ss19' Latin to Gothic transliteration subtable" u10335
Substitution2: "'sups' superscripts subtable" q.superscript
Comment: "last+AD0A-49" 
Colour: ffffff
EndChar

StartChar: t
Encoding: 116 116 84
Width: 604
GlyphClass: 2
Flags: W
AnchorPoint: "above" 480 1305 basechar 0
LayerCount: 2
Back
SplineSet
276 225 m 2,0,1
 264 183 264 183 264 154 c 0,2,3
 264 102 264 102 299 102 c 0,4,5
 362 102 362 102 522 301 c 0,6,7
 524 304 524 304 528 304 c 0,8,9
 544 304 544 304 556 282 c 0,10,11
 562.902 269.341 562.902 269.341 557 260 c 0,12,13
 440.557 98.0378 440.557 98.0378 364.278 35.5189 c 128,-1,14
 288 -27 288 -27 208 -27 c 0,15,16
 167.75 -27 167.75 -27 144.875 3.75 c 128,-1,17
 122 34.5 122 34.5 122 76 c 0,18,19
 122 120.286 122 120.286 130 148 c 2,20,-1
 298 730 l 1,21,-1
 142 730 l 2,22,23
 130 730 130 730 130 749 c 0,24,25
 130 785 130 785 152 789 c 2,26,-1
 319 818 l 1,27,-1
 422 1021 l 2,28,29
 428 1033 428 1033 452 1033 c 0,30,31
 491 1033 491 1033 492 1014 c 0,32,33
 492 1011 492 1011 491 1008 c 2,34,-1
 442 808 l 1,35,-1
 666 808 l 2,36,37
 674 808 674 808 674 792 c 0,38,39
 674 763 674 763 658 739 c 0,40,41
 652 730 652 730 645 730 c 2,42,-1
 421 730 l 1,43,-1
 276 225 l 2,0,1
EndSplineSet
Fore
SplineSet
276 225 m 2,0,1
 264 183 264 183 264 154 c 0,2,3
 264 102 264 102 299 102 c 0,4,5
 362 102 362 102 522 301 c 0,6,7
 524 304 524 304 528 304 c 0,8,9
 544 304 544 304 556 282 c 0,10,11
 563 269 563 269 557 260 c 0,12,13
 441 98 441 98 364.5 35.5 c 128,-1,14
 288 -27 288 -27 208 -27 c 0,15,16
 168 -27 168 -27 145 3.5 c 128,-1,17
 122 34 122 34 122 76 c 0,18,19
 122 120 122 120 130 148 c 2,20,-1
 298 730 l 1,21,-1
 142 730 l 2,22,23
 130 730 130 730 130 749 c 0,24,25
 130 785 130 785 152 789 c 2,26,-1
 319 818 l 1,27,-1
 422 1021 l 2,28,29
 428 1033 428 1033 452 1033 c 0,30,31
 492 1033 492 1033 492 1014 c 0,32,33
 492 1012 492 1012 491 1008 c 2,34,-1
 442 808 l 1,35,-1
 666 808 l 2,36,37
 674 808 674 808 674 787.5 c 128,-1,38
 674 767 674 767 663 748.5 c 128,-1,39
 652 730 652 730 645 730 c 2,40,-1
 421 730 l 1,41,-1
 276 225 l 2,0,1
EndSplineSet
Substitution2: "'ss19' Latin to Gothic transliteration subtable" u10344
Substitution2: "'swsh' Swash in Latin lookup 14" uniF199
Substitution2: "'sups' superscripts subtable" uni1D57
Substitution2: "'ss02' Style Set 2 in Latin lookup 10" uniA787
Comment: "last+AD0A-41+AAoA-left sidebearing+AD0A-122" 
Colour: ffffff
EndChar

StartChar: v
Encoding: 118 118 86
Width: 823
GlyphClass: 2
Flags: W
AnchorPoint: "above" 562 900 basechar 0
LayerCount: 2
Back
SplineSet
831 705 m 0,0,1
 831 579.5 831 579.5 752.194 400.75 c 128,-1,2
 673.387 222 673.387 222 532.194 97.5 c 128,-1,3
 391 -27 391 -27 258 -27 c 0,4,5
 199.5 -27 199.5 -27 172.75 11.75 c 128,-1,6
 146 50.5 146 50.5 146 85.1515 c 128,-1,7
 146 119.803 146 119.803 152 141 c 2,8,-1
 289 625 l 2,9,10
 295 646.197 295 646.197 295 662 c 0,11,12
 295 711 295 711 263.5 711 c 128,-1,13
 232 711 232 711 156 625 c 0,14,15
 153 622.125 153 622.125 144 622.125 c 128,-1,16
 135 622.125 135 622.125 124 635.062 c 128,-1,17
 113 648 113 648 113 655.5 c 0,18,19
 113 659.55 113 659.55 115 662 c 0,20,21
 270.129 852 270.129 852 385 852 c 0,22,23
 440.01 852 440.01 852 440 768 c 0,24,25
 439.995 726.314 439.995 726.314 429.339 688.667 c 2,26,-1
 293 207 l 2,27,28
 283 171.671 283 171.671 283 147 c 0,29,30
 283 76 283 76 364.5 76 c 128,-1,31
 446 76 446 76 574 238.5 c 128,-1,32
 702 401 702 401 702 584 c 0,33,34
 702 703 702 703 666 778 c 1,35,36
 666 852 666 852 735 852 c 0,37,38
 785.401 852 785.401 852 808.201 803 c 128,-1,39
 831 754 831 754 831 705 c 0,0,1
111 -39 m 2,18,-1
 354 1023 l 2,19,20
EndSplineSet
Fore
SplineSet
831 705 m 0,0,1
 831 579 831 579 752 400.5 c 128,-1,2
 673 222 673 222 532 97.5 c 128,-1,3
 391 -27 391 -27 258 -27 c 0,4,5
 200 -27 200 -27 173 11.5 c 128,-1,6
 146 50 146 50 146 85 c 128,-1,7
 146 120 146 120 152 141 c 2,8,-1
 289 625 l 2,9,10
 295 646 295 646 295 662 c 0,11,12
 295 711 295 711 263 711 c 256,13,14
 232 711 232 711 156 625 c 0,15,16
 148 617 148 617 128 635 c 0,17,18
 113 649 113 649 113 657 c 0,19,20
 113 660 113 660 115 662 c 0,21,22
 270 852 270 852 385 852 c 0,23,24
 413 852 413 852 426.5 830 c 128,-1,25
 440 808 440 808 440 768 c 0,26,27
 440 726 440 726 429 689 c 2,28,-1
 293 207 l 2,29,30
 283 172 283 172 283 147 c 0,31,32
 282 76 282 76 364 76 c 256,33,34
 446 76 446 76 574 238.5 c 128,-1,35
 702 401 702 401 702 584 c 0,36,37
 702 703 702 703 666 778 c 1,38,39
 666 852 666 852 735 852 c 0,40,41
 785 852 785 852 808 803 c 128,-1,42
 831 754 831 754 831 705 c 0,0,1
EndSplineSet
Substitution2: "'sups' superscripts subtable" uni1D5B
Comment: "last+AD0A-42" 
Colour: ffffff
EndChar

StartChar: w
Encoding: 119 119 87
Width: 1239
GlyphClass: 2
Flags: W
AnchorPoint: "below" 484 -75 basechar 0
AnchorPoint: "above" 832 900 basechar 0
LayerCount: 2
Back
SplineSet
99 -93 m 2,18,-1
 342 969 l 2,19,20
639 -93 m 2,18,-1
 882 969 l 2,19,20
EndSplineSet
Fore
SplineSet
1247 705 m 0,0,1
 1247 588 1247 588 1168.5 404.5 c 128,-1,2
 1090 221 1090 221 948 97 c 128,-1,3
 806 -27 806 -27 674 -27 c 0,4,5
 562 -27 562 -27 562 97 c 0,6,7
 562 107 562 107 564 125 c 1,8,9
 400 -27 400 -27 258 -27 c 0,10,11
 201 -27 201 -27 173.5 11 c 128,-1,12
 146 49 146 49 146 90 c 256,13,14
 146 120 146 120 152 141 c 2,15,-1
 289 625 l 2,16,17
 295 646 295 646 295 662 c 0,18,19
 295 711 295 711 264.5 711 c 128,-1,20
 234 711 234 711 156 625 c 0,21,22
 153 622 153 622 146.5 622 c 128,-1,23
 140 622 140 622 126.5 636 c 128,-1,24
 113 650 113 650 113 656 c 256,25,26
 113 660 113 660 115 662 c 0,27,28
 269 852 269 852 385 852 c 0,29,30
 440 852 440 852 440 768 c 0,31,32
 440 723 440 723 412 625 c 2,33,-1
 293 207 l 2,34,35
 283 172 283 172 283 147 c 0,36,37
 282 76 282 76 364 76 c 256,38,39
 412 76 412 76 466 122 c 128,-1,40
 520 168 520 168 562 222.5 c 128,-1,41
 604 277 604 277 630 369 c 2,42,-1
 756 817 l 2,43,44
 766 852 766 852 822 852 c 128,-1,45
 878 852 878 852 878 826 c 0,46,47
 878 821 878 821 877 817 c 2,48,-1
 709 207 l 2,49,50
 699 171 699 171 699 147 c 0,51,52
 699 76 699 76 780.5 76 c 128,-1,53
 862 76 862 76 990 238.5 c 128,-1,54
 1118 401 1118 401 1118 584 c 0,55,56
 1118 703 1118 703 1081 778 c 1,57,58
 1081 852 1081 852 1151 852 c 0,59,60
 1198 852 1198 852 1222.5 807 c 128,-1,61
 1247 762 1247 762 1247 705 c 0,0,1
EndSplineSet
Substitution2: "'ss19' Latin to Gothic transliteration subtable" u10345
Substitution2: "'sups' superscripts subtable" uni02B7
Substitution2: "'ss02' Style Set 2 in Latin lookup 10" uni01BF
Comment: "last+AD0A-61" 
Colour: ffffff
EndChar

StartChar: asciitilde
Encoding: 126 126 94
Width: 676
GlyphClass: 2
Flags: W
LayerCount: 2
Fore
SplineSet
653 513 m 0,0,1
 653 470 653 470 569.5 410 c 128,-1,2
 486 350 486 350 441 350 c 128,-1,3
 396 350 396 350 308 383.5 c 128,-1,4
 220 417 220 417 165.5 417 c 128,-1,5
 111 417 111 417 49 352 c 0,6,7
 46 349 46 349 42 349 c 0,8,9
 38 349 38 349 30.5 354 c 128,-1,10
 23 359 23 359 23 365 c 128,-1,11
 23 371 23 371 24 372 c 0,12,13
 124 523 124 523 202 523 c 128,-1,14
 280 523 280 523 367.5 491 c 128,-1,15
 455 459 455 459 503.5 459 c 128,-1,16
 552 459 552 459 624 531 c 0,17,18
 626 533 626 533 629 533 c 0,19,20
 653 533 653 533 653 513 c 0,0,1
EndSplineSet
Comment: "last+AD0A-20" 
Colour: ffffff
EndChar

StartChar: sterling
Encoding: 163 163 98
Width: 1081
GlyphClass: 2
Flags: W
LayerCount: 2
Fore
SplineSet
1103 1154 m 0,0,1
 1103 1120 1103 1120 1089.5 1091.5 c 128,-1,2
 1076 1063 1076 1063 1037 1063 c 0,3,4
 964 1063 964 1063 962 1145 c 0,5,6
 960 1255 960 1255 849 1255 c 0,7,8
 793 1255 793 1255 732 1195.5 c 128,-1,9
 671 1136 671 1136 623 649 c 1,10,-1
 915 649 l 2,11,12
 926 649 926 649 926 632 c 128,-1,13
 926 615 926 615 919 599.5 c 128,-1,14
 912 584 912 584 903 584 c 2,15,-1
 612 584 l 1,16,17
 559 280 559 280 336 162 c 1,18,-1
 336 158 l 1,19,20
 426 158 426 158 562.5 96.5 c 0,21,22
 698 35 698 35 764 35 c 0,23,24
 814 35 814 35 833 58.5 c 128,-1,25
 852 82 852 82 852 176 c 0,26,27
 852 250 852 250 899 250 c 0,28,29
 934 250 934 250 954.5 222 c 128,-1,30
 975 194 975 194 975 158 c 0,31,32
 975 60 975 60 868.5 3.5 c 128,-1,33
 762 -53 762 -53 662 -53 c 256,34,35
 546 -53 546 -53 435 4 c 128,-1,36
 324 61 324 61 235 96 c 1,37,38
 194 90 194 90 164 30.5 c 128,-1,39
 134 -29 134 -29 63 -29 c 256,40,41
 -8 -29 -8 -29 -8 20 c 0,42,43
 -8 74 -8 74 66.5 112 c 128,-1,44
 141 150 141 150 227 163 c 128,-1,45
 313 176 313 176 372 280 c 128,-1,46
 431 384 431 384 448 584 c 1,47,-1
 217 584 l 2,48,49
 209 584 209 584 209 602.5 c 128,-1,50
 209 621 209 621 215 635 c 128,-1,51
 221 649 221 649 235 649 c 2,52,-1
 457 649 l 1,53,54
 476 829 476 829 518 976.5 c 128,-1,55
 560 1124 560 1124 670 1223.5 c 128,-1,56
 780 1323 780 1323 907 1323 c 0,57,58
 1005 1323 1005 1323 1054 1275.5 c 128,-1,59
 1103 1228 1103 1228 1103 1154 c 0,0,1
EndSplineSet
Comment: "last+AD0A-58" 
Colour: ffffff
EndChar

StartChar: currency
Encoding: 164 164 99
Width: 1024
GlyphClass: 2
Flags: W
LayerCount: 2
Fore
SplineSet
946 668 m 256,0,1
 946 521 946 521 858 406 c 1,2,-1
 936 327 l 2,3,4
 938 325 938 325 938 322 c 0,5,6
 938 309 938 309 906 274.5 c 128,-1,7
 874 240 874 240 859 240 c 0,8,9
 855 240 855 240 852 243 c 2,10,-1
 774 322 l 1,11,12
 659 234 659 234 514 234 c 128,-1,13
 369 234 369 234 251 323 c 1,14,-1
 172 243 l 2,15,16
 169 240 169 240 165 240 c 0,17,18
 151 240 151 240 118.5 273.5 c 128,-1,19
 86 307 86 307 86 321 c 0,20,21
 86 325 86 325 88 327 c 2,22,-1
 167 407 l 1,23,24
 80 522 80 522 80 667 c 128,-1,25
 80 812 80 812 167 928 c 1,26,-1
 88 1008 l 2,27,28
 86 1010 86 1010 86 1013 c 0,29,30
 86 1026 86 1026 119 1060 c 128,-1,31
 152 1094 152 1094 166 1094 c 0,32,33
 170 1094 170 1094 172 1092 c 2,34,-1
 251 1013 l 1,35,36
 366 1101 366 1101 512.5 1101 c 128,-1,37
 659 1101 659 1101 774 1013 c 1,38,-1
 852 1092 l 2,39,40
 855 1095 855 1095 859 1095 c 0,41,42
 874 1095 874 1095 906 1061.5 c 128,-1,43
 938 1028 938 1028 938 1014 c 0,44,45
 938 1010 938 1010 936 1008 c 2,46,-1
 858 930 l 1,47,48
 946 815 946 815 946 668 c 256,0,1
860 668 m 256,49,50
 860 812 860 812 759 913 c 128,-1,51
 658 1014 658 1014 513.5 1014 c 128,-1,52
 369 1014 369 1014 268 913 c 128,-1,53
 167 812 167 812 167 668.5 c 128,-1,54
 167 525 167 525 269 423 c 128,-1,55
 371 321 371 321 514 321 c 128,-1,56
 657 321 657 321 758.5 422.5 c 128,-1,57
 860 524 860 524 860 668 c 256,49,50
EndSplineSet
Comment: "last+AD0A-55" 
Colour: ffffff
EndChar

StartChar: brokenbar
Encoding: 166 166 101
Width: 555
GlyphClass: 2
Flags: W
LayerCount: 2
Fore
SplineSet
432 1399 m 1,0,-1
 432 817 l 1,1,-1
 312 817 l 1,2,-1
 312 1399 l 1,3,-1
 432 1399 l 1,0,-1
432 590 m 1,4,-1
 432 -33 l 1,5,-1
 312 -33 l 1,6,-1
 312 590 l 1,7,-1
 432 590 l 1,4,-1
EndSplineSet
Comment: "last+AD0A-7" 
Colour: ffffff
EndChar

StartChar: dieresis
Encoding: 168 168 103
Width: 909
GlyphClass: 2
Flags: W
LayerCount: 2
Fore
SplineSet
601 1135 m 0,0,1
 601 1077 601 1077 567.5 1043.5 c 128,-1,2
 534 1010 534 1010 489 1010 c 0,3,4
 402 1010 402 1010 402 1100 c 0,5,6
 402 1152 402 1152 437 1188.5 c 128,-1,7
 472 1225 472 1225 516 1225 c 0,8,9
 601 1224 601 1224 601 1135 c 0,0,1
958 1135 m 0,10,11
 958 1077 958 1077 924.5 1043.5 c 128,-1,12
 891 1010 891 1010 846 1010 c 0,13,14
 759 1010 759 1010 759 1100 c 0,15,16
 759 1152 759 1152 794 1188.5 c 128,-1,17
 829 1225 829 1225 873 1225 c 0,18,19
 958 1224 958 1224 958 1135 c 0,10,11
EndSplineSet
Comment: "last+AD0A-19" 
Colour: ffffff
EndChar

StartChar: copyright
Encoding: 169 169 104
Width: 1565
GlyphClass: 2
Flags: W
LayerCount: 2
Fore
SplineSet
1516 748 m 128,-1,1
 1516 449 1516 449 1305 238 c 128,-1,2
 1094 27 1094 27 795 27 c 128,-1,3
 496 27 496 27 285 238 c 128,-1,4
 74 449 74 449 74 748 c 128,-1,5
 74 1047 74 1047 285 1257.5 c 128,-1,6
 496 1468 496 1468 795 1468 c 128,-1,7
 1094 1468 1094 1468 1305 1257.5 c 128,-1,0
 1516 1047 1516 1047 1516 748 c 128,-1,1
1255.5 286.5 m 128,-1,9
 1445 476 1445 476 1445 746.5 c 128,-1,10
 1445 1017 1445 1017 1254.5 1207.5 c 128,-1,11
 1064 1398 1064 1398 795.5 1398 c 128,-1,12
 527 1398 527 1398 335.5 1206.5 c 128,-1,13
 144 1015 144 1015 144 747 c 128,-1,14
 144 479 144 479 335 288 c 128,-1,15
 526 97 526 97 796 97 c 128,-1,8
 1066 97 1066 97 1255.5 286.5 c 128,-1,9
1042 560 m 0,16,17
 1043 566 1043 566 1059.5 566 c 128,-1,18
 1076 566 1076 566 1078 554 c 1,19,20
 1070 472 1070 472 1030 410 c 1,21,22
 1002 404 1002 404 989 400 c 0,23,24
 911 376 911 376 793 376 c 0,25,26
 638 376 638 376 534 481 c 128,-1,27
 430 586 430 586 430 737 c 0,28,29
 430 910 430 910 538 1021.5 c 128,-1,30
 646 1133 646 1133 805 1133 c 0,31,32
 880 1133 880 1133 955 1117.5 c 128,-1,33
 1030 1102 1030 1102 1041 1102 c 1,34,35
 1057 1067 1057 1067 1057 936 c 0,36,37
 1057 928 1057 928 1039 927.5 c 128,-1,38
 1021 927 1021 927 1020 934 c 0,39,40
 1003 1095 1003 1095 802 1095 c 0,41,42
 687 1095 687 1095 610.5 992.5 c 128,-1,43
 534 890 534 890 534 769 c 0,44,45
 536 593 536 593 621.5 504.5 c 128,-1,46
 707 416 707 416 800 416 c 0,47,48
 996 416 996 416 1042 560 c 0,16,17
EndSplineSet
Comment: "last+AD0A-48" 
Colour: ffffff
EndChar

StartChar: guillemotleft
Encoding: 171 171 106
Width: 887
GlyphClass: 2
Flags: W
LayerCount: 2
Fore
SplineSet
372 94 m 2,0,1
 376 84 376 84 360.5 70.5 c 128,-1,2
 345 57 345 57 336.5 57 c 128,-1,3
 328 57 328 57 325 60 c 2,4,-1
 109 372 l 2,5,6
 96 391 96 391 96 417.5 c 128,-1,7
 96 444 96 444 138 478 c 2,8,-1
 521 790 l 2,9,10
 525 794 525 794 530 793 c 0,11,12
 553 793 553 793 553 769 c 0,13,14
 553 763 553 763 549 760 c 2,15,-1
 273 466 l 2,16,17
 248 440 248 440 248 414.5 c 128,-1,18
 248 389 248 389 255 373 c 2,19,-1
 372 94 l 2,0,1
723 94 m 2,20,21
 727 84 727 84 712 70.5 c 128,-1,22
 697 57 697 57 688 57 c 128,-1,23
 679 57 679 57 676 60 c 2,24,-1
 460 372 l 2,25,26
 447 391 447 391 447 417.5 c 128,-1,27
 447 444 447 444 489 478 c 2,28,-1
 872 790 l 2,29,30
 876 794 876 794 881 793 c 0,31,32
 904 793 904 793 904 769 c 0,33,34
 904 763 904 763 901 760 c 2,35,-1
 624 466 l 2,36,37
 599 440 599 440 599 414.5 c 128,-1,38
 599 389 599 389 606 373 c 2,39,-1
 723 94 l 2,20,21
EndSplineSet
Comment: "last+AD0A-39" 
Colour: ffffff
EndChar

StartChar: uni00AD
Encoding: 173 173 108
Width: 827
GlyphClass: 2
Flags: W
LayerCount: 2
Fore
SplineSet
778 602 m 2,0,1
 784 602 784 602 784 583.5 c 128,-1,2
 784 565 784 565 769.5 526 c 128,-1,3
 755 487 755 487 743 487 c 2,4,-1
 172 487 l 2,5,6
 166 487 166 487 166 506 c 128,-1,7
 166 525 166 525 180 563.5 c 128,-1,8
 194 602 194 602 205 602 c 2,9,-1
 778 602 l 2,0,1
EndSplineSet
Comment: "last+AD0A-9" 
Colour: ffffff
EndChar

StartChar: degree
Encoding: 176 176 111
Width: 629
GlyphClass: 2
Flags: W
LayerCount: 2
Fore
SplineSet
489 1311 m 128,-1,1
 604 1311 604 1311 684 1237.5 c 128,-1,2
 764 1164 764 1164 764 1045 c 128,-1,3
 764 926 764 926 685.5 854 c 128,-1,4
 607 782 607 782 489.5 782 c 128,-1,5
 372 782 372 782 293.5 854 c 128,-1,6
 215 926 215 926 215 1045 c 128,-1,7
 215 1164 215 1164 294.5 1237.5 c 128,-1,0
 374 1311 374 1311 489 1311 c 128,-1,1
649 1047 m 128,-1,9
 649 1134 649 1134 603 1186.5 c 128,-1,10
 557 1239 557 1239 488.5 1239 c 128,-1,11
 420 1239 420 1239 375 1186.5 c 128,-1,12
 330 1134 330 1134 330 1047 c 128,-1,13
 330 960 330 960 375 907 c 128,-1,14
 420 854 420 854 489 854 c 128,-1,15
 558 854 558 854 603.5 907 c 128,-1,8
 649 960 649 960 649 1047 c 128,-1,9
EndSplineSet
Comment: "last+AD0A-15" 
Colour: ffffff
EndChar

StartChar: plusminus
Encoding: 177 177 112
Width: 1024
GlyphClass: 2
Flags: W
LayerCount: 2
Fore
SplineSet
907 596 m 1,0,-1
 573 596 l 1,1,-1
 573 225 l 1,2,-1
 453 225 l 1,3,-1
 453 596 l 1,4,-1
 119 596 l 1,5,-1
 119 696 l 1,6,-1
 453 696 l 1,7,-1
 453 1032 l 1,8,-1
 573 1032 l 1,9,-1
 573 696 l 1,10,-1
 907 696 l 1,11,-1
 907 596 l 1,0,-1
907 2 m 1,12,-1
 119 2 l 1,13,-1
 119 102 l 1,14,-1
 907 102 l 1,15,-1
 907 2 l 1,12,-1
EndSplineSet
Comment: "last+AD0A-15" 
Colour: ffffff
EndChar

StartChar: uni00B2
Encoding: 178 178 113
Width: 621
GlyphClass: 2
Flags: W
LayerCount: 2
Fore
SplineSet
261.5 659 m 0,0,1
 246.5 646 246.5 646 246.5 638 c 128,-1,2
 246.5 630 246.5 630 264.5 630 c 2,3,-1
 460.5 630 l 2,4,5
 565.5 630 565.5 630 616.5 668 c 0,6,7
 639.5 684 639.5 684 659.5 712 c 0,8,9
 662.5 717 662.5 717 678.5 716.5 c 128,-1,10
 694.5 716 694.5 716 694.5 704 c 0,11,12
 694.5 702 694.5 702 693.5 701 c 2,13,-1
 589.5 556 l 2,14,15
 573.5 534 573.5 534 549.5 535 c 9,16,17
 468.5 540 468.5 540 328 540 c 128,-1,18
 187.5 540 187.5 540 101.5 535 c 17,19,20
 79.5 535 79.5 535 79.5 555 c 0,21,22
 79.5 566 79.5 566 88.5 572 c 0,23,24
 275.5 726 275.5 726 403.5 852 c 128,-1,25
 531.5 978 531.5 978 597.5 1071 c 128,-1,26
 663.5 1164 663.5 1164 663.5 1232 c 256,27,28
 663.5 1286 663.5 1286 633 1311 c 128,-1,29
 602.5 1336 602.5 1336 557.5 1336 c 0,30,31
 461.5 1336 461.5 1336 362.5 1216 c 0,32,33
 359.5 1213 359.5 1213 350.5 1213 c 128,-1,34
 341.5 1213 341.5 1213 335 1220.5 c 128,-1,35
 328.5 1228 328.5 1228 328.5 1231 c 128,-1,36
 328.5 1234 328.5 1234 330.5 1236 c 0,37,38
 389.5 1313 389.5 1313 470.5 1366.5 c 128,-1,39
 551.5 1420 551.5 1420 637.5 1420 c 256,40,41
 708.5 1420 708.5 1420 749 1377 c 128,-1,42
 789.5 1334 789.5 1334 789.5 1267 c 0,43,44
 789.5 1173 789.5 1173 711 1072 c 128,-1,45
 632.5 971 632.5 971 261.5 659 c 0,0,1
EndSplineSet
Comment: "last+AD0A-45" 
Colour: ffffff
EndChar

StartChar: uni00B3
Encoding: 179 179 114
Width: 621
GlyphClass: 2
Flags: W
LayerCount: 2
Fore
SplineSet
699.5 886 m 0,0,1
 699.5 746 699.5 746 579 635.5 c 128,-1,2
 458.5 525 458.5 525 308.5 525 c 128,-1,3
 158.5 525 158.5 525 158.5 607 c 0,4,5
 158.5 638 158.5 638 183.5 655.5 c 128,-1,6
 208.5 673 208.5 673 229.5 673 c 256,7,8
 265.18 673 265.18 673 281.5 624 c 128,-1,9
 297.82 575 297.82 575 306 575 c 0,10,11
 448.5 575 448.5 575 515 671.5 c 128,-1,12
 581.5 768 581.5 768 581.5 859 c 0,13,14
 581.5 996 581.5 996 439.5 995 c 0,15,16
 400.5 995 400.5 995 362.5 985 c 0,17,18
 357.5 983.685 357.5 983.685 357.5 1000 c 0,19,20
 357.5 1015 357.5 1015 364.5 1026.5 c 128,-1,21
 371.5 1038 371.5 1038 376.5 1038 c 0,22,23
 484.5 1038 484.5 1038 571.5 1098 c 128,-1,24
 658.5 1158 658.5 1158 658.5 1256 c 0,25,26
 658.5 1303 658.5 1303 631.5 1326.5 c 128,-1,27
 604.5 1350 604.5 1350 564.5 1350 c 0,28,29
 494.5 1350 494.5 1350 403.5 1259 c 0,30,31
 401.5 1257 401.5 1257 394 1257 c 128,-1,32
 386.5 1257 386.5 1257 380.5 1267 c 128,-1,33
 374.5 1277 374.5 1277 374.5 1280 c 128,-1,34
 374.5 1283 374.5 1283 376.5 1286 c 0,35,36
 501.5 1419 501.5 1419 627.5 1420 c 0,37,38
 691.5 1420 691.5 1420 728 1382.5 c 128,-1,39
 764.5 1345 764.5 1345 764.5 1288 c 0,40,41
 764.5 1143.5 764.5 1143.5 589.5 1056 c 0,42,43
 563.5 1043 563.5 1043 563.5 1038.5 c 128,-1,44
 563.5 1034 563.5 1034 579.5 1030 c 0,45,46
 699.5 1003 699.5 1003 699.5 886 c 0,0,1
EndSplineSet
Comment: "last+AD0A-45" 
Colour: ffffff
EndChar

StartChar: periodcentered
Encoding: 183 183 118
Width: 520
GlyphClass: 2
Flags: W
LayerCount: 2
Fore
SplineSet
438 515 m 128,-1,1
 438 463 438 463 403 431 c 128,-1,2
 368 399 368 399 320 399 c 128,-1,3
 272 399 272 399 233.5 431 c 128,-1,4
 195 463 195 463 195 515.5 c 128,-1,5
 195 568 195 568 228.5 602.5 c 128,-1,6
 262 637 262 637 317 637 c 128,-1,7
 372 637 372 637 405 602 c 128,-1,0
 438 567 438 567 438 515 c 128,-1,1
EndSplineSet
Comment: "last+AD0A-8" 
Colour: ffffff
EndChar

StartChar: guillemotright
Encoding: 187 187 122
Width: 803
GlyphClass: 2
Flags: W
LayerCount: 2
Fore
SplineSet
565 756 m 2,0,1
 561 766 561 766 576 779.5 c 128,-1,2
 591 793 591 793 600 793 c 128,-1,3
 609 793 609 793 612 790 c 2,4,-1
 828 478 l 2,5,6
 841 459 841 459 841 432.5 c 128,-1,7
 841 406 841 406 799 372 c 2,8,-1
 416 60 l 2,9,10
 412 56 412 56 406 57 c 0,11,12
 383 57 383 57 384 81 c 0,13,14
 384 87 384 87 387 90 c 2,15,-1
 664 384 l 2,16,17
 689 410 689 410 689 435.5 c 128,-1,18
 689 461 689 461 682 477 c 2,19,-1
 565 756 l 2,0,1
214 756 m 2,20,21
 210 766 210 766 225 779.5 c 128,-1,22
 240 793 240 793 249 793 c 128,-1,23
 258 793 258 793 260 790 c 2,24,-1
 476 478 l 2,25,26
 489 459 489 459 489.5 432.5 c 128,-1,27
 490 406 490 406 448 372 c 2,28,-1
 65 60 l 2,29,30
 61 56 61 56 55 57 c 0,31,32
 32 57 32 57 32 81 c 0,33,34
 32 87 32 87 36 90 c 2,35,-1
 313 384 l 2,36,37
 338 410 338 410 338 435.5 c 128,-1,38
 338 461 338 461 331 477 c 2,39,-1
 214 756 l 2,20,21
EndSplineSet
Comment: "last+AD0A-39" 
Colour: ffffff
EndChar

StartChar: Aring
Encoding: 197 197 132
Width: 1108
GlyphClass: 2
Flags: W
LayerCount: 2
Fore
SplineSet
909 186 m 2,0,1
 908 179 908 179 908 165 c 0,2,3
 908 69 908 69 1052 69 c 0,4,5
 1060 69 1060 69 1060 48 c 128,-1,6
 1060 27 1060 27 1051 10 c 128,-1,7
 1042 -7 1042 -7 1032 -7 c 1,8,9
 944 0 944 0 819 0 c 128,-1,10
 694 0 694 0 607 -7 c 1,11,12
 600 -7 600 -7 600 13.5 c 128,-1,13
 600 34 600 34 611 51.5 c 128,-1,14
 622 69 622 69 629 69 c 0,15,16
 705 69 705 69 735.5 97.5 c 128,-1,17
 766 126 766 126 773 186 c 10,18,-1
 810 496 l 2,19,20
 814 531 814 531 782 531 c 2,21,-1
 472 531 l 2,22,23
 441 531 441 531 424 506 c 2,24,-1
 214 182 l 2,25,26
 191 147 191 147 191 124 c 0,27,28
 191 69 191 69 323 69 c 0,29,30
 330 69 330 69 330 48 c 128,-1,31
 330 27 330 27 319 10 c 128,-1,32
 308 -7 308 -7 302 -7 c 1,33,34
 216 0 216 0 89 0 c 128,-1,35
 -38 0 -38 0 -124 -7 c 1,36,37
 -132 -7 -132 -7 -132 13 c 128,-1,38
 -132 33 -132 33 -121 51 c 128,-1,39
 -110 69 -110 69 -104 69 c 0,40,41
 -28 69 -28 69 22 91 c 128,-1,42
 72 113 72 113 132 201 c 2,43,-1
 914 1359 l 1,44,45
 828 1412 828 1412 828 1512 c 0,46,47
 828 1583 828 1583 883 1637.5 c 128,-1,48
 938 1692 938 1692 1024 1692 c 256,49,50
 1108 1692 1108 1692 1159 1637.5 c 0,51,52
 1210 1584 1210 1584 1210 1500 c 256,53,54
 1210 1440 1210 1440 1162.5 1390.5 c 128,-1,55
 1115 1341 1115 1341 1050 1332 c 1,56,57
 1035 1243 1035 1243 1026 1179 c 2,58,-1
 909 186 l 2,0,1
1120 1512 m 128,-1,60
 1120 1560 1120 1560 1093 1595 c 128,-1,61
 1066 1630 1066 1630 1019 1630 c 256,62,63
 972 1630 972 1630 945 1594.5 c 128,-1,64
 918 1559 918 1559 918 1512 c 0,65,66
 918 1458 918 1458 948.5 1425.5 c 128,-1,67
 979 1393 979 1393 1019 1393 c 0,68,69
 1069 1393 1069 1393 1094.5 1428.5 c 128,-1,59
 1120 1464 1120 1464 1120 1512 c 128,-1,60
824 629 m 2,70,-1
 886 1159 l 1,71,72
 886 1168 886 1168 874 1168 c 128,-1,73
 862 1168 862 1168 856 1159 c 2,74,-1
 503 629 l 2,75,76
 484 600 484 600 514 600 c 2,77,-1
 789 600 l 2,78,79
 820 600 820 600 824 629 c 2,70,-1
EndSplineSet
LCarets2: 1 0 
Comment: "last+AD0A-79" 
Colour: ffffff
EndChar

StartChar: AE
Encoding: 198 198 133
Width: 1780
GlyphClass: 2
Flags: W
AnchorPoint: "above" 1456 1415 basechar 0
LayerCount: 2
Fore
SplineSet
1608 19 m 2,0,1
 1600 -7 1600 -7 1580 -7 c 2,2,-1
 1505 -7 l 1,3,4
 1098 0 1098 0 828 0 c 0,5,6
 678 0 678 0 563 -7 c 1,7,8
 556 -7 556 -7 556 14.5 c 128,-1,9
 556 36 556 36 566.5 52.5 c 128,-1,10
 577 69 577 69 583 69 c 0,11,12
 679 69 679 69 722 89 c 128,-1,13
 765 109 765 109 785 177 c 10,14,-1
 898 570 l 2,15,16
 903 586 903 586 903 595 c 0,17,18
 903 607 903 607 880 607 c 2,19,-1
 552 607 l 2,20,21
 527 607 527 607 514 590 c 2,22,-1
 182 168 l 2,23,24
 151 129 151 129 151 103.5 c 128,-1,25
 151 78 151 78 184 73.5 c 128,-1,26
 217 69 217 69 290 69 c 0,27,28
 298 69 298 69 298 48 c 128,-1,29
 298 27 298 27 287 10 c 128,-1,30
 276 -7 276 -7 270 -7 c 1,31,32
 183 0 183 0 63 0 c 128,-1,33
 -57 0 -57 0 -151 -7 c 1,34,35
 -159 -7 -159 -7 -159 13.5 c 128,-1,36
 -159 34 -159 34 -148 51.5 c 128,-1,37
 -137 69 -137 69 -130 69 c 0,38,39
 -47 69 -47 69 -7.5 94 c 128,-1,40
 32 119 32 119 97 195 c 2,41,-1
 949 1196 l 2,42,43
 982 1235 982 1235 982 1254 c 0,44,45
 982 1282 982 1282 908 1282 c 0,46,47
 898 1282 898 1282 898 1303 c 128,-1,48
 898 1324 898 1324 909.5 1341 c 128,-1,49
 921 1358 921 1358 928 1358 c 1,50,51
 1083 1354 1083 1354 1192 1354 c 0,52,53
 1464 1354 1464 1354 1841 1358 c 17,54,55
 1903 1358 1903 1358 1903 1338 c 0,56,57
 1903 1332 1903 1332 1901 1325 c 2,58,-1
 1808 1006 l 2,59,60
 1804 992 1804 992 1763 992 c 128,-1,61
 1722 992 1722 992 1726 1006 c 0,62,63
 1744 1078 1744 1078 1744 1117 c 0,64,65
 1744 1279 1744 1279 1545 1283 c 2,66,-1
 1268 1289 l 2,67,68
 1247 1289 1247 1289 1241 1267 c 2,69,-1
 1081 708 l 2,70,71
 1078 697 1078 697 1078 690 c 0,72,73
 1078 676 1078 676 1099 676 c 2,74,-1
 1320 676 l 2,75,76
 1384 676 1384 676 1406 690 c 128,-1,77
 1428 704 1428 704 1444 764 c 2,78,-1
 1471 864 l 2,79,80
 1475 879 1475 879 1511 879 c 128,-1,81
 1547 879 1547 879 1544 864 c 1,82,83
 1459 617 1459 617 1421 436 c 1,84,85
 1418 421 1418 421 1384 421 c 128,-1,86
 1350 421 1350 421 1353 433 c 2,87,-1
 1379 527 l 2,88,89
 1390 567 1390 567 1390 575 c 0,90,91
 1390 607 1390 607 1299 607 c 2,92,-1
 1079 607 l 2,93,94
 1052 607 1052 607 1045 583 c 2,95,-1
 964 300 l 2,96,97
 937 206 937 206 937 161 c 0,98,99
 937 62 937 62 1050 62 c 2,100,-1
 1062 62 l 2,101,-1
 1291 69 l 2,102,103
 1542 77 1542 77 1620 344 c 0,104,105
 1625 358 1625 358 1665.5 357.5 c 128,-1,106
 1706 357 1706 357 1702 344 c 2,107,-1
 1608 19 l 2,0,1
936 700 m 2,108,-1
 1077 1196 l 2,109,110
 1080 1205 1080 1205 1080 1216.5 c 128,-1,111
 1080 1228 1080 1228 1067 1228 c 128,-1,112
 1054 1228 1054 1228 1033 1203 c 2,113,-1
 609 698 l 2,114,115
 602 690 602 690 602.5 682.5 c 128,-1,116
 603 675 603 675 617 676 c 2,117,-1
 904 676 l 2,118,119
 930 676 930 676 936 700 c 2,108,-1
EndSplineSet
Substitution2: "'swsh' Swash in Latin lookup 14" AE.swash
Comment: "last+AD0A-119" 
Colour: ffffff
EndChar

StartChar: Eth
Encoding: 208 208 143
Width: 1514
GlyphClass: 2
Flags: W
AnchorPoint: "above" 1030 1415 basechar 0
LayerCount: 2
Fore
SplineSet
1566 904 m 0,0,1
 1566 577 1566 577 1299.5 285 c 128,-1,2
 1033 -7 1033 -7 672 -7 c 0,3,4
 587 -7 587 -7 476.5 -3.5 c 128,-1,5
 366 0 366 0 259.5 0 c 128,-1,6
 153 0 153 0 29 -7 c 17,7,8
 21 -7 21 -7 21 13 c 128,-1,9
 21 33 21 33 32 51 c 128,-1,10
 43 69 43 69 49 69 c 0,11,12
 143 69 143 69 193 91 c 128,-1,13
 243 113 243 113 264 186 c 10,14,-1
 386 609 l 2,15,16
 393 634 393 634 368 634 c 2,17,-1
 173 634 l 2,18,19
 159 634 159 634 159 661 c 128,-1,20
 159 688 159 688 173 699 c 128,-1,21
 187 710 187 710 195 710 c 2,22,-1
 390 710 l 2,23,24
 413 710 413 710 421 733 c 2,25,-1
 547 1172 l 2,26,27
 552 1195 552 1195 552 1209 c 0,28,29
 552 1282 552 1282 390 1282 c 0,30,31
 382 1282 382 1282 382 1303 c 128,-1,32
 382 1324 382 1324 393 1341 c 128,-1,33
 404 1358 404 1358 410 1358 c 1,34,35
 543 1354 543 1354 635 1354 c 128,-1,36
 727 1354 727 1354 823 1356 c 128,-1,37
 919 1358 919 1358 1017 1358 c 0,38,39
 1264 1358 1264 1358 1415 1239 c 128,-1,40
 1566 1120 1566 1120 1566 904 c 0,0,1
1404 880 m 0,41,42
 1404 1067 1404 1067 1278 1182 c 128,-1,43
 1152 1297 1152 1297 915 1297 c 0,44,45
 794 1297 794 1297 753.5 1273 c 128,-1,46
 713 1249 713 1249 693 1181 c 10,47,-1
 563 733 l 2,48,49
 556 710 556 710 583 710 c 2,50,-1
 813 710 l 2,51,52
 831 710 831 710 831 685 c 128,-1,53
 831 660 831 660 816 647 c 128,-1,54
 801 634 801 634 793 634 c 2,55,-1
 561 634 l 2,56,57
 534 634 534 634 527 607 c 2,58,-1
 439 298 l 2,59,60
 420 228 420 228 420 181 c 0,61,62
 420 114 420 114 464.5 83.5 c 128,-1,63
 509 53 509 53 621 53 c 0,64,65
 927 53 927 53 1165.5 317.5 c 128,-1,66
 1404 582 1404 582 1404 880 c 0,41,42
EndSplineSet
Comment: "last+AD0A-64" 
Colour: ffffff
EndChar

StartChar: Thorn
Encoding: 222 222 157
Width: 1159
GlyphClass: 2
Flags: W
AnchorPoint: "above" 930 1415 basechar 0
LayerCount: 2
Fore
SplineSet
1238 1003 m 0,0,1
 1238 730 1238 730 1094.5 502.5 c 128,-1,2
 951 275 951 275 735.5 130.5 c 128,-1,3
 520 -14 520 -14 338 -27 c 0,4,5
 310 -28 310 -28 302 -53 c 2,6,-1
 241 -275 l 2,7,8
 226 -325 226 -325 116 -399 c 2,9,-1
 -71 -516 l 2,10,11
 -77 -521 -77 -521 -87 -521 c 0,12,13
 -112 -521 -112 -521 -124 -486 c 0,14,15
 -128 -474 -128 -474 -128 -455 c 128,-1,16
 -128 -436 -128 -436 -111 -424 c 2,17,-1
 25 -335 l 2,18,19
 90 -286 90 -286 105 -233 c 2,20,-1
 488 1103 l 2,21,22
 496 1130 496 1130 496 1152 c 0,23,24
 496 1239 496 1239 353 1239 c 0,25,26
 345 1239 345 1239 345 1260 c 128,-1,27
 345 1281 345 1281 356 1298 c 128,-1,28
 367 1315 367 1315 373 1315 c 0,29,30
 479 1315 479 1315 656 1375 c 0,31,32
 682 1384 682 1384 699.5 1384 c 128,-1,33
 717 1384 717 1384 717 1365 c 0,34,35
 717 1358 717 1358 707 1328 c 2,36,-1
 644 1135 l 2,37,38
 640 1123 640 1123 640 1114.5 c 128,-1,39
 640 1106 640 1106 647.5 1106 c 128,-1,40
 655 1106 655 1106 702.5 1132 c 128,-1,41
 750 1158 750 1158 844 1221 c 128,-1,42
 938 1284 938 1284 981 1306 c 128,-1,43
 1024 1328 1024 1328 1077 1328 c 0,44,45
 1158 1328 1158 1328 1198 1224.5 c 128,-1,46
 1238 1121 1238 1121 1238 1003 c 0,0,1
1075 906 m 0,47,48
 1075 1000 1075 1000 1039 1105.5 c 128,-1,49
 1003 1211 1003 1211 951 1211 c 0,50,51
 932 1211 932 1211 908 1196 c 0,52,53
 842 1146 842 1146 649 1033 c 0,54,55
 608 1012 608 1012 592 957 c 2,56,-1
 338 73 l 2,57,58
 336 66 336 66 336 57 c 128,-1,59
 336 48 336 48 355 48 c 0,60,61
 519 55 519 55 711 205 c 128,-1,62
 903 355 903 355 989 560.5 c 128,-1,63
 1075 766 1075 766 1075 906 c 0,47,48
EndSplineSet
Substitution2: "'ss19' Latin to Gothic transliteration subtable" u10338
Substitution2: "'ss01' Style Set 1 in Latin lookup 12" Thorn.nordic
Substitution2: "'locl' Localized Forms in Latin lookup 8" Thorn.nordic
Comment: "last+AD0A-63" 
Colour: ffffff
EndChar

StartChar: germandbls
Encoding: 223 223 158
Width: 926
GlyphClass: 2
Flags: W
LayerCount: 2
Fore
SplineSet
850 222 m 256,0,1
 850 118 850 118 762 45.5 c 128,-1,2
 674 -27 674 -27 559 -27 c 0,3,4
 499 -27 499 -27 461.5 10.5 c 128,-1,5
 424 48 424 48 424 82 c 0,6,7
 424 162 424 162 480 162 c 256,8,9
 536 162 536 162 564 119.5 c 128,-1,10
 592 77 592 77 607 66 c 128,-1,11
 622 55 622 55 657 55 c 0,12,13
 739 55 739 55 739 176 c 0,14,15
 739 240 739 240 649 366 c 128,-1,16
 559 492 559 492 559 592 c 0,17,18
 559 725 559 725 611 827.5 c 128,-1,19
 663 930 663 930 787.5 1010.5 c 128,-1,20
 912 1091 912 1091 968 1144.5 c 128,-1,21
 1024 1198 1024 1198 1024 1273 c 256,22,23
 1024 1333 1024 1333 985.5 1364 c 128,-1,24
 947 1395 947 1395 894 1395 c 256,25,26
 830 1395 830 1395 776.5 1366.5 c 128,-1,27
 723 1338 723 1338 629.5 1257 c 128,-1,28
 536 1176 536 1176 455.5 979 c 128,-1,29
 375 782 375 782 346 633 c 10,30,-1
 201 -111 l 2,31,32
 175 -243 175 -243 135 -340.5 c 128,-1,33
 95 -438 95 -438 22.5 -494.5 c 128,-1,34
 -50 -551 -50 -551 -154 -551 c 0,35,36
 -221 -551 -221 -551 -263 -515 c 128,-1,37
 -305 -479 -305 -479 -305 -441.5 c 128,-1,38
 -305 -404 -305 -404 -282 -385.5 c 128,-1,39
 -259 -367 -259 -367 -242 -367 c 0,40,41
 -181 -367 -181 -367 -155 -417 c 128,-1,42
 -129 -467 -129 -467 -90 -467 c 256,43,44
 -47 -467 -47 -467 -6.5 -410.5 c 128,-1,45
 34 -354 34 -354 45 -297 c 10,46,-1
 225 633 l 18,47,48
 270 868 270 868 359.5 1038.5 c 128,-1,49
 449 1209 449 1209 555.5 1299 c 128,-1,50
 662 1389 662 1389 750 1426.5 c 128,-1,51
 838 1464 838 1464 940 1464 c 256,52,53
 1042 1464 1042 1464 1103.5 1409 c 128,-1,54
 1165 1354 1165 1354 1165 1284 c 0,55,56
 1165 1168 1165 1168 1044 1096 c 2,57,-1
 811 958 l 2,58,59
 672 876 672 876 672 684 c 0,60,61
 672 585 672 585 761 455.5 c 128,-1,62
 850 326 850 326 850 222 c 256,0,1
EndSplineSet
Comment: "last+AD0A-62" 
Colour: ffffff
EndChar

StartChar: ae
Encoding: 230 230 165
Width: 1004
GlyphClass: 2
Flags: W
AnchorPoint: "above" 874 900 basechar 0
LayerCount: 2
Fore
SplineSet
1030 737 m 0,0,1
 1030 600 1030 600 865.5 492 c 128,-1,2
 701 384 701 384 549 356 c 1,3,4
 535 283 535 283 535 238 c 0,5,6
 535 72 535 72 645 72 c 0,7,8
 681 72 681 72 718 88 c 128,-1,9
 755 104 755 104 868 197 c 0,10,11
 872 200 872 200 876 200 c 0,12,13
 902 200 902 200 902 172 c 0,14,15
 902 167 902 167 899 164 c 0,16,17
 750 -27 750 -27 606 -27 c 0,18,19
 474 -27 474 -27 428 76 c 1,20,21
 298 -27 298 -27 154 -27 c 0,22,23
 96 -27 96 -27 63.5 20.5 c 128,-1,24
 31 68 31 68 31 141 c 0,25,26
 31 396 31 396 327.5 624 c 128,-1,27
 624 852 624 852 895 852 c 0,28,29
 1030 852 1030 852 1030 737 c 0,0,1
887 711 m 0,30,31
 887 772 887 772 834 772 c 0,32,33
 761 772 761 772 685.5 667 c 128,-1,34
 610 562 610 562 567 420 c 1,35,36
 686 445 686 445 786.5 522.5 c 128,-1,37
 887 600 887 600 887 711 c 0,30,31
403 215 m 0,38,39
 403 331 403 331 474.5 477 c 128,-1,40
 546 623 546 623 653 727 c 1,41,-1
 647 733 l 1,42,43
 457 649 457 649 317.5 483.5 c 128,-1,44
 178 318 178 318 178 176 c 0,45,46
 178 82 178 82 238 82 c 0,47,48
 319 82 319 82 408 147 c 1,49,50
 403 209 403 209 403 215 c 0,38,39
EndSplineSet
Comment: "last+AD0A-50" 
Colour: ffffff
EndChar

StartChar: ccedilla
Encoding: 231 231 166
Width: 674
GlyphClass: 2
Flags: W
LayerCount: 2
Fore
SplineSet
383 -256.5 m 128,-1,1
 383 -327 383 -327 317 -375.5 c 128,-1,2
 251 -424 251 -424 174 -424 c 0,3,4
 72 -424 72 -424 72 -358 c 0,5,6
 72 -309 72 -309 123 -309 c 0,7,8
 143 -309 143 -309 173 -339 c 128,-1,9
 203 -369 203 -369 215 -369 c 0,10,11
 272 -368 272 -368 272 -298 c 0,12,13
 272 -235 272 -235 181 -187 c 0,14,15
 160 -176 160 -176 173 -157 c 2,16,-1
 272 -25 l 1,17,18
 200 -14 200 -14 154 52 c 0,19,20
 98 132 98 132 98 256 c 0,21,22
 98 459 98 459 241.5 655.5 c 128,-1,23
 385 852 385 852 557 852 c 0,24,25
 619 852 619 852 670 822.5 c 128,-1,26
 721 793 721 793 721 754 c 0,27,28
 721 722 721 722 696 699.5 c 128,-1,29
 671 677 671 677 645 677 c 0,30,31
 618 677 618 677 608 696 c 1,32,33
 599 753 599 753 593 762 c 0,34,35
 573 788 573 788 504 788 c 0,36,37
 414 788 414 788 324 626.5 c 128,-1,38
 234 465 234 465 233 324 c 0,39,40
 233 203 233 203 270.5 133 c 128,-1,41
 308 63 308 63 369 63 c 0,42,43
 432 63 432 63 470 84.5 c 128,-1,44
 508 106 508 106 551 145 c 0,45,46
 556 149 556 149 569 145.5 c 128,-1,47
 582 142 582 142 585.5 130.5 c 128,-1,48
 589 119 589 119 584 113 c 0,49,50
 463 -8 463 -8 339 -24 c 1,51,-1
 297 -80 l 2,52,53
 279 -103 279 -103 307 -125 c 0,54,0
 383 -186 383 -186 383 -256.5 c 128,-1,1
EndSplineSet
Ligature2: "'ccmp' Glyph Composition/Decomposition in Latin single" c uni0327
LCarets2: 1 0 
EndChar

StartChar: divide
Encoding: 247 247 182
Width: 1051
GlyphClass: 2
Flags: W
LayerCount: 2
Fore
SplineSet
624 124 m 128,-1,1
 624 85 624 85 597.5 60.5 c 128,-1,2
 571 36 571 36 525.5 36 c 128,-1,3
 480 36 480 36 455 65.5 c 128,-1,4
 430 95 430 95 430 129.5 c 128,-1,5
 430 164 430 164 455.5 194 c 128,-1,6
 481 224 481 224 529.5 224 c 128,-1,7
 578 224 578 224 601 193.5 c 128,-1,0
 624 163 624 163 624 124 c 128,-1,1
624 703.5 m 128,-1,9
 624 664 624 664 597.5 639.5 c 128,-1,10
 571 615 571 615 525.5 615 c 128,-1,11
 480 615 480 615 455 644.5 c 128,-1,12
 430 674 430 674 430 708.5 c 128,-1,13
 430 743 430 743 455.5 773.5 c 128,-1,14
 481 804 481 804 529.5 804 c 128,-1,15
 578 804 578 804 601 773.5 c 128,-1,8
 624 743 624 743 624 703.5 c 128,-1,9
934 371 m 1,16,-1
 119 371 l 1,17,-1
 119 471 l 1,18,-1
 934 471 l 1,19,-1
 934 371 l 1,16,-1
EndSplineSet
Comment: "last+AD0A-19" 
Colour: ffffff
EndChar

StartChar: dcroat
Encoding: 273 273 208
Width: 958
GlyphClass: 2
Flags: W
LayerCount: 2
Fore
SplineSet
721 209 m 2,0,1
 714 180 714 180 714 162 c 0,2,3
 714 113 714 113 739 113 c 0,4,5
 790 113 790 113 872 207 c 0,6,7
 875 210 875 210 888 205 c 128,-1,8
 901 200 901 200 909 187 c 128,-1,9
 917 174 917 174 913 170 c 0,10,11
 739 -27 739 -27 637 -27 c 0,12,13
 577 -27 577 -27 577 80 c 0,14,15
 577 106 577 106 584 135 c 2,16,-1
 624 313 l 1,17,-1
 610 324 l 1,18,19
 508 175 508 175 396.5 74 c 128,-1,20
 285 -27 285 -27 186 -27 c 0,21,22
 126 -27 126 -27 94.5 24.5 c 128,-1,23
 63 76 63 76 63 145 c 0,24,25
 63 358 63 358 236 605 c 128,-1,26
 409 852 409 852 604 852 c 0,27,28
 684 852 684 852 735 789 c 1,29,-1
 793 1049 l 1,30,-1
 615 1049 l 2,31,32
 608 1049 608 1049 608 1069 c 128,-1,33
 608 1089 608 1089 621 1116 c 128,-1,34
 634 1143 634 1143 643 1143 c 10,35,-1
 814 1143 l 1,36,-1
 827 1200 l 2,37,38
 843 1267 843 1267 843 1296 c 0,39,40
 843 1378 843 1378 766 1378 c 0,41,42
 751 1378 751 1378 751 1404 c 128,-1,43
 751 1430 751 1430 766 1430 c 0,44,45
 836 1430 836 1430 914 1457.5 c 128,-1,46
 992 1485 992 1485 997 1485 c 0,47,48
 1012 1485 1012 1485 1010 1472 c 2,49,-1
 1008 1460 l 1,50,-1
 935 1143 l 1,51,-1
 1094 1143 l 2,52,53
 1100 1143 1100 1143 1100 1125.5 c 128,-1,54
 1100 1108 1100 1108 1085 1078.5 c 128,-1,55
 1070 1049 1070 1049 1061 1049 c 2,56,-1
 914 1049 l 1,57,-1
 721 209 l 2,0,1
710 688 m 1,58,59
 666 786 666 786 578 786 c 0,60,61
 442 786 442 786 326.5 563 c 128,-1,62
 211 340 211 340 211 180 c 0,63,64
 211 82 211 82 270 82 c 0,65,66
 340 82 340 82 469 226.5 c 128,-1,67
 598 371 598 371 668 504 c 1,68,-1
 710 688 l 1,58,59
EndSplineSet
Comment: "last+AD0A-68" 
Colour: ffffff
EndChar

StartChar: Eogonek
Encoding: 280 280 215
Width: 1255
GlyphClass: 2
Flags: W
LayerCount: 2
Fore
SplineSet
986 -398 m 0,0,1
 912 -488 912 -488 779 -488 c 0,2,3
 600 -488 600 -488 600 -310 c 0,4,5
 600 -235 600 -235 654 -167.5 c 128,-1,6
 708 -100 708 -100 797 -43 c 0,7,8
 858 -6 858 -6 764 -4 c 0,9,10
 520 0 520 0 341 0 c 128,-1,11
 162 0 162 0 29 -7 c 1,12,13
 21 -7 21 -7 21 11 c 128,-1,14
 21 29 21 29 32 49 c 128,-1,15
 43 69 43 69 49 69 c 0,16,17
 144 69 144 69 192 90 c 128,-1,18
 240 111 240 111 262 186 c 2,19,-1
 545 1172 l 2,20,21
 549 1186 549 1186 549 1205 c 0,22,23
 549 1282 549 1282 392 1282 c 0,24,25
 384 1282 384 1282 384 1301.5 c 128,-1,26
 384 1321 384 1321 395 1339.5 c 128,-1,27
 406 1358 406 1358 412 1358 c 1,28,29
 545 1354 545 1354 687.5 1354 c 128,-1,30
 830 1354 830 1354 1014.5 1356 c 128,-1,31
 1199 1358 1199 1358 1343 1358 c 0,32,33
 1405 1358 1405 1358 1405 1336 c 0,34,35
 1405 1331 1405 1331 1402 1320 c 2,36,-1
 1314 1010 l 2,37,38
 1310 996 1310 996 1270.5 996 c 128,-1,39
 1231 996 1231 996 1234 1010 c 0,40,41
 1245 1066 1245 1066 1245 1088 c 0,42,43
 1245 1183 1245 1183 1181 1230 c 128,-1,44
 1117 1277 1117 1277 1054 1280 c 0,45,46
 841 1289 841 1289 751 1289 c 0,47,48
 722 1289 722 1289 716 1267 c 2,49,-1
 556 713 l 2,50,51
 554 704 554 704 554 698 c 0,52,53
 554 676 554 676 583 676 c 2,54,-1
 775 676 l 2,55,56
 844 676 844 676 866 688 c 0,57,58
 901 706 901 706 917 764 c 2,59,-1
 944 864 l 2,60,61
 948 879 948 879 984 879 c 128,-1,62
 1020 879 1020 879 1017 864 c 1,63,64
 929 613 929 613 894 436 c 1,65,66
 890 421 890 421 856.5 421 c 128,-1,67
 823 421 823 421 827 437 c 2,68,-1
 852 527 l 2,69,70
 859 552 859 552 859 566 c 0,71,72
 859 607 859 607 756 607 c 2,73,-1
 558 607 l 2,74,75
 525 607 525 607 518 581 c 2,76,-1
 437 300 l 2,77,78
 410 206 410 206 410 160 c 0,79,80
 410 57 410 57 524 61 c 2,81,-1
 764 69 l 2,82,83
 997 77 997 77 1092 344 c 0,84,85
 1097 358 1097 358 1138 358 c 128,-1,86
 1179 358 1179 358 1175 344 c 2,87,-1
 1081 19 l 2,88,89
 1073 -7 1073 -7 1053 -7 c 3,90,91
 935 -7 935 -7 835 -88.5 c 128,-1,92
 735 -170 735 -170 734 -272 c 0,93,94
 733 -402 733 -402 861 -402 c 0,95,96
 907 -402 907 -402 972 -373 c 1,97,98
 987 -376 987 -376 987 -390 c 0,99,100
 987 -396 987 -396 986 -398 c 0,0,1
EndSplineSet
Ligature2: "'ccmp' Glyph Composition/Decomposition in Latin single" E uni0328
LCarets2: 1 0 
EndChar

StartChar: Hbar
Encoding: 294 294 229
Width: 1503
GlyphClass: 2
Flags: W
LayerCount: 2
Fore
SplineSet
1167 186 m 2,0,1
 1161 165 1161 165 1161 152 c 0,2,3
 1161 69 1161 69 1318 69 c 0,4,5
 1326 69 1326 69 1326 51 c 128,-1,6
 1326 33 1326 33 1315 13 c 128,-1,7
 1304 -7 1304 -7 1297 -7 c 0,8,9
 1209 0 1209 0 1049.5 0 c 128,-1,10
 890 0 890 0 789 -7 c 0,11,12
 782 -7 782 -7 782 12.5 c 128,-1,13
 782 32 782 32 793 50.5 c 128,-1,14
 804 69 804 69 810 69 c 0,15,16
 917 69 917 69 960.5 96 c 128,-1,17
 1004 123 1004 123 1022 186 c 2,18,-1
 1148 627 l 2,19,20
 1152 642 1152 642 1152 652.5 c 128,-1,21
 1152 663 1152 663 1123 663 c 2,22,-1
 576 663 l 2,23,24
 544 663 544 663 534 627 c 2,25,-1
 407 186 l 2,26,27
 401 165 401 165 401 151 c 0,28,29
 401 69 401 69 558 69 c 0,30,31
 565 69 565 69 565 47.5 c 128,-1,32
 565 26 565 26 554 9.5 c 128,-1,33
 543 -7 543 -7 536 -7 c 0,34,35
 451 0 451 0 279 0 c 128,-1,36
 107 0 107 0 29 -7 c 0,37,38
 21 -7 21 -7 21 11 c 128,-1,39
 21 29 21 29 32 49 c 128,-1,40
 43 69 43 69 49 69 c 0,41,42
 167 69 167 69 206.5 100 c 128,-1,43
 246 131 246 131 262 186 c 2,44,-1
 488 973 l 1,45,-1
 354 973 l 2,46,47
 347 973 347 973 346.5 990.5 c 128,-1,48
 346 1008 346 1008 358 1037.5 c 128,-1,49
 370 1067 370 1067 382 1067 c 2,50,-1
 515 1067 l 1,51,-1
 545 1172 l 2,52,53
 550 1189 550 1189 550 1207 c 0,54,55
 550 1287 550 1287 394 1287 c 0,56,57
 386 1287 386 1287 386 1306.5 c 128,-1,58
 386 1326 386 1326 397 1344.5 c 128,-1,59
 408 1363 408 1363 414 1363 c 0,60,61
 460 1358 460 1358 669 1358 c 128,-1,62
 878 1358 878 1358 924 1363 c 0,63,64
 932 1363 932 1363 932 1343.5 c 128,-1,65
 932 1324 932 1324 921 1305.5 c 128,-1,66
 910 1287 910 1287 904 1287 c 0,67,68
 787 1287 787 1287 746 1257.5 c 128,-1,69
 705 1228 705 1228 689 1172 c 2,70,-1
 659 1067 l 1,71,-1
 1275 1067 l 1,72,-1
 1305 1172 l 2,73,74
 1310 1189 1310 1189 1310 1207 c 0,75,76
 1310 1287 1310 1287 1154 1287 c 0,77,78
 1146 1287 1146 1287 1146 1308.5 c 128,-1,79
 1146 1330 1146 1330 1157 1346.5 c 128,-1,80
 1168 1363 1168 1363 1175 1363 c 0,81,82
 1250 1358 1250 1358 1428 1358 c 128,-1,83
 1606 1358 1606 1358 1684 1363 c 0,84,85
 1692 1363 1692 1363 1692 1342 c 128,-1,86
 1692 1321 1692 1321 1681 1304 c 128,-1,87
 1670 1287 1670 1287 1664 1287 c 0,88,89
 1557 1287 1557 1287 1512 1261 c 128,-1,90
 1467 1235 1467 1235 1449 1172 c 2,91,-1
 1419 1067 l 1,92,-1
 1552 1067 l 2,93,94
 1558 1067 1558 1067 1558 1052 c 128,-1,95
 1558 1037 1558 1037 1545 1005 c 128,-1,96
 1532 973 1532 973 1520 973 c 2,97,-1
 1392 973 l 1,98,-1
 1167 186 l 2,0,1
1248 973 m 1,99,-1
 632 973 l 1,100,-1
 577 780 l 2,101,102
 572 761 572 761 572 750 c 128,-1,103
 572 739 572 739 600 739 c 2,104,-1
 1146 739 l 2,105,106
 1180 739 1180 739 1192 780 c 2,107,-1
 1248 973 l 1,99,-1
EndSplineSet
Comment: "last+AD0A-98" 
Colour: ffffff
EndChar

StartChar: dotlessi
Encoding: 305 305 240
Width: 528
GlyphClass: 2
Flags: W
AnchorPoint: "above" 382 900 basechar 0
LayerCount: 2
Fore
SplineSet
293 203 m 2,0,1
 282 164 282 164 282 142 c 0,2,3
 282 102 282 102 310.5 102 c 128,-1,4
 339 102 339 102 442 195 c 0,5,6
 451 203 451 203 469 186 c 0,7,8
 483 173 483 173 483 164 c 0,9,10
 483 161 483 161 481 158 c 0,11,12
 461 123 461 123 363.5 48 c 128,-1,13
 266 -27 266 -27 195 -27 c 0,14,15
 141 -27 141 -27 141 60 c 0,16,17
 141 98 141 98 152 137 c 2,18,-1
 289 625 l 2,19,20
 294 643 294 643 294 661 c 0,21,22
 294 711 294 711 269.5 711 c 128,-1,23
 245 711 245 711 152 623 c 0,24,25
 143 614 143 614 124 634 c 0,26,27
 111 648 111 648 111 657 c 0,28,29
 111 660 111 660 113 663 c 0,30,31
 150 722 150 722 238.5 787 c 128,-1,32
 327 852 327 852 385 852 c 0,33,34
 441 852 441 852 441 766 c 0,35,36
 441 729 441 729 430 690 c 2,37,-1
 293 203 l 2,0,1
EndSplineSet
Comment: "last+AD0A-37" 
Colour: ffffff
EndChar

StartChar: Lslash
Encoding: 321 321 256
Width: 1312
GlyphClass: 2
Flags: W
LayerCount: 2
Fore
SplineSet
1190 27 m 2,0,1
 1183 1 1183 1 1171.5 -3 c 128,-1,2
 1160 -7 1160 -7 1099 -7 c 1,3,4
 456 0 456 0 296 0 c 128,-1,5
 136 0 136 0 29 -7 c 1,6,7
 21 -7 21 -7 21 14.5 c 128,-1,8
 21 36 21 36 34 52.5 c 128,-1,9
 47 69 47 69 55 69 c 0,10,11
 152 69 152 69 196.5 89.5 c 128,-1,12
 241 110 241 110 260 177 c 2,13,-1
 375 576 l 1,14,-1
 150 446 l 2,15,16
 132 436 132 436 105.5 480.5 c 128,-1,17
 79 525 79 525 97 536 c 2,18,-1
 417 721 l 1,19,-1
 547 1172 l 2,20,21
 551 1189 551 1189 551 1205 c 0,22,23
 551 1287 551 1287 392 1287 c 0,24,25
 383 1287 383 1287 383 1309.5 c 128,-1,26
 383 1332 383 1332 393.5 1347.5 c 128,-1,27
 404 1363 404 1363 410 1363 c 1,28,29
 458 1358 458 1358 671 1358 c 128,-1,30
 884 1358 884 1358 932 1363 c 1,31,32
 939 1363 939 1363 939 1342 c 128,-1,33
 939 1321 939 1321 928 1304 c 128,-1,34
 917 1287 917 1287 911 1287 c 0,35,36
 808 1287 808 1287 760.5 1267 c 128,-1,37
 713 1247 713 1247 691 1172 c 2,38,-1
 590 821 l 1,39,-1
 875 986 l 2,40,41
 893 996 893 996 919 950 c 128,-1,42
 945 904 945 904 927 894 c 2,43,-1
 549 676 l 1,44,-1
 434 277 l 2,45,46
 412 200 412 200 412 159 c 0,47,48
 412 62 412 62 534 62 c 2,49,-1
 867 75 l 2,50,51
 1148 87 1148 87 1211 379 c 0,52,53
 1214 393 1214 393 1254.5 393 c 128,-1,54
 1295 393 1295 393 1291 379 c 2,55,-1
 1190 27 l 2,0,1
EndSplineSet
Comment: "last+AD0A-55" 
Colour: ffffff
EndChar

StartChar: lslash
Encoding: 322 322 257
Width: 496
GlyphClass: 2
Flags: W
LayerCount: 2
Fore
SplineSet
258 209 m 2,0,1
 251 178 251 178 251 162 c 0,2,3
 251 113 251 113 276 113 c 0,4,5
 328 113 328 113 410 207 c 0,6,7
 412 210 412 210 416 210 c 0,8,9
 433 210 433 210 447 189 c 0,10,11
 457 177 457 177 451 170 c 0,12,13
 276 -27 276 -27 174 -27 c 0,14,15
 114 -27 114 -27 114 80 c 0,16,17
 114 104 114 104 121 135 c 2,18,-1
 230 612 l 1,19,-1
 -1 473 l 2,20,21
 -21 461 -21 461 -53 514 c 0,22,23
 -67 539 -67 539 -67 553 c 0,24,25
 -67 564 -67 564 -59 569 c 2,26,-1
 265 764 l 1,27,-1
 364 1197 l 2,28,29
 379 1263 379 1263 379 1295 c 0,30,31
 379 1377 379 1377 302 1377 c 0,32,33
 287 1377 287 1377 287 1403 c 128,-1,34
 287 1429 287 1429 302 1429 c 0,35,36
 375 1429 375 1429 451.5 1456.5 c 128,-1,37
 528 1484 528 1484 534 1484 c 0,38,39
 550 1484 550 1484 546 1470 c 2,40,-1
 404 847 l 1,41,-1
 661 1002 l 2,42,43
 682 1013 682 1013 713 960 c 0,44,45
 727 935 727 935 727 921 c 0,46,47
 727 910 727 910 719 905 c 2,48,-1
 369 695 l 1,49,-1
 258 209 l 2,0,1
EndSplineSet
Comment: "last+AD0A-49" 
Colour: ffffff
EndChar

StartChar: eng
Encoding: 331 331 266
Width: 1008
GlyphClass: 2
Flags: W
LayerCount: 2
Fore
SplineSet
755 129 m 18,0,1
 675 -158 675 -158 600.5 -290 c 128,-1,2
 526 -422 526 -422 432 -481 c 128,-1,3
 338 -540 338 -540 209 -540 c 0,4,5
 139 -540 139 -540 139 -468 c 0,6,7
 139 -438 139 -438 164.5 -421.5 c 128,-1,8
 190 -405 190 -405 219 -405 c 0,9,10
 252 -405 252 -405 280 -432 c 128,-1,11
 308 -459 308 -459 332 -459 c 0,12,13
 402 -459 402 -459 453.5 -397 c 128,-1,14
 505 -335 505 -335 525 -260 c 10,15,-1
 758 582 l 2,16,17
 788 690 788 690 788 727 c 0,18,19
 788 772 788 772 758 772 c 0,20,21
 672 772 672 772 508 532.5 c 128,-1,22
 344 293 344 293 233 2 c 0,23,24
 222 -27 222 -27 170 -27 c 0,25,26
 112 -27 112 -27 112 -1 c 0,27,28
 112 3 112 3 113 6 c 2,29,-1
 289 625 l 2,30,31
 295 646 295 646 295 664 c 0,32,33
 295 711 295 711 263.5 711 c 128,-1,34
 232 711 232 711 156 625 c 0,35,36
 153 622 153 622 149 622 c 0,37,38
 133 622 133 622 118 643 c 0,39,40
 113 650 113 650 113 656 c 0,41,42
 113 660 113 660 115 662 c 0,43,44
 269 852 269 852 383 852 c 0,45,46
 440 852 440 852 440 762 c 0,47,48
 440 725 440 725 411 624 c 2,49,-1
 342 383 l 1,50,-1
 350 379 l 1,51,52
 596 852 596 852 799 852 c 0,53,54
 905 852 905 852 905 727 c 0,55,56
 905 668 905 668 877 567 c 2,57,-1
 755 129 l 18,0,1
EndSplineSet
Comment: "last+AD0A-57" 
Colour: ffffff
EndChar

StartChar: OE
Encoding: 338 338 273
Width: 2063
GlyphClass: 2
Flags: W
AnchorPoint: "above" 1469 1415 basechar 0
LayerCount: 2
Fore
SplineSet
1889 19 m 2,0,1
 1881 -8 1881 -8 1862 -8 c 9,2,-1
 1575 -5 l 1,3,4
 1338 0 1338 0 1114.5 0 c 128,-1,5
 891 0 891 0 673 -13 c 1,6,7
 453 -13 453 -13 335 116 c 128,-1,8
 217 245 217 245 217 450 c 0,9,10
 217 679 217 679 342.5 889.5 c 128,-1,11
 468 1100 468 1100 650.5 1232 c 128,-1,12
 833 1364 833 1364 1063 1364 c 1,13,14
 1305 1354 1305 1354 1456.5 1354 c 128,-1,15
 1608 1354 1608 1354 2151 1358 c 1,16,17
 2213 1358 2213 1358 2213 1336 c 0,18,19
 2213 1329 2213 1329 2210 1320 c 2,20,-1
 2122 1010 l 2,21,22
 2117 996 2117 996 2079.5 996 c 128,-1,23
 2042 996 2042 996 2042 1010 c 0,24,25
 2054 1052 2054 1052 2054 1089 c 0,26,27
 2054 1187 2054 1187 1975 1242 c 0,28,29
 1925 1277 1925 1277 1861 1280 c 0,30,31
 1648 1289 1648 1289 1557 1289 c 0,32,33
 1531 1289 1531 1289 1522 1259 c 2,34,-1
 1364 713 l 2,35,36
 1353 676 1353 676 1391 676 c 2,37,-1
 1584 676 l 2,38,39
 1667 676 1667 676 1690 698.5 c 128,-1,40
 1713 721 1713 721 1725 764 c 2,41,-1
 1752 864 l 2,42,43
 1756 879 1756 879 1790 879 c 128,-1,44
 1824 879 1824 879 1824 864 c 1,45,46
 1734 598 1734 598 1702 436 c 1,47,48
 1697 421 1697 421 1664 421 c 128,-1,49
 1631 421 1631 421 1635 437 c 2,50,-1
 1660 527 l 2,51,52
 1668 554 1668 554 1668 565 c 0,53,54
 1668 607 1668 607 1564 607 c 2,55,-1
 1365 607 l 2,56,57
 1332 607 1332 607 1325 581 c 2,58,-1
 1245 300 l 2,59,60
 1218 207 1218 207 1218 161 c 0,61,62
 1218 62 1218 62 1331 62 c 9,63,-1
 1573 69 l 2,64,65
 1825 78 1825 78 1901 344 c 0,66,67
 1906 358 1906 358 1944.5 358 c 128,-1,68
 1983 358 1983 358 1983 344 c 2,69,-1
 1889 19 l 2,0,1
1070 186 m 2,70,-1
 1352 1172 l 2,71,72
 1356 1185 1356 1185 1356 1199 c 0,73,74
 1356 1280 1356 1280 1177 1294 c 0,75,76
 1125 1298 1125 1298 1039 1298 c 0,77,78
 858 1298 858 1298 704.5 1168.5 c 128,-1,79
 551 1039 551 1039 465.5 849.5 c 128,-1,80
 380 660 380 660 380 466 c 256,81,82
 380 288 380 288 476.5 174.5 c 128,-1,83
 573 61 573 61 696 61 c 0,84,85
 880 61 880 61 920 69 c 0,86,87
 1043 92 1043 92 1070 186 c 2,70,-1
EndSplineSet
Comment: "last+AD0A-87" 
Colour: ffffff
EndChar

StartChar: tcommaaccent
Encoding: 355 355 290
Width: 604
GlyphClass: 2
Flags: W
LayerCount: 2
Fore
SplineSet
276 225 m 2,0,1
 264 183 264 183 264 154 c 0,2,3
 264 102 264 102 299 102 c 0,4,5
 362 102 362 102 522 301 c 0,6,7
 524 304 524 304 528 304 c 0,8,9
 544 304 544 304 556 282 c 0,10,11
 563 269 563 269 557 260 c 0,12,13
 441 98 441 98 364 36 c 0,14,15
 298 -18 298 -18 229 -26 c 1,16,-1
 188 -80 l 2,17,18
 170 -103 170 -103 198 -125 c 0,19,20
 274 -186 274 -186 274 -256.5 c 128,-1,21
 274 -327 274 -327 208 -375.5 c 128,-1,22
 142 -424 142 -424 65 -424 c 0,23,24
 -37 -424 -37 -424 -37 -358 c 0,25,26
 -37 -309 -37 -309 14 -309 c 0,27,28
 34 -309 34 -309 64 -339 c 128,-1,29
 94 -369 94 -369 106 -369 c 0,30,31
 163 -368 163 -368 163 -298 c 0,32,33
 163 -235 163 -235 72 -187 c 0,34,35
 51 -176 51 -176 64 -157 c 2,36,-1
 169 -18 l 1,37,38
 155 -10 155 -10 145 4 c 0,39,40
 122 35 122 35 122 76 c 0,41,42
 122 120 122 120 130 148 c 2,43,-1
 298 730 l 1,44,-1
 142 730 l 2,45,46
 130 730 130 730 130 749 c 0,47,48
 130 785 130 785 152 789 c 2,49,-1
 319 818 l 1,50,-1
 422 1021 l 2,51,52
 428 1033 428 1033 452 1033 c 0,53,54
 492 1033 492 1033 492 1014 c 0,55,56
 492 1012 492 1012 491 1008 c 2,57,-1
 442 808 l 1,58,-1
 666 808 l 2,59,60
 674 808 674 808 674 787.5 c 128,-1,61
 674 767 674 767 663 748.5 c 128,-1,62
 652 730 652 730 645 730 c 2,63,-1
 421 730 l 1,64,-1
 276 225 l 2,0,1
EndSplineSet
Ligature2: "'ccmp' Glyph Composition/Decomposition in Latin single" t uni0327
LCarets2: 1 0 
EndChar

StartChar: Tbar
Encoding: 358 358 293
Width: 1275
GlyphClass: 2
Flags: W
LayerCount: 2
Fore
SplineSet
699 186 m 2,0,1
 694 169 694 169 694 149 c 0,2,3
 694 69 694 69 851 69 c 0,4,5
 858 69 858 69 858 47.5 c 128,-1,6
 858 26 858 26 847.5 9.5 c 128,-1,7
 837 -7 837 -7 831 -7 c 0,8,9
 743 0 743 0 566.5 0 c 128,-1,10
 390 0 390 0 304 -7 c 0,11,12
 296 -7 296 -7 296 14 c 128,-1,13
 296 35 296 35 307 52 c 128,-1,14
 318 69 318 69 324 69 c 0,15,16
 440 69 440 69 489.5 97 c 128,-1,17
 539 125 539 125 556 186 c 2,18,-1
 679 618 l 1,19,-1
 424 618 l 2,20,21
 418 618 418 618 418 640.5 c 128,-1,22
 418 663 418 663 432 694 c 128,-1,23
 446 725 446 725 455 725 c 2,24,-1
 710 725 l 1,25,-1
 857 1240 l 2,26,27
 862 1258 862 1258 862 1263 c 0,28,29
 862 1282 862 1282 825 1282 c 2,30,-1
 687 1282 l 2,31,32
 432 1282 432 1282 353 1006 c 0,33,34
 349 992 349 992 313 992 c 128,-1,35
 277 992 277 992 275 1006 c 1,36,-1
 367 1327 l 2,37,38
 376 1358 376 1358 445 1358 c 0,39,40
 557 1358 557 1358 688 1356 c 128,-1,41
 819 1354 819 1354 936 1354 c 128,-1,42
 1053 1354 1053 1354 1188.5 1356 c 128,-1,43
 1324 1358 1324 1358 1474 1358 c 0,44,45
 1546 1358 1546 1358 1546 1338 c 1,46,-1
 1449 1006 l 2,47,48
 1445 992 1445 992 1405.5 992 c 128,-1,49
 1366 992 1366 992 1369 1006 c 0,50,51
 1384 1076 1384 1076 1384 1104 c 0,52,53
 1384 1282 1384 1282 1188 1282 c 2,54,-1
 1054 1282 l 2,55,56
 1013 1282 1013 1282 1002 1245 c 2,57,-1
 853 725 l 1,58,-1
 1120 725 l 2,59,60
 1125 725 1125 725 1125 705 c 128,-1,61
 1125 685 1125 685 1110 651.5 c 128,-1,62
 1095 618 1095 618 1088 618 c 2,63,-1
 823 618 l 1,64,-1
 699 186 l 2,0,1
EndSplineSet
Comment: "last+AD0A-62" 
Colour: ffffff
EndChar

StartChar: Uogonek
Encoding: 370 370 305
Width: 1482
GlyphClass: 2
Flags: W
LayerCount: 2
Fore
SplineSet
1456 890 m 2,0,1
 1346 503 1346 503 1273 346 c 128,-1,2
 1200 189 1200 189 1047 81 c 0,3,4
 951 13 951 13 824 -12 c 1,5,6
 628 -147 628 -147 628 -272 c 0,7,8
 628 -402 628 -402 755 -402 c 0,9,10
 801 -402 801 -402 866 -373 c 1,11,12
 881 -376 881 -376 881 -390 c 0,13,14
 881 -396 881 -396 880 -398 c 0,15,16
 806 -488 806 -488 673 -488 c 0,17,18
 494 -488 494 -488 494 -310 c 0,19,20
 494 -174 494 -174 717 -26 c 1,21,22
 691 -27 691 -27 665 -27 c 0,23,24
 482 -27 482 -27 388.5 42.5 c 128,-1,25
 295 112 295 112 295 263 c 0,26,27
 295 365 295 365 344 539 c 2,28,-1
 525 1172 l 2,29,30
 533 1201 533 1201 533 1218 c 0,31,32
 533 1262 533 1262 497.5 1274.5 c 128,-1,33
 462 1287 462 1287 392 1287 c 0,34,35
 383 1287 383 1287 383 1309.5 c 128,-1,36
 383 1332 383 1332 393.5 1347.5 c 128,-1,37
 404 1363 404 1363 410 1363 c 0,38,39
 458 1358 458 1358 655 1358 c 128,-1,40
 852 1358 852 1358 898 1363 c 0,41,42
 905 1363 905 1363 905 1341.5 c 128,-1,43
 905 1320 905 1320 894 1303.5 c 128,-1,44
 883 1287 883 1287 877 1287 c 0,45,46
 750 1287 750 1287 718 1256 c 128,-1,47
 686 1225 686 1225 671 1172 c 2,48,-1
 531 687 l 1,49,50
 442 371 442 371 442 268 c 128,-1,51
 442 165 442 165 512.5 107 c 0,52,53
 584 49 584 49 710 49 c 0,54,55
 910 49 910 49 1039 153 c 128,-1,56
 1168 257 1168 257 1234 487 c 2,57,-1
 1431 1172 l 2,58,59
 1437 1194 1437 1194 1437 1213 c 0,60,61
 1437 1287 1437 1287 1299 1287 c 0,62,63
 1292 1287 1292 1287 1292 1308 c 128,-1,64
 1292 1329 1292 1329 1303 1346 c 128,-1,65
 1314 1363 1314 1363 1320 1363 c 0,66,67
 1390 1358 1390 1358 1548.5 1358 c 128,-1,68
 1707 1358 1707 1358 1753 1363 c 0,69,70
 1761 1363 1761 1363 1761 1342 c 128,-1,71
 1761 1321 1761 1321 1750 1304 c 128,-1,72
 1739 1287 1739 1287 1733 1287 c 0,73,74
 1645 1287 1645 1287 1600.5 1265 c 128,-1,75
 1556 1243 1556 1243 1536 1172 c 2,76,-1
 1456 890 l 2,0,1
EndSplineSet
Ligature2: "'ccmp' Glyph Composition/Decomposition in Latin single" U uni0328
LCarets2: 1 0 
EndChar

StartChar: uogonek
Encoding: 371 371 306
Width: 991
GlyphClass: 2
Flags: W
AnchorPoint: "above" 645 900 basechar 0
LayerCount: 2
Fore
SplineSet
768 203 m 2,0,1
 756 161 756 161 756 141 c 0,2,3
 756 102 756 102 790 102 c 128,-1,4
 824 102 824 102 915 195 c 0,5,6
 918 198 918 198 923 198 c 0,7,8
 936 198 936 198 947 186 c 0,9,10
 960 172 960 172 959 164 c 0,11,12
 959 160 959 160 956 156 c 0,13,14
 808 -10 808 -10 695 -25 c 1,15,16
 518 -153 518 -153 518 -272 c 0,17,18
 518 -402 518 -402 645 -402 c 0,19,20
 691 -402 691 -402 756 -373 c 1,21,22
 771 -376 771 -376 771 -390 c 0,23,24
 771 -396 771 -396 770 -398 c 0,25,26
 696 -488 696 -488 563 -488 c 0,27,28
 384 -488 384 -488 384 -310 c 0,29,30
 384 -167 384 -167 632 -9 c 1,31,32
 614 13 614 13 614 63 c 0,33,34
 614 99 614 99 625 137 c 2,35,-1
 707 424 l 1,36,37
 463 116 463 116 372.5 44.5 c 128,-1,38
 282 -27 282 -27 226 -27 c 0,39,40
 142 -27 142 -27 142 72 c 0,41,42
 142 110 142 110 162 180 c 2,43,-1
 289 625 l 2,44,45
 295 646 295 646 295 666 c 0,46,47
 295 711 295 711 266.5 711 c 128,-1,48
 238 711 238 711 214 684 c 0,49,50
 188 655 188 655 158 625 c 0,51,52
 155 622 155 622 150 622 c 0,53,54
 132 622 132 622 119 644 c 0,55,56
 115 651 115 651 115 656 c 0,57,58
 115 660 115 660 117 662 c 0,59,60
 271 852 271 852 385 852 c 0,61,62
 440 852 440 852 440 770 c 0,63,64
 440 723 440 723 415 636 c 2,65,-1
 328 334 l 2,66,67
 287 192 287 192 287 147 c 0,68,69
 287 102 287 102 315 102 c 0,70,71
 359 102 359 102 474 224 c 128,-1,72
 589 346 589 346 702 541 c 0,73,74
 760 641 760 641 823 829 c 0,75,76
 831 852 831 852 883 852 c 0,77,78
 953 852 953 852 945 826 c 2,79,-1
 768 203 l 2,0,1
EndSplineSet
Ligature2: "'ccmp' Glyph Composition/Decomposition in Latin single" u uni0328
LCarets2: 1 0 
EndChar

StartChar: uni0180
Encoding: 384 384 319
Width: 852
GlyphClass: 2
Flags: W
LayerCount: 2
Fore
SplineSet
850 659 m 0,0,1
 850 406 850 406 670 189.5 c 128,-1,2
 490 -27 490 -27 242 -27 c 0,3,4
 97 -27 97 -27 97 133 c 0,5,6
 97 172 97 172 109 225 c 2,7,-1
 311 1092 l 1,8,-1
 88 1092 l 2,9,10
 81 1092 81 1092 81 1109 c 128,-1,11
 81 1126 81 1126 93 1148 c 128,-1,12
 105 1170 105 1170 115 1170 c 10,13,-1
 329 1170 l 1,14,-1
 336 1200 l 2,15,16
 352 1269 352 1269 352 1299 c 0,17,18
 352 1378 352 1378 274 1378 c 0,19,20
 259 1378 259 1378 259 1404 c 128,-1,21
 259 1430 259 1430 274 1430 c 0,22,23
 329 1430 329 1430 411 1457.5 c 128,-1,24
 493 1485 493 1485 506 1485 c 0,25,26
 520 1485 520 1485 518 1472 c 2,27,-1
 516 1458 l 1,28,-1
 449 1170 l 1,29,-1
 688 1170 l 2,30,31
 695 1170 695 1170 695 1154.5 c 128,-1,32
 695 1139 695 1139 682 1115.5 c 128,-1,33
 669 1092 669 1092 659 1092 c 10,34,-1
 431 1092 l 1,35,-1
 317 598 l 1,36,-1
 338 592 l 1,37,38
 536 852 536 852 684 852 c 0,39,40
 850 852 850 852 850 659 c 0,0,1
707 602 m 0,41,42
 707 754 707 754 623 754 c 0,43,44
 527 754 527 754 409.5 594 c 128,-1,45
 292 434 292 434 259.5 331.5 c 128,-1,46
 227 229 227 229 227 163 c 0,47,48
 227 45 227 45 326 45 c 0,49,50
 468 45 468 45 587.5 242.5 c 128,-1,51
 707 440 707 440 707 602 c 0,41,42
EndSplineSet
Comment: "last+AD0A-51" 
Colour: ffffff
EndChar

StartChar: uni0181
Encoding: 385 385 1008
Width: 1217
Flags: W
AnchorPoint: "above" 846 1415 basechar 0
LayerCount: 2
Fore
SplineSet
1157 390 m 0,0,1
 1157 228 1157 228 1021 110.5 c 128,-1,2
 885 -7 885 -7 550 -7 c 0,3,4
 510 -7 510 -7 421.5 -3.5 c 128,-1,5
 333 0 333 0 284 0 c 0,6,7
 148 0 148 0 29 -7 c 1,8,9
 21 -7 21 -7 21 13 c 128,-1,10
 21 33 21 33 32 51 c 128,-1,11
 43 69 43 69 49 69 c 0,12,13
 155 69 155 69 199.5 92.5 c 128,-1,14
 244 116 244 116 264 186 c 2,15,-1
 548 1174 l 2,16,17
 562 1221 562 1221 506 1254 c 0,18,19
 455 1284 455 1284 378 1284 c 0,20,21
 296 1284 296 1284 245 1256 c 128,-1,22
 194 1228 194 1228 188 1192 c 0,23,24
 184 1170 184 1170 210.5 1135.5 c 0,25,26
 237 1100 237 1100 237 1066 c 0,27,28
 237 1026 237 1026 212.5 1001.5 c 128,-1,29
 188 977 188 977 157 977 c 0,30,31
 116 977 116 977 101 1007 c 0,32,33
 86 1036 86 1036 86 1066 c 0,34,35
 86 1103 86 1103 107 1156.5 c 128,-1,36
 128 1210 128 1210 181 1264 c 128,-1,37
 234 1318 234 1318 298 1337.5 c 128,-1,38
 362 1357 362 1357 492 1357 c 0,39,40
 533 1357 533 1357 572.5 1355.5 c 128,-1,41
 612 1354 612 1354 656 1354 c 0,42,43
 749 1354 749 1354 793 1356 c 128,-1,44
 837 1358 837 1358 904 1358 c 0,45,46
 1076 1359 1076 1359 1166.5 1282 c 128,-1,47
 1257 1205 1257 1205 1257 1095 c 0,48,49
 1257 937 1257 937 1169.5 850.5 c 128,-1,50
 1082 764 1082 764 909 733 c 0,51,52
 898 731 898 731 898 725.5 c 128,-1,53
 898 720 898 720 909 716 c 0,54,55
 1157 633 1157 633 1157 390 c 0,0,1
1117 1074 m 0,56,57
 1117 1305 1117 1305 778 1305 c 0,58,59
 728 1305 728 1305 707 1230 c 2,60,-1
 583 795 l 2,61,62
 581 785 581 785 581 783 c 0,63,64
 581 753 581 753 676 753 c 0,65,66
 875 753 875 753 996 845.5 c 128,-1,67
 1117 938 1117 938 1117 1074 c 0,56,57
1005 422 m 256,68,69
 1005 556 1005 556 913 625.5 c 128,-1,70
 821 695 821 695 663 695 c 256,71,72
 553 695 553 695 536 636 c 2,73,-1
 434 277 l 2,74,75
 413 205 413 205 413 167 c 0,76,77
 413 57 413 57 554 57 c 0,78,79
 760 57 760 57 882.5 151.5 c 128,-1,80
 1005 246 1005 246 1005 422 c 256,68,69
EndSplineSet
EndChar

StartChar: uni0182
Encoding: 386 386 1009
Width: 1217
Flags: W
AnchorPoint: "above" 846 1415 basechar 0
LayerCount: 2
Fore
SplineSet
1157 390 m 0,0,1
 1157 228 1157 228 1021 110.5 c 128,-1,2
 885 -7 885 -7 550 -7 c 0,3,-1
 284 0 l 1,4,5
 148 0 148 0 29 -7 c 1,6,7
 21 -7 21 -7 21 13 c 128,-1,8
 21 33 21 33 32 51 c 128,-1,9
 43 69 43 69 49 69 c 0,10,11
 155 69 155 69 199.5 92.5 c 128,-1,12
 244 116 244 116 264 186 c 2,13,-1
 547 1172 l 2,14,15
 552 1189 552 1189 552 1209 c 0,16,17
 552 1256 552 1256 510 1269 c 128,-1,18
 468 1282 468 1282 390 1282 c 0,19,20
 382 1282 382 1282 382 1303 c 128,-1,21
 382 1324 382 1324 393 1341 c 128,-1,22
 404 1358 404 1358 410 1358 c 1,23,24
 570 1354 570 1354 652 1354 c 0,25,26
 854 1354 854 1354 987 1356 c 128,-1,27
 1120 1358 1120 1358 1267 1358 c 1,28,29
 1339 1358 1339 1358 1339 1338 c 2,30,-1
 1249 1029 l 2,31,32
 1245 1015 1245 1015 1205.5 1015 c 128,-1,33
 1166 1015 1166 1015 1169 1029 c 0,34,35
 1184 1099 1184 1099 1184 1127 c 0,36,37
 1184 1286 1184 1286 988 1295 c 2,38,-1
 778 1304 l 2,39,40
 729 1306 729 1306 707 1230 c 2,41,-1
 583 795 l 2,42,43
 581 788 581 788 581 783 c 0,44,45
 581 753 581 753 676 753 c 0,46,47
 798 753 798 753 913 714.5 c 144,-1,48
 1028 676 1028 676 1092.5 595 c 128,-1,49
 1157 514 1157 514 1157 390 c 0,0,1
1005 422 m 256,50,51
 1005 556 1005 556 913 625.5 c 128,-1,52
 821 695 821 695 663 695 c 256,53,54
 553 695 553 695 536 636 c 2,55,-1
 434 277 l 2,56,57
 413 205 413 205 413 167 c 0,58,59
 413 57 413 57 554 57 c 0,60,61
 760 57 760 57 882.5 151.5 c 128,-1,62
 1005 246 1005 246 1005 422 c 256,50,51
EndSplineSet
EndChar

StartChar: uni0183
Encoding: 387 387 1010
Width: 852
Flags: W
AnchorPoint: "above" 630 1545 basechar 0
LayerCount: 2
Fore
SplineSet
850 659 m 0,0,1
 850 406 850 406 670 189.5 c 128,-1,2
 490 -27 490 -27 242 -27 c 0,3,4
 97 -27 97 -27 97 133 c 0,5,6
 97 173 97 173 109 225 c 2,7,-1
 364 1322 l 2,8,9
 369 1344 369 1344 388 1344 c 2,10,-1
 572 1344 l 2,11,12
 681 1344 681 1344 787 1346.5 c 128,-1,13
 893 1349 893 1349 954 1349 c 0,14,15
 1017 1349 1017 1349 1014 1333 c 2,16,-1
 954 1051 l 2,17,18
 951 1036 951 1036 918 1036 c 128,-1,19
 885 1036 885 1036 888 1051 c 0,20,21
 934 1267 934 1267 714 1276 c 2,22,-1
 510 1284 l 2,23,24
 476 1285 476 1285 467 1249 c 2,25,-1
 317 598 l 1,26,-1
 338 592 l 1,27,28
 536 852 536 852 684 852 c 0,29,30
 850 852 850 852 850 659 c 0,0,1
707 602 m 0,31,32
 707 754 707 754 623 754 c 0,33,34
 527 754 527 754 409.5 594 c 128,-1,35
 292 434 292 434 259.5 331.5 c 128,-1,36
 227 229 227 229 227 163 c 0,37,38
 227 45 227 45 326 45 c 0,39,40
 468 45 468 45 587.5 242.5 c 128,-1,41
 707 440 707 440 707 602 c 0,31,32
EndSplineSet
EndChar

StartChar: uni0184
Encoding: 388 388 1011
Width: 1217
Flags: W
AnchorPoint: "above" 846 1415 basechar 0
LayerCount: 2
Fore
SplineSet
1157 390 m 0,0,1
 1157 228 1157 228 1021 110.5 c 128,-1,2
 885 -7 885 -7 550 -7 c 0,3,-1
 284 0 l 1,4,5
 148 0 148 0 29 -7 c 1,6,7
 21 -7 21 -7 21 13 c 128,-1,8
 21 33 21 33 32 51 c 128,-1,9
 43 69 43 69 49 69 c 0,10,11
 155 69 155 69 199.5 92.5 c 128,-1,12
 244 116 244 116 264 186 c 2,13,-1
 497 997 l 2,14,15
 505 1024 505 1024 505 1046 c 0,16,17
 506 1134 506 1134 360 1134 c 0,18,19
 352 1134 352 1134 352 1155 c 128,-1,20
 352 1176 352 1176 363 1193 c 128,-1,21
 374 1210 374 1210 380 1210 c 0,22,23
 490 1210 490 1210 662 1270 c 0,24,25
 688 1279 688 1279 706 1279 c 128,-1,26
 724 1279 724 1279 724 1260 c 0,27,28
 724 1254 724 1254 714 1224 c 2,29,30
 669 1095 669 1095 649 1026 c 10,31,-1
 583 795 l 2,32,33
 581 788 581 788 581 783 c 0,34,35
 581 753 581 753 676 753 c 0,36,37
 798 753 798 753 913 714.5 c 144,-1,38
 1028 676 1028 676 1092.5 595 c 128,-1,39
 1157 514 1157 514 1157 390 c 0,0,1
1005 422 m 256,40,41
 1005 556 1005 556 913 625.5 c 128,-1,42
 821 695 821 695 663 695 c 256,43,44
 553 695 553 695 536 636 c 2,45,-1
 434 277 l 2,46,47
 413 205 413 205 413 167 c 0,48,49
 413 57 413 57 554 57 c 0,50,51
 760 57 760 57 882.5 151.5 c 128,-1,52
 1005 246 1005 246 1005 422 c 256,40,41
EndSplineSet
EndChar

StartChar: uni0188
Encoding: 392 392 1030
Width: 674
Flags: W
LayerCount: 2
Fore
SplineSet
584 113 m 0,0,1
 444 -27 444 -27 301 -27 c 0,2,3
 209 -27 209 -27 153.5 52.5 c 128,-1,4
 98 132 98 132 98 256 c 0,5,6
 98 459 98 459 241.5 655.5 c 128,-1,7
 385 852 385 852 557 852 c 0,8,9
 600 852 600 852 637 838 c 1,10,11
 671 907 671 907 710.5 954 c 128,-1,12
 750 1001 750 1001 801.5 1030.5 c 128,-1,13
 853 1060 853 1060 942 1060 c 0,14,15
 978 1060 978 1060 1000 1035.5 c 128,-1,16
 1022 1011 1022 1011 1017.5 983 c 128,-1,17
 1013 955 1013 955 990.5 941 c 128,-1,18
 968 927 968 927 945 927 c 0,19,20
 908 927 908 927 880 958.5 c 128,-1,21
 852 990 852 990 834 990 c 0,22,23
 764 990 764 990 726 774 c 2,24,-1
 720 742 l 2,25,26
 716 718 716 718 696 700 c 0,27,28
 671 677 671 677 645 677 c 0,29,30
 618 677 618 677 608 696 c 1,31,32
 599 753 599 753 593 762 c 0,33,34
 573 788 573 788 504 788 c 0,35,36
 414 788 414 788 324 626.5 c 128,-1,37
 234 465 234 465 233 324 c 0,38,39
 233 203 233 203 270.5 133 c 128,-1,40
 308 63 308 63 369 63 c 0,41,42
 432 63 432 63 470 84.5 c 128,-1,43
 508 106 508 106 551 145 c 0,44,45
 556 149 556 149 569 145.5 c 128,-1,46
 582 142 582 142 585.5 130.5 c 128,-1,47
 589 119 589 119 584 113 c 0,0,1
EndSplineSet
EndChar

StartChar: uni018D
Encoding: 397 397 2329
Width: 838
Flags: W
LayerCount: 2
Fore
SplineSet
819 568.55 m 0,0,1
 819 376.85 819 376.85 683.604 220.17 c 128,-1,2
 548.208 63.4896 548.208 63.4896 340.843 59.2073 c 1,3,4
 361.734 38.7583 361.734 38.7583 385.679 16.709 c 0,5,6
 425.914 -20.3402 425.914 -20.3402 450.543 -61.6335 c 128,-1,7
 475.172 -102.927 475.172 -102.927 475.172 -154.819 c 3,8,9
 475.172 -237.865 475.172 -237.865 401.851 -307.392 c 128,-1,10
 328.53 -376.92 328.53 -376.92 205.861 -376.92 c 3,11,12
 159.736 -376.92 159.736 -376.92 116.896 -345.676 c 128,-1,13
 74.056 -314.431 74.056 -314.431 74.056 -262.819 c 3,14,15
 73.9904 -232.927 73.9904 -232.927 86.2903 -213.676 c 128,-1,16
 98.5903 -194.425 98.5903 -194.425 135.194 -194.425 c 3,17,18
 191.449 -194.425 191.449 -194.425 219.895 -240.479 c 128,-1,19
 248.341 -286.532 248.341 -286.532 301.194 -286.532 c 3,20,21
 342.528 -286.532 342.528 -286.532 361.489 -252.342 c 128,-1,22
 380.451 -218.152 380.451 -218.152 380.451 -158.4 c 3,23,24
 380.451 -78 380.451 -78 297.572 -6.72667 c 128,-1,25
 214.693 64.5467 214.693 64.5467 155.346 141.54 c 128,-1,26
 96 218.533 96 218.533 96 359.75 c 3,27,28
 96 535.25 96 535.25 247 693.65 c 128,-1,29
 398 852.05 398 852.05 578 852.05 c 3,30,31
 698 852.05 698 852.05 758.5 775.55 c 128,-1,32
 819 699.05 819 699.05 819 568.55 c 0,0,1
707 614.45 m 0,33,34
 707 768.45 707 768.45 578 768.45 c 3,35,36
 461 768.45 461 768.45 337 601.075 c 128,-1,37
 213 433.699 213 433.699 213 293.149 c 3,38,39
 213 203.246 213 203.246 259 147.123 c 0,40,41
 271.201 132.237 271.201 132.237 285.842 116.073 c 1,42,43
 459.495 158.932 459.495 158.932 583.247 320.541 c 128,-1,44
 707 482.15 707 482.15 707 614.45 c 0,33,34
EndSplineSet
EndChar

StartChar: uni018E
Encoding: 398 398 1033
Width: 1384
Flags: W
LayerCount: 2
Fore
SplineSet
1040 177 m 2,0,1
 1013 82 1013 82 1196 69 c 0,2,3
 1210 68 1210 68 1199 30.5 c 128,-1,4
 1188 -7 1188 -7 1174 -7 c 1,5,6
 1031 0 1031 0 910 0 c 128,-1,7
 789 0 789 0 548 -3.5 c 128,-1,8
 307 -7 307 -7 191 -7 c 0,9,10
 162 -7 162 -7 141 -4 c 0,11,12
 125 -2 125 -2 125 11 c 0,13,14
 125 16 125 16 127 23 c 2,15,-1
 218 340 l 2,16,17
 223 357 223 357 260.5 357 c 128,-1,18
 298 357 298 357 293 340 c 0,19,20
 218 77 218 77 474 69 c 2,21,-1
 707 62 l 2,22,23
 758 60 758 60 807 94 c 0,24,25
 888 149 888 149 920 262 c 2,26,-1
 1010 576 l 2,27,28
 1019 607 1019 607 994 607 c 2,29,-1
 785 607 l 18,30,31
 707 607 707 607 680 581 c 128,-1,32
 653 555 653 555 641 512 c 10,33,-1
 617 430 l 2,34,35
 613 416 613 416 578.5 416.5 c 128,-1,36
 544 417 544 417 547 430 c 1,37,38
 578 510 578 510 619 653 c 128,-1,39
 660 796 660 796 673 867 c 1,40,41
 677 881 677 881 711.5 880.5 c 128,-1,42
 746 880 746 880 743 867 c 2,43,-1
 722 793 l 2,44,45
 705 734 705 734 716 705 c 128,-1,46
 727 676 727 676 805 676 c 2,47,-1
 1011 676 l 2,48,49
 1039 676 1039 676 1048 709 c 2,50,-1
 1201 1241 l 2,51,52
 1215 1290 1215 1290 1174 1289 c 2,53,-1
 888 1282 l 2,54,55
 628 1276 628 1276 552 1010 c 0,56,57
 547 993 547 993 509.5 993 c 128,-1,58
 472 993 472 993 477 1010 c 2,59,-1
 569 1331 l 2,60,61
 573 1344 573 1344 585.5 1351 c 128,-1,62
 598 1358 598 1358 649 1358 c 256,63,64
 741 1358 741 1358 960 1355 c 128,-1,65
 1179 1352 1179 1352 1301.5 1352 c 128,-1,66
 1424 1352 1424 1352 1566 1358 c 1,67,68
 1574 1358 1574 1358 1573 1346 c 0,69,70
 1573 1337 1573 1337 1569 1320 c 0,71,72
 1558 1282 1558 1282 1544 1282 c 0,73,74
 1357 1282 1357 1282 1325 1172 c 2,75,-1
 1040 177 l 2,0,1
EndSplineSet
EndChar

StartChar: uni0193
Encoding: 403 403 1025
Width: 1476
Flags: W
AnchorPoint: "above" 1152 1415 basechar 0
LayerCount: 2
Fore
SplineSet
1449 1076 m 24,0,1
 1449 1314 1449 1314 1103 1314 c 0,2,3
 804 1314 804 1314 592 1046.5 c 128,-1,4
 380 779 380 779 380 475 c 0,5,6
 380 302 380 302 483.5 175 c 0,7,8
 588 48 588 48 780 48 c 0,9,10
 1086 48 1086 48 1120 173 c 2,11,-1
 1173 363 l 2,12,13
 1182 395 1182 395 1182 412 c 0,14,15
 1182 454 1182 454 1139 466 c 128,-1,16
 1096 478 1096 478 978 478 c 0,17,18
 971 478 971 478 971 498.5 c 128,-1,19
 971 519 971 519 982.5 536.5 c 128,-1,20
 994 554 994 554 1001 554 c 1,21,22
 1076 549 1076 549 1261 549 c 128,-1,23
 1446 549 1446 549 1507 554 c 1,24,25
 1515 554 1515 554 1515 534.5 c 128,-1,26
 1515 515 1515 515 1503 496.5 c 128,-1,27
 1491 478 1491 478 1484 478 c 0,28,29
 1390 478 1390 478 1360 456.5 c 128,-1,30
 1330 435 1330 435 1310 363 c 2,31,-1
 1245 133 l 2,32,33
 1239 112 1239 112 1239 96.5 c 128,-1,34
 1239 81 1239 81 1256.5 78 c 128,-1,35
 1274 75 1274 75 1274 63 c 0,36,37
 1274 31 1274 31 1252 31 c 0,38,39
 1215 31 1215 31 1075 11 c 128,-1,40
 935 -9 935 -9 870 -18 c 128,-1,41
 805 -27 805 -27 721 -27 c 0,42,43
 500 -27 500 -27 358.5 103.5 c 128,-1,44
 217 234 217 234 217 454 c 0,45,46
 217 796 217 796 503.5 1090.5 c 128,-1,47
 790 1385 790 1385 1130 1385 c 0,48,49
 1300 1386 1300 1386 1428 1356 c 2,50,-1
 1471 1346 l 1,51,52
 1521 1435 1521 1435 1556 1467.5 c 128,-1,53
 1591 1500 1591 1500 1653 1538 c 128,-1,54
 1715 1576 1715 1576 1796 1576 c 0,55,56
 1843 1576 1843 1576 1870 1552 c 128,-1,57
 1897 1528 1897 1528 1897 1500 c 0,58,59
 1897 1468 1897 1468 1871 1444.5 c 128,-1,60
 1845 1421 1845 1421 1810 1421 c 0,61,62
 1767 1421 1767 1421 1735.5 1457.5 c 128,-1,63
 1704 1494 1704 1494 1681 1494 c 0,64,65
 1633 1494 1633 1494 1606 1454.5 c 128,-1,66
 1579 1415 1579 1415 1559 1338 c 128,-1,67
 1539 1261 1539 1261 1527.5 1155 c 128,-1,68
 1516 1049 1516 1049 1512 1019 c 1,69,70
 1506 1001 1506 1001 1475 1001 c 128,-1,71
 1444 1001 1444 1001 1444 1014 c 1,72,73
 1449 1054 1449 1054 1449 1076 c 24,0,1
EndSplineSet
EndChar

StartChar: uni0194
Encoding: 404 404 2325
Width: 994
Flags: W
LayerCount: 2
Fore
SplineSet
526.604 459 m 1,0,1
 455.447 367.3 455.447 367.3 428.885 302.052 c 128,-1,2
 402.322 236.803 402.322 236.803 402.322 171.32 c 259,3,4
 402.322 147.116 402.322 147.116 419.66 109.058 c 128,-1,5
 436.998 71 436.998 71 482.048 71 c 259,6,7
 538.529 71 538.529 71 565.389 115.483 c 128,-1,8
 592.249 159.967 592.249 159.967 592.249 223.301 c 259,9,10
 592.249 243.652 592.249 243.652 587.174 272.326 c 128,-1,11
 582.1 301 582.1 301 526.604 459 c 1,0,1
722.427 268.01 m 259,12,13
 722.427 135.289 722.427 135.289 642.99 60.6445 c 128,-1,14
 563.554 -14 563.554 -14 460.354 -14 c 259,15,16
 389.396 -14 389.396 -14 355.961 39.3984 c 128,-1,17
 322.525 92.7969 322.525 92.7969 322.525 141.391 c 259,18,19
 322.525 253.368 322.525 253.368 371.383 332.685 c 128,-1,20
 420.239 412 420.239 412 458.557 464.439 c 128,-1,21
 496.874 516.878 496.874 516.878 496.874 526 c 3,22,23
 496.874 539.837 496.874 539.837 494.395 547 c 2,24,-1
 278.059 1172 l 2,25,26
 238.253 1287 238.253 1287 116.479 1287 c 3,27,28
 108.69 1287 108.69 1287 108.69 1299.44 c 3,29,30
 108.69 1363 108.69 1363 129.037 1363 c 1,31,32
 165.611 1358 165.611 1358 351.611 1358 c 128,-1,33
 537.611 1358 537.611 1358 578.387 1363 c 1,34,35
 591.137 1363 591.137 1363 584.858 1325 c 128,-1,36
 578.58 1287 578.58 1287 565.83 1287 c 3,37,38
 428.702 1287 428.702 1287 428.702 1219.25 c 3,39,40
 428.702 1198.87 428.702 1198.87 437.858 1172 c 2,41,-1
 598.724 700 l 2,42,43
 603.495 686 603.495 686 609.724 686 c 259,44,45
 615.952 686 615.952 686 625.924 700 c 2,46,-1
 955.722 1163 l 2,47,48
 991.014 1212.54 991.014 1212.54 991.014 1241.13 c 3,49,50
 991.014 1287 991.014 1287 882.33 1287 c 3,51,52
 869.58 1287 869.58 1287 875.858 1325 c 128,-1,53
 882.137 1363 882.137 1363 894.887 1363 c 1,54,55
 932.311 1358 932.311 1358 1082.33 1358 c 128,-1,56
 1232.34 1358 1232.34 1358 1271.42 1363 c 1,57,58
 1279.21 1363 1279.21 1363 1279.21 1350.56 c 3,59,60
 1279.21 1287 1279.21 1287 1258.86 1287 c 3,61,62
 1165.76 1287 1165.76 1287 1113.25 1244.14 c 128,-1,63
 1060.74 1201.28 1060.74 1201.28 958.089 1059 c 2,64,-1
 644.981 625 l 2,65,66
 636.406 612.778 636.406 612.778 636.406 601.388 c 259,67,68
 636.406 589.997 636.406 589.997 679.416 461.971 c 128,-1,69
 722.427 333.944 722.427 333.944 722.427 268.01 c 259,12,13
EndSplineSet
EndChar

StartChar: uni0197
Encoding: 407 407 1015
Width: 729
Flags: W
AnchorPoint: "above" 678 1415 basechar 0
LayerCount: 2
Fore
SplineSet
407 186 m 2,0,1
 401 166 401 166 401 152 c 0,2,3
 401 69 401 69 558 69 c 0,4,5
 565 69 565 69 565 47.5 c 128,-1,6
 565 26 565 26 554 9.5 c 128,-1,7
 543 -7 543 -7 536 -7 c 1,8,9
 450 0 450 0 282.5 0 c 128,-1,10
 115 0 115 0 29 -7 c 1,11,12
 21 -7 21 -7 21 13 c 128,-1,13
 21 33 21 33 32 51 c 128,-1,14
 43 69 43 69 49 69 c 0,15,16
 137 68 137 68 189 90 c 0,17,18
 241 111 241 111 262 186 c 2,19,-1
 394 646 l 1,20,-1
 180 646 l 2,21,22
 174 646 174 646 174 665 c 128,-1,23
 174 684 174 684 188 723 c 128,-1,24
 202 762 202 762 213 762 c 2,25,-1
 427 762 l 1,26,-1
 545 1172 l 2,27,28
 550 1194 550 1194 550 1207 c 0,29,30
 550 1287 550 1287 394 1287 c 0,31,32
 386 1287 386 1287 386 1308 c 128,-1,33
 386 1329 386 1329 397 1346 c 128,-1,34
 408 1363 408 1363 414 1363 c 1,35,36
 460 1358 460 1358 669 1358 c 128,-1,37
 878 1358 878 1358 924 1363 c 1,38,39
 932 1363 932 1363 932 1342 c 128,-1,40
 932 1321 932 1321 921 1304 c 128,-1,41
 910 1287 910 1287 904 1287 c 0,42,43
 790 1287 790 1287 748 1259 c 0,44,45
 706 1232 706 1232 689 1172 c 2,46,-1
 572 762 l 1,47,-1
 786 762 l 2,48,49
 792 762 792 762 792 740 c 128,-1,50
 792 718 792 718 777 682 c 128,-1,51
 762 646 762 646 753 646 c 2,52,-1
 539 646 l 1,53,-1
 407 186 l 2,0,1
EndSplineSet
EndChar

StartChar: uni019B
Encoding: 411 411 2326
Width: 877
Flags: W
LayerCount: 2
Fore
SplineSet
801.529 -23 m 3,0,1
 667.529 -23 667.529 -23 646.3 89 c 2,2,-1
 540.043 633 l 2,3,4
 534.457 666 534.457 666 518.957 666 c 128,-1,5
 503.457 666 503.457 666 487.432 635 c 2,6,-1
 145 0 l 2,7,8
 137.084 -15 137.084 -15 62.584 -15 c 128,-1,9
 -11.916 -15 -11.916 -15 -10 0 c 1,10,-1
 456.778 858 l 2,11,12
 479.758 899.985 479.758 899.985 479.758 920 c 3,13,14
 479.758 929.25 479.758 929.25 476.272 948 c 2,15,-1
 463.073 1019 l 1,16,-1
 269.778 858 l 2,17,18
 256.44 846.891 256.44 846.891 231.898 877.387 c 128,-1,19
 207.356 907.882 207.356 907.882 220.636 919 c 2,20,-1
 445.179 1107 l 1,21,-1
 421.477 1232 l 2,22,23
 407.694 1300 407.694 1300 383.693 1318 c 128,-1,24
 359.692 1336 359.692 1336 319.692 1336 c 259,25,26
 292.507 1336 292.507 1336 270.374 1321.4 c 128,-1,27
 248.241 1306.8 248.241 1306.8 217.835 1275 c 0,28,29
 212.045 1268.28 212.045 1268.28 201.856 1277.34 c 128,-1,30
 191.668 1286.4 191.668 1286.4 195.334 1293 c 1,31,32
 226.607 1351 226.607 1351 270.162 1377 c 128,-1,33
 313.716 1403 313.716 1403 343.716 1403 c 259,34,35
 442.716 1403 442.716 1403 482.027 1312 c 0,36,37
 490.945 1291 490.945 1291 495.475 1268 c 2,38,-1
 515.453 1165 l 1,39,-1
 720.887 1337 l 2,40,41
 733.59 1347.64 733.59 1347.64 758.406 1317.32 c 128,-1,42
 783.223 1287 783.223 1287 770.029 1276 c 2,43,-1
 531.348 1077 l 1,44,-1
 710.213 140 l 2,45,46
 719.575 91.4219 719.575 91.4219 747.402 69.2109 c 128,-1,47
 775.229 47 775.229 47 805.136 47 c 3,48,49
 899.136 47 899.136 47 951.688 91 c 0,50,51
 957.66 96 957.66 96 961.66 96 c 131,-1,52
 965.66 96 965.66 96 972.021 88.418 c 128,-1,53
 978.384 80.8359 978.384 80.8359 978.384 74 c 1,54,55
 978.384 72 978.384 72 973.829 66 c 1,56,57
 900.715 -23 900.715 -23 801.529 -23 c 3,0,1
EndSplineSet
EndChar

StartChar: uni019C
Encoding: 412 412 2327
Width: 2012
Flags: W
LayerCount: 2
Fore
SplineSet
1745.81 353 m 2,0,1
 1720.72 258.43 1720.72 258.43 1720.72 210.598 c 3,2,3
 1720.72 150.65 1720.72 150.65 1778.28 143.185 c 128,-1,4
 1835.83 135.721 1835.83 135.721 1872 135.721 c 0,5,6
 1885.9 135.721 1885.9 135.721 1885.11 107.644 c 259,7,8
 1884.33 79.5674 1884.33 79.5674 1866 79.5977 c 0,9,10
 1824.49 79.5976 1824.49 79.5976 1677.19 1 c 0,11,12
 1660.78 -7.75828 1660.78 -7.75828 1639.53 -23 c 0,13,14
 1615.03 -41 1615.03 -41 1603.03 -41 c 0,15,16
 1587.01 -40.9999 1587.01 -40.9999 1593.47 -13 c 2,17,-1
 1619.05 98 l 2,18,19
 1622.94 118 1622.94 118 1609.94 118 c 0,20,21
 1599.94 118 1599.94 118 1591.38 110 c 0,22,23
 1513.65 42.6076 1513.65 42.6076 1426.73 7.80382 c 128,-1,24
 1339.81 -27 1339.81 -27 1245.75 -27 c 256,25,26
 1153.49 -27 1153.49 -27 1088.99 18.0488 c 128,-1,27
 1024.5 63.0976 1024.5 63.0976 994.146 126.337 c 128,-1,28
 963.792 189.577 963.792 189.577 928.531 146 c 0,29,30
 848.247 45.0976 848.247 45.0976 746 9.04879 c 128,-1,31
 643.752 -27 643.752 -27 579.752 -27 c 3,32,33
 440.247 -27 440.247 -27 363.91 45.0488 c 128,-1,34
 287.572 117.098 287.572 117.098 287.572 185 c 3,35,36
 287.572 238.215 287.572 238.215 305.82 307 c 2,37,-1
 536.625 1177 l 2,38,39
 565.807 1287 565.807 1287 389.804 1287 c 3,40,41
 375.686 1287 375.686 1287 385.342 1325.17 c 128,-1,42
 394.999 1363.34 394.999 1363.34 409.967 1363 c 1,43,44
 552 1358 552 1358 666.75 1358 c 256,45,46
 781.5 1358 781.5 1358 904.093 1363 c 1,47,48
 918.211 1363 918.211 1363 908.657 1325 c 128,-1,49
 899.103 1287 899.103 1287 883.931 1287 c 3,50,51
 716.398 1287 716.398 1287 687.216 1177 c 2,52,-1
 447.923 275 l 2,53,54
 392.477 66 392.477 66 630.747 66 c 0,55,56
 719.295 66 719.295 66 826.174 164.192 c 128,-1,57
 933.053 262.384 933.053 262.384 972.215 410 c 2,58,-1
 1174.9 1174 l 2,59,60
 1204.88 1287 1204.88 1287 1027.93 1287 c 0,61,62
 1013.81 1287 1013.81 1287 1023.9 1325 c 128,-1,63
 1033.98 1363 1033.98 1363 1048.1 1363 c 1,64,65
 1159.5 1358 1159.5 1358 1300.5 1358 c 256,66,67
 1441.5 1358 1441.5 1358 1543.16 1363 c 1,68,69
 1557.28 1363 1557.28 1363 1547.73 1325 c 128,-1,70
 1538.18 1287 1538.18 1287 1523 1287 c 0,71,72
 1355.47 1287 1355.47 1287 1325.49 1174 c 2,73,-1
 1107.68 353 l 2,74,75
 1067.33 200.878 1067.33 200.878 1143.41 133.439 c 128,-1,76
 1219.5 66 1219.5 66 1285.5 66 c 3,77,78
 1374 66 1374 66 1458.56 111.298 c 128,-1,79
 1543.12 156.597 1543.12 156.597 1582.49 305 c 2,80,-1
 1813.03 1174 l 2,81,82
 1843.01 1287 1843.01 1287 1666.06 1287 c 3,83,84
 1652.09 1287 1652.09 1287 1662.23 1325.49 c 128,-1,85
 1672.37 1363.99 1672.37 1363.99 1686.22 1363 c 1,86,87
 1774.5 1358 1774.5 1358 1942.78 1358 c 256,88,89
 2080.5 1358 2080.5 1358 2178.47 1363 c 1,90,91
 2189.09 1363 2189.09 1363 2189.09 1347.6 c 3,92,93
 2189.09 1338.81 2189.09 1338.81 2185.33 1325 c 0,94,95
 2175.25 1287 2175.25 1287 2158.3 1287 c 3,96,97
 2066.07 1287 2066.07 1287 2026.08 1264 c 0,98,99
 1980.33 1237 1980.33 1237 1963.62 1174 c 2,100,-1
 1745.81 353 l 2,0,1
EndSplineSet
EndChar

StartChar: uni019F
Encoding: 415 415 1019
Width: 1478
Flags: W
AnchorPoint: "above" 1094 1415 basechar 0
LayerCount: 2
Fore
SplineSet
1371 906 m 0,0,1
 1371 1078 1371 1078 1274.5 1195.5 c 128,-1,2
 1178 1313 1178 1313 1031 1314 c 0,3,4
 874 1314 874 1314 716.5 1181 c 128,-1,5
 559 1048 559 1048 470 853 c 0,6,7
 443 794 443 794 424 735 c 1,8,-1
 1353 735 l 1,9,10
 1371 823 1371 823 1371 906 c 0,0,1
1534 886 m 0,11,12
 1534 536 1534 536 1259 254.5 c 128,-1,13
 984 -27 984 -27 672 -27 c 0,14,15
 495 -27 495 -27 356 85 c 128,-1,16
 217 197 217 197 217 441 c 0,17,18
 217 802 217 802 493.5 1093.5 c 128,-1,19
 770 1385 770 1385 1079 1385 c 0,20,21
 1298 1385 1298 1385 1416 1240.5 c 128,-1,22
 1534 1096 1534 1096 1534 886 c 0,11,12
1324 620 m 1,23,-1
 395 620 l 1,24,25
 380 538 380 538 380 456 c 0,26,27
 380 276 380 276 480.5 161 c 128,-1,28
 581 46 581 46 707 46 c 0,29,30
 918 46 918 46 1068.5 194 c 128,-1,31
 1219 342 1219 342 1295 538 c 0,32,33
 1311 580 1311 580 1324 620 c 1,23,-1
EndSplineSet
EndChar

StartChar: ohorn
Encoding: 417 417 1021
Width: 838
Flags: W
AnchorPoint: "above" 600 900 basechar 0
LayerCount: 2
Fore
SplineSet
707 588 m 0,0,1
 707 768 707 768 578 768 c 0,2,3
 461 768 461 768 337 577.5 c 128,-1,4
 213 387 213 387 213 231 c 0,5,6
 213 68 213 68 346 68 c 0,7,8
 455 68 455 68 581 254.5 c 128,-1,9
 707 441 707 441 707 588 c 0,0,1
819 537 m 0,10,11
 819 324 819 324 682 148.5 c 128,-1,12
 545 -27 545 -27 338 -27 c 0,13,14
 215 -27 215 -27 155.5 64.5 c 128,-1,15
 96 156 96 156 96 305 c 0,16,17
 96 500 96 500 247 676 c 128,-1,18
 398 852 398 852 578 852 c 0,19,20
 698 852 698 852 758 767 c 0,21,22
 774 745 774 745 786 718 c 1,23,-1
 815 717 l 2,24,25
 940 717 940 717 956.5 730 c 128,-1,26
 973 743 973 743 976 764 c 0,27,28
 981 798 981 798 937 798 c 0,29,30
 887 798 887 798 887 841 c 0,31,32
 887 880 887 880 909.5 894 c 128,-1,33
 932 908 932 908 990 908 c 0,34,35
 1033 908 1033 908 1042 888.5 c 128,-1,36
 1051 869 1051 869 1051 847 c 0,37,38
 1051 786 1051 786 1023 725 c 0,39,40
 994 664 994 664 876 664 c 2,41,-1
 805 664 l 1,42,43
 819 608 819 608 819 537 c 0,10,11
EndSplineSet
EndChar

StartChar: uni01A3
Encoding: 419 419 2311
Width: 1143
Flags: W
LayerCount: 2
Fore
SplineSet
707 588 m 3,0,1
 707 768 707 768 578 768 c 3,2,3
 461 768 461 768 337 577.5 c 128,-1,4
 213 387 213 387 213 231 c 3,5,6
 213 68 213 68 346 68 c 0,7,8
 455 68 455 68 581 254.5 c 128,-1,9
 707 441 707 441 707 588 c 3,0,1
819 537 m 3,10,11
 819 324 819 324 682 148.5 c 128,-1,12
 545 -27 545 -27 338 -27 c 0,13,14
 215 -27 215 -27 155.5 64.5 c 128,-1,15
 96 156 96 156 96 305 c 3,16,17
 96 500 96 500 247 676 c 128,-1,18
 398 852 398 852 578 852 c 3,19,20
 664 852 664 852 719 808 c 1,21,22
 741.1 824.92 741.1 824.92 780.7 838.46 c 128,-1,23
 820.3 852 820.3 852 880 852 c 3,24,25
 965 852 965 852 1018.5 820 c 128,-1,26
 1072 788 1072 788 1090.5 743.5 c 128,-1,27
 1109 699 1109 699 1109 661 c 3,28,29
 1109 632 1109 632 1097 587 c 2,30,-1
 935 -13 l 2,31,32
 924 -54 924 -54 924 -74 c 3,33,34
 924 -114 924 -114 952.5 -114 c 259,35,36
 981 -114 981 -114 1084 -21 c 0,37,38
 1093 -13 1093 -13 1111 -30 c 0,39,40
 1125 -43 1125 -43 1125 -52 c 0,41,42
 1125 -55 1125 -55 1123 -58 c 0,43,44
 1103 -93 1103 -93 1005.5 -168 c 128,-1,45
 908 -243 908 -243 837 -243 c 3,46,47
 783 -243 783 -243 783 -156 c 3,48,49
 783 -120 783 -120 794 -79 c 2,50,-1
 974 588 l 2,51,52
 984 626 984 626 984 658 c 3,53,54
 984 715 984 715 951.5 751 c 128,-1,55
 919 787 919 787 860 787 c 3,56,57
 829.498 787 829.498 787 805.499 777.76 c 128,-1,58
 781.5 768.52 781.5 768.52 766 756 c 1,59,60
 819 673 819 673 819 537 c 3,10,11
EndSplineSet
EndChar

StartChar: uni01A5
Encoding: 421 421 1028
Width: 877
Flags: W
LayerCount: 2
Fore
SplineSet
864 510 m 0,0,1
 864 307 864 307 697 140 c 128,-1,2
 530 -27 530 -27 332 -27 c 0,3,4
 296 -27 296 -27 248 -14 c 1,5,-1
 154 -420 l 2,6,7
 150 -437 150 -437 150 -448 c 0,8,9
 150 -504 150 -504 274 -504 c 0,10,11
 283 -504 283 -504 283 -516 c 256,12,13
 283 -528 283 -528 276 -543.5 c 128,-1,14
 269 -559 269 -559 256 -559 c 1,15,16
 166 -551 166 -551 62.5 -551 c 128,-1,17
 -41 -551 -41 -551 -131 -559 c 1,18,19
 -140 -559 -140 -559 -140 -546 c 256,20,21
 -140 -534 -140 -534 -133 -519 c 128,-1,22
 -126 -504 -126 -504 -113 -504 c 0,23,24
 13 -504 13 -504 31 -428 c 2,25,-1
 297 705 l 1,26,27
 198 654 198 654 150 606 c 0,28,29
 147 603 147 603 141 603 c 0,30,31
 126 603 126 603 112 616 c 128,-1,32
 98 629 98 629 98 640 c 0,33,34
 98 645 98 645 102 649 c 0,35,36
 190 737 190 737 317 795 c 1,37,-1
 326 842 l 2,38,39
 398 1216 398 1216 508.5 1340 c 128,-1,40
 619 1464 619 1464 804 1464 c 0,41,42
 892 1464 892 1464 942.5 1416.5 c 128,-1,43
 993 1369 993 1369 993 1298 c 0,44,45
 993 1202 993 1202 927 1202 c 0,46,47
 893 1202 893 1202 872.5 1224.5 c 128,-1,48
 852 1247 852 1247 852 1274 c 0,49,50
 852 1395 852 1395 747 1395 c 0,51,52
 637 1395 637 1395 582.5 1294 c 128,-1,53
 528 1193 528 1193 447 842 c 2,54,-1
 444 829 l 1,55,56
 482 842 482 842 563 842 c 0,57,58
 695 842 695 842 779.5 752 c 128,-1,59
 864 662 864 662 864 510 c 0,0,1
725 477 m 0,60,61
 725 595 725 595 665 675.5 c 128,-1,62
 605 756 605 756 516 756 c 0,63,64
 469 756 469 756 424 743 c 1,65,-1
 276 117 l 2,66,67
 274 103 274 103 274 98 c 0,68,69
 274 39 274 39 350 39 c 0,70,71
 496 39 496 39 610.5 174 c 128,-1,72
 725 309 725 309 725 477 c 0,60,61
EndSplineSet
EndChar

StartChar: uni01A6
Encoding: 422 422 322
Width: 1358
GlyphClass: 2
Flags: W
LayerCount: 2
Fore
SplineSet
1361 1083 m 0,0,1
 1361 924 1361 924 1239.5 797 c 128,-1,2
 1118 670 1118 670 930 625 c 0,3,4
 912 620 912 620 912 604.5 c 128,-1,5
 912 589 912 589 917 573 c 0,6,7
 1000 302 1000 302 1146 120 c 0,8,9
 1232 15 1232 15 1343 15 c 0,10,11
 1352 15 1352 15 1352 5 c 0,12,13
 1352 -21 1352 -21 1331 -21 c 0,14,15
 1290 -24 1290 -24 1253 -24 c 0,16,17
 1044 -24 1044 -24 962.5 77.5 c 128,-1,18
 881 179 881 179 856 245 c 10,19,-1
 764 487 l 2,20,21
 725 568 725 568 706 582 c 128,-1,22
 687 596 687 596 642.5 596 c 128,-1,23
 598 596 598 596 552 602 c 0,24,25
 527 602 527 602 521 583 c 2,26,-1
 409 186 l 2,27,28
 402 164 402 164 402 143 c 0,29,30
 402 69 402 69 563 69 c 0,31,32
 571 69 571 69 571 48 c 128,-1,33
 571 27 571 27 560 10 c 128,-1,34
 549 -7 549 -7 543 -7 c 1,35,36
 456 0 456 0 285.5 0 c 128,-1,37
 115 0 115 0 29 -7 c 1,38,39
 21 -7 21 -7 21 13 c 128,-1,40
 21 33 21 33 32 51 c 128,-1,41
 43 69 43 69 49 69 c 0,42,43
 148 69 148 69 196.5 94.5 c 128,-1,44
 245 120 245 120 264 186 c 2,45,-1
 620 1431 l 2,46,47
 626 1449 626 1449 626 1465 c 0,48,49
 626 1545 626 1545 469 1545 c 0,50,51
 462 1545 462 1545 462 1566 c 128,-1,52
 462 1587 462 1587 473 1604 c 128,-1,53
 484 1621 484 1621 490 1621 c 1,54,55
 536 1616 536 1616 745 1616 c 128,-1,56
 954 1616 954 1616 1000 1621 c 1,57,58
 1007 1621 1007 1621 1007 1600 c 128,-1,59
 1007 1579 1007 1579 996 1562 c 128,-1,60
 985 1545 985 1545 979 1545 c 0,61,62
 862 1545 862 1545 815.5 1512 c 128,-1,63
 769 1479 769 1479 743 1356 c 1,64,65
 853 1358 853 1358 955 1358 c 0,66,67
 1149 1358 1149 1358 1255 1285 c 128,-1,68
 1361 1212 1361 1212 1361 1083 c 0,0,1
1199 1066 m 0,69,70
 1199 1185 1199 1185 1103 1240.5 c 128,-1,71
 1007 1296 1007 1296 869 1296 c 256,72,73
 768 1296 768 1296 744 1288 c 0,74,75
 720 1280 720 1280 716 1265 c 2,76,-1
 557 708 l 2,77,78
 553 695 553 695 553 684.5 c 128,-1,79
 553 674 553 674 571 671 c 0,80,81
 641 658 641 658 687 658 c 256,82,83
 897 658 897 658 1048 767 c 128,-1,84
 1199 876 1199 876 1199 1066 c 0,69,70
EndSplineSet
Comment: "last+AD0A-84" 
Colour: ffffff
EndChar

StartChar: uni01A7
Encoding: 423 423 1034
Width: 1040
Flags: W
LayerCount: 2
Fore
SplineSet
876 374 m 0,0,1
 879 383 879 383 910.5 383 c 128,-1,2
 942 383 942 383 941 365 c 0,3,4
 941 357 941 357 937 346 c 0,5,6
 907 243 907 243 809 73 c 1,7,8
 676 16 676 16 607.5 -5.5 c 128,-1,9
 539 -27 539 -27 404 -27 c 256,10,11
 304 -27 304 -27 244 7 c 128,-1,12
 184 41 184 41 148 101.5 c 128,-1,13
 112 162 112 162 112 238 c 256,14,15
 112 310 112 310 144 423.5 c 128,-1,16
 176 537 176 537 266 621.5 c 128,-1,17
 356 706 356 706 450 742.5 c 128,-1,18
 544 779 544 779 710 828.5 c 128,-1,19
 876 878 876 878 944.5 974.5 c 128,-1,20
 1013 1071 1013 1071 1013 1163 c 256,21,22
 1013 1224 1013 1224 974.5 1271 c 128,-1,23
 936 1318 936 1318 836 1318 c 256,24,25
 712 1318 712 1318 619 1251.5 c 128,-1,26
 526 1185 526 1185 474 1077 c 0,27,28
 468 1064 468 1064 435 1064 c 128,-1,29
 402 1064 402 1064 408 1087 c 1,30,31
 466 1247 466 1247 521 1345 c 1,32,-1
 544 1346 l 1,33,34
 570 1349 570 1349 651.5 1367 c 128,-1,35
 733 1385 733 1385 838 1385 c 256,36,37
 1016 1385 1016 1385 1079 1297 c 128,-1,38
 1142 1209 1142 1209 1143 1132 c 256,39,40
 1143 1093 1143 1093 1103.5 976.5 c 128,-1,41
 1064 860 1064 860 949 769 c 128,-1,42
 834 678 834 678 634 615 c 128,-1,43
 434 552 434 552 353 467 c 128,-1,44
 272 382 272 382 251.5 315.5 c 128,-1,45
 231 249 231 249 231 199 c 256,46,47
 231 149 231 149 277.5 98.5 c 128,-1,48
 324 48 324 48 397 48 c 256,49,50
 571 48 571 48 699.5 145.5 c 128,-1,51
 828 243 828 243 876 374 c 0,0,1
EndSplineSet
EndChar

StartChar: uni01A8
Encoding: 424 424 1035
Width: 485
Flags: W
LayerCount: 2
Fore
SplineSet
470 686 m 256,0,1
 470 622 470 622 429.5 542.5 c 128,-1,2
 389 463 389 463 271 351.5 c 128,-1,3
 153 240 153 240 135.5 188 c 128,-1,4
 118 136 118 136 118 109 c 256,5,6
 118 55 118 55 175 55 c 256,7,8
 232 55 232 55 276.5 108.5 c 128,-1,9
 321 162 321 162 387 162 c 256,10,11
 413 162 413 162 420 140 c 128,-1,12
 427 118 427 118 414.5 81 c 128,-1,13
 402 44 402 44 349.5 8.5 c 128,-1,14
 297 -27 297 -27 243 -27 c 256,15,16
 180 -27 180 -27 136.5 -6.5 c 128,-1,17
 93 14 93 14 60 54.5 c 128,-1,18
 27 95 27 95 27 144 c 256,19,20
 27 193 27 193 41 235.5 c 128,-1,21
 55 278 55 278 97 335 c 128,-1,22
 139 392 139 392 220.5 471 c 128,-1,23
 302 550 302 550 339 599.5 c 128,-1,24
 376 649 376 649 384 673 c 128,-1,25
 392 697 392 697 392 716 c 256,26,27
 392 788 392 788 343 788 c 256,28,29
 281 788 281 788 242 730 c 128,-1,30
 203 672 203 672 151 672 c 0,31,32
 133 672 133 672 120 690 c 128,-1,33
 107 708 107 708 118 740 c 128,-1,34
 129 772 129 772 182 812 c 128,-1,35
 235 852 235 852 287 852 c 256,36,37
 348 852 348 852 389 833 c 128,-1,38
 430 814 430 814 450 774 c 128,-1,39
 470 734 470 734 470 686 c 256,0,1
EndSplineSet
EndChar

StartChar: uni01B1
Encoding: 433 433 1038
Width: 1461
Flags: W
LayerCount: 2
Fore
SplineSet
1195 1240 m 1,0,-1
 1208 1298 l 2,1,2
 1221 1358 1221 1358 1280 1358 c 0,3,4
 1459 1363 1459 1363 1504 1363 c 0,5,6
 1511 1363 1511 1363 1511 1352.5 c 128,-1,7
 1511 1342 1511 1342 1503.5 1314.5 c 128,-1,8
 1496 1287 1496 1287 1484 1287 c 0,9,10
 1406 1287 1406 1287 1361 1265 c 1,11,-1
 1389 1232 l 1,12,13
 1498 1088 1498 1088 1497 894 c 256,14,15
 1497 534 1497 534 1225.5 253.5 c 128,-1,16
 954 -27 954 -27 660 -27 c 0,17,18
 530 -27 530 -27 420 35.5 c 128,-1,19
 310 98 310 98 262.5 213 c 128,-1,20
 215 328 215 328 215 466 c 256,21,22
 215 553 215 553 245.5 680.5 c 128,-1,23
 276 808 276 808 351.5 926 c 128,-1,24
 427 1044 427 1044 502.5 1121.5 c 128,-1,25
 578 1199 578 1199 645 1249 c 1,26,27
 612 1287 612 1287 510 1287 c 0,28,29
 498 1287 498 1287 508 1325 c 128,-1,30
 518 1363 518 1363 530 1363 c 1,31,32
 570 1358 570 1358 759 1358 c 0,33,34
 792 1358 792 1358 792 1317 c 0,35,36
 792 1301 792 1301 789 1287 c 2,37,-1
 778 1240 l 1,38,39
 611 1118 611 1118 496 904.5 c 128,-1,40
 381 691 381 691 381 460 c 256,41,42
 381 286 381 286 482.5 167 c 128,-1,43
 584 48 584 48 694 48 c 0,44,45
 903 48 903 48 1056.5 222 c 128,-1,46
 1210 396 1210 396 1272 583 c 128,-1,47
 1334 770 1334 770 1334 902 c 256,48,49
 1334 1044 1334 1044 1282 1129.5 c 128,-1,50
 1230 1215 1230 1215 1195 1240 c 1,0,-1
EndSplineSet
EndChar

StartChar: uni01B2
Encoding: 434 434 1039
Width: 1494
Flags: W
LayerCount: 2
Fore
SplineSet
1558 991 m 256,0,1
 1558 848 1558 848 1494 633 c 128,-1,2
 1430 418 1430 418 1200 195.5 c 128,-1,3
 970 -27 970 -27 683 -27 c 0,4,5
 543 -27 543 -27 465.5 1.5 c 128,-1,6
 388 30 388 30 343 88.5 c 128,-1,7
 298 147 298 147 298 254 c 256,8,9
 298 379 298 379 344 539 c 2,10,-1
 525 1172 l 2,11,12
 543 1235 543 1235 519 1261 c 128,-1,13
 495 1287 495 1287 391 1287 c 0,14,15
 375 1287 375 1287 386 1325.5 c 128,-1,16
 397 1364 397 1364 413 1363 c 0,17,18
 472 1358 472 1358 656.5 1358 c 128,-1,19
 841 1358 841 1358 901 1363 c 0,20,21
 914 1364 914 1364 903 1325.5 c 128,-1,22
 892 1287 892 1287 879 1287 c 0,23,24
 757 1287 757 1287 724 1260 c 128,-1,25
 691 1233 691 1233 673 1172 c 2,26,-1
 492 541 l 2,27,28
 443 370 443 370 443 280 c 256,29,30
 443 214 443 214 467 166 c 128,-1,31
 491 118 491 118 552 83 c 128,-1,32
 613 48 613 48 742 48 c 0,33,34
 893 48 893 48 1049 155.5 c 128,-1,35
 1205 263 1205 263 1293 388 c 128,-1,36
 1381 513 1381 513 1427 673.5 c 128,-1,37
 1473 834 1473 834 1473 970 c 256,38,39
 1473 1029 1473 1029 1459 1083 c 128,-1,40
 1445 1137 1445 1137 1419.5 1187 c 128,-1,41
 1394 1237 1394 1237 1362 1237 c 128,-1,42
 1330 1237 1330 1237 1297.5 1225.5 c 128,-1,43
 1265 1214 1265 1214 1238 1214 c 0,44,45
 1192 1214 1192 1214 1180 1262 c 0,46,47
 1174 1284 1174 1284 1183 1315.5 c 128,-1,48
 1192 1347 1192 1347 1226 1366 c 128,-1,49
 1260 1385 1260 1385 1321 1385 c 0,50,51
 1382 1385 1382 1385 1440.5 1319.5 c 128,-1,52
 1499 1254 1499 1254 1528.5 1179 c 128,-1,53
 1558 1104 1558 1104 1558 991 c 256,0,1
EndSplineSet
EndChar

StartChar: uni01B5
Encoding: 437 437 323
Width: 1199
GlyphClass: 2
Flags: W
LayerCount: 2
Fore
SplineSet
1048 -7 m 0,0,1
 1039 -36 1039 -36 1024 -33 c 2,2,-1
 972 -21 l 2,3,4
 881 0 881 0 317 0 c 2,5,-1
 -35 0 l 2,6,7
 -55 0 -55 0 -55 20 c 128,-1,8
 -55 40 -55 40 -44 51 c 2,9,-1
 557 642 l 1,10,-1
 275 642 l 2,11,12
 269 642 269 642 269 660 c 128,-1,13
 269 678 269 678 281 704 c 128,-1,14
 293 730 293 730 302 730 c 10,15,-1
 646 730 l 1,16,-1
 1192 1267 l 2,17,18
 1201 1276 1201 1276 1201 1282.5 c 128,-1,19
 1201 1289 1201 1289 1181 1289 c 2,20,-1
 609 1289 l 2,21,22
 566 1289 566 1289 517 1253.5 c 128,-1,23
 468 1218 468 1218 400 1125 c 0,24,25
 336 1038 336 1038 302 974 c 0,26,27
 296 962 296 962 275 969 c 128,-1,28
 254 976 254 976 259 988 c 0,29,30
 332 1163 332 1163 392 1345 c 0,31,32
 400 1370 400 1370 428 1366 c 2,33,-1
 456 1362 l 2,34,35
 538 1350 538 1350 710.5 1350.5 c 128,-1,36
 883 1351 883 1351 1043 1354 c 2,37,-1
 1417 1362 l 2,38,39
 1434 1362 1434 1362 1434 1347 c 128,-1,40
 1434 1332 1434 1332 1418 1316 c 2,41,-1
 826 730 l 1,42,-1
 1124 730 l 2,43,44
 1130 730 1130 730 1130 713.5 c 128,-1,45
 1130 697 1130 697 1116 669.5 c 128,-1,46
 1102 642 1102 642 1093 642 c 10,47,-1
 737 642 l 1,48,-1
 201 111 l 2,49,50
 193 103 193 103 193 86 c 128,-1,51
 193 69 193 69 215 69 c 0,52,53
 644 69 644 69 860 82 c 0,54,55
 980 89 980 89 1148 352 c 0,56,57
 1153 360 1153 360 1175 353 c 128,-1,58
 1197 346 1197 346 1192 336 c 0,59,60
 1107 175 1107 175 1048 -7 c 0,0,1
EndSplineSet
Comment: "last+AD0A-60" 
Colour: ffffff
EndChar

StartChar: uni01B7
Encoding: 439 439 325
Width: 1071
GlyphClass: 2
Flags: W
LayerCount: 2
Fore
SplineSet
915 611 m 256,0,1
 915 469 915 469 830.5 311.5 c 128,-1,2
 746 154 746 154 588 63.5 c 128,-1,3
 430 -27 430 -27 211 -27 c 0,4,5
 93 -27 93 -27 19.5 20 c 128,-1,6
 -54 67 -54 67 -54 135 c 0,7,8
 -54 186 -54 186 -22.5 217 c 128,-1,9
 9 248 9 248 51 248 c 0,10,11
 111 248 111 248 148.5 148 c 128,-1,12
 186 48 186 48 284 48 c 0,13,14
 440 48 440 48 542 151 c 128,-1,15
 644 254 644 254 690 394.5 c 128,-1,16
 736 535 736 535 736 636 c 256,17,18
 736 807 736 807 587 807 c 0,19,20
 429 807 429 807 279 695 c 0,21,22
 278 694 278 694 276 694 c 0,23,24
 263 694 263 694 248 739 c 0,25,26
 243 754 243 754 243 762 c 128,-1,27
 243 770 243 770 247 771 c 0,28,29
 415 843 415 843 701 1050 c 0,30,31
 812 1131 812 1131 864 1175 c 0,32,33
 878 1187 878 1187 878 1202 c 0,34,35
 878 1215 878 1215 863 1215 c 2,36,-1
 495 1215 l 2,37,38
 401 1215 401 1215 347 1166 c 0,39,40
 322 1143 322 1143 272 1075 c 0,41,42
 269 1071 269 1071 262.5 1071 c 128,-1,43
 256 1071 256 1071 254 1074 c 152,-1,44
 252 1077 252 1077 253 1081 c 0,45,46
 259 1099 259 1099 358 1327 c 0,47,48
 369 1353 369 1353 385 1353 c 9,49,50
 429 1352 429 1352 471 1352 c 2,51,-1
 898 1352 l 2,52,53
 1028 1352 1028 1352 1088 1356 c 1,54,55
 1115 1356 1115 1356 1115 1334 c 128,-1,56
 1115 1312 1115 1312 1099 1296 c 0,57,58
 855 1059 855 1059 607 901 c 0,59,60
 568 876 568 876 568 869 c 0,61,62
 568 867 568 867 653 867 c 0,63,64
 781 867 781 867 848 795.5 c 128,-1,65
 915 724 915 724 915 611 c 256,0,1
EndSplineSet
Comment: "last+AD0A-65" 
Colour: ffffff
EndChar

StartChar: uni01B8
Encoding: 440 440 2314
Width: 1071
Flags: W
LayerCount: 2
Fore
SplineSet
168.433 341.065 m 3,0,1
 168.433 445.658 168.433 445.658 211.81 568.579 c 128,-1,2
 255.188 691.5 255.188 691.5 364.955 779.75 c 128,-1,3
 474.722 868 474.722 868 613.722 868 c 3,4,5
 699.722 868 699.722 868 700.306 871 c 0,6,7
 701.803 878.705 701.803 878.705 677.331 902 c 0,8,9
 575.073 999.341 575.073 999.341 375.917 1296 c 0,10,11
 372.287 1301.41 372.287 1301.41 372.287 1309.56 c 3,12,13
 372.287 1325.46 372.287 1325.46 382.116 1340.73 c 128,-1,14
 391.944 1356 391.944 1356 414.58 1356 c 1,15,16
 481.802 1352 481.802 1352 602.802 1352 c 2,17,-1
 1115.8 1352 l 2,18,19
 1130.94 1352 1130.94 1352 1130.94 1327 c 9,20,-1
 1118.12 1081 l 2,21,22
 1117.71 1072.98 1117.71 1072.98 1105.99 1073.2 c 0,23,24
 1095.41 1073.39 1095.41 1073.39 1093.88 1078.92 c 0,25,26
 1073.52 1152.56 1073.52 1152.56 1058.2 1174 c 0,27,28
 1027.17 1215 1027.17 1215 939.172 1215 c 2,29,-1
 572.172 1215 l 2,30,31
 547.09 1215 547.09 1215 547.09 1194 c 3,32,33
 547.09 1184.83 547.09 1184.83 553.396 1175 c 0,34,35
 626.598 1068 626.598 1068 754.495 944 c 128,-1,36
 882.392 820 882.392 820 974.867 771 c 1,37,38
 976.284 769.89 976.284 769.89 976.284 768 c 3,39,40
 976.284 756.599 976.284 756.599 946.615 724.8 c 128,-1,41
 916.946 693 916.946 693 907.705 693 c 3,42,43
 905.705 693 905.705 693 904.095 695 c 0,44,45
 810.671 806 810.671 806 650.671 806 c 3,46,47
 545.367 806 545.367 806 478.99 724.436 c 128,-1,48
 412.614 642.871 412.614 642.871 374.337 529.286 c 128,-1,49
 336.061 415.7 336.061 415.7 336.061 312.835 c 3,50,51
 336.061 185.7 336.061 185.7 396.857 116.85 c 128,-1,52
 457.653 48 457.653 48 589.33 48 c 3,53,54
 676.658 48 676.658 48 747.52 121 c 2,55,-1
 821.293 197 l 2,56,57
 870.799 248 870.799 248 919.206 248 c 3,58,59
 951.036 248 951.036 248 967.673 226.268 c 128,-1,60
 984.31 204.536 984.31 204.536 984.31 187 c 3,61,62
 984.31 110 984.31 110 874.12 41.5001 c 128,-1,63
 763.929 -27 763.929 -27 626.752 -27 c 3,64,65
 390.181 -27 390.181 -27 279.307 73.3455 c 128,-1,66
 168.433 173.691 168.433 173.691 168.433 341.065 c 3,0,1
EndSplineSet
EndChar

StartChar: uni01BB
Encoding: 443 443 2317
Width: 956
Flags: W
LayerCount: 2
Fore
SplineSet
209 180 m 0,0,1
 186 160 186 160 186 148.5 c 128,-1,2
 186 137 186 137 213 137 c 2,3,-1
 510 137 l 2,4,5
 669 137 669 137 747 194 c 0,6,7
 782 219 782 219 812 260 c 0,8,9
 816 267 816 267 840.5 267 c 128,-1,10
 865 267 865 267 865 248 c 0,11,12
 865 245 865 245 864 244 c 2,13,-1
 706 25 l 2,14,15
 682 -8 682 -8 645 -8 c 1,16,17
 523 0 523 0 310 0 c 128,-1,18
 97 0 97 0 -33 -8 c 1,19,20
 -67 -8 -67 -8 -67 22 c 0,21,22
 -67 38 -67 38 -53 49 c 0,23,24
 231 282 231 282 424.5 472.5 c 0,25,26
 467.852 515.18 467.852 515.18 506.511 555.4 c 1,27,-1
 350.126 555.4 l 2,28,29
 344.126 555.4 344.126 555.4 344.126 574.4 c 128,-1,30
 344.126 593.4 344.126 593.4 358.126 631.9 c 128,-1,31
 372.126 670.4 372.126 670.4 383.126 670.4 c 2,32,-1
 611.818 670.4 l 1,33,34
 673.971 742.2 673.971 742.2 718 804.5 c 0,35,36
 818 946 818 946 818 1048 c 0,37,38
 818 1130 818 1130 772 1168 c 128,-1,39
 726 1206 726 1206 657 1206 c 0,40,41
 511 1206 511 1206 362 1024 c 0,42,43
 357 1019 357 1019 344 1019 c 128,-1,44
 331 1019 331 1019 321 1031 c 128,-1,45
 311 1043 311 1043 311 1047.5 c 128,-1,46
 311 1052 311 1052 313 1054 c 0,47,48
 402 1171 402 1171 525 1252 c 128,-1,49
 648 1333 648 1333 779 1333 c 0,50,51
 886 1333 886 1333 947.5 1268 c 128,-1,52
 1009 1203 1009 1203 1009 1102 c 0,53,54
 1009 960 1009 960 890.5 806.5 c 0,55,56
 851.396 755.846 851.396 755.846 763.888 670.4 c 1,57,-1
 956.126 670.4 l 2,58,59
 962.126 670.4 962.126 670.4 962.126 648.9 c 128,-1,60
 962.126 627.4 962.126 627.4 947.126 591.4 c 128,-1,61
 932.126 555.4 932.126 555.4 923.126 555.4 c 2,62,-1
 641.519 555.4 l 1,63,64
 474.795 403.306 474.795 403.306 209 180 c 0,0,1
EndSplineSet
EndChar

StartChar: uni01BC
Encoding: 444 444 2318
Width: 956
Flags: W
LayerCount: 2
Fore
SplineSet
882 606 m 0,0,1
 882 403 882 403 696 193.5 c 128,-1,2
 510 -16 510 -16 248 -16 c 0,3,4
 164 -16 164 -16 100 9 c 128,-1,5
 36 34 36 34 36 84 c 0,6,7
 36 140 36 140 74 166.5 c 128,-1,8
 112 193 112 193 146 193 c 256,9,10
 180 193 180 193 235 130.5 c 128,-1,11
 290 68 290 68 354 68 c 0,12,13
 494 68 494 68 607 219.5 c 128,-1,14
 720 371 720 371 720 520 c 0,15,16
 720 743 720 743 461 743 c 0,17,18
 410.6 743 410.6 743 327 724 c 8,19,20
 305 719 305 719 305 736 c 0,21,22
 305 746.657 305 746.657 310 758 c 2,23,-1
 492.491 1172 l 18,24,25
 496.5 1181.1 496.5 1181.1 496.5 1205 c 3,26,27
 496.5 1282 496.5 1282 339.5 1282 c 0,28,29
 331.5 1282 331.5 1282 331.5 1301.5 c 128,-1,30
 331.5 1321 331.5 1321 342.5 1339.5 c 128,-1,31
 353.5 1358 353.5 1358 359.5 1358 c 1,32,33
 485.5 1354 485.5 1354 437.25 1354 c 128,-1,34
 389 1354 389 1354 640.5 1356 c 128,-1,35
 892 1358 892 1358 1001 1358 c 0,36,37
 1063 1358 1063 1358 1063 1336 c 0,38,39
 1063 1330.57 1063 1330.57 1060 1320 c 2,40,-1
 972 1010 l 2,41,42
 968.026 996 968.026 996 921.363 996 c 128,-1,43
 874.7 996 874.7 996 876.8 1010 c 0,44,45
 884.5 1066 884.5 1066 884.5 1088 c 3,46,47
 884.5 1180 884.5 1180 840.456 1227.68 c 128,-1,48
 796.411 1275.36 796.411 1275.36 729.334 1282.18 c 128,-1,49
 662.257 1289 662.257 1289 636.15 1289 c 3,50,51
 621.514 1289 621.514 1289 611.655 1267 c 10,52,-1
 453 913 l 2,53,54
 441.372 887.056 441.372 887.056 461 890 c 0,55,56
 494.333 895 494.333 895 541 895 c 0,57,58
 882 895 882 895 882 606 c 0,0,1
EndSplineSet
EndChar

StartChar: uni01BF
Encoding: 447 447 326
Width: 881
GlyphClass: 2
Flags: W
AnchorPoint: "above" 668 900 basechar 0
LayerCount: 2
Fore
SplineSet
881 684 m 0,0,1
 881 444 881 444 681.5 222 c 128,-1,2
 482 0 482 0 246 -29 c 1,3,-1
 156 -414 l 2,4,5
 133 -514 133 -514 -84 -557 c 1,6,7
 -90 -557 -90 -557 -98 -549 c 128,-1,8
 -106 -541 -106 -541 -106 -524 c 128,-1,9
 -106 -507 -106 -507 -102 -506 c 0,10,11
 17 -483 17 -483 41 -379 c 2,12,-1
 276 629 l 2,13,14
 281 652 281 652 281 662 c 0,15,16
 281 711 281 711 250 711 c 256,17,18
 219 711 219 711 143 623 c 0,19,20
 140 619 140 619 131 619 c 128,-1,21
 122 619 122 619 111 633.5 c 128,-1,22
 100 648 100 648 100 652.5 c 128,-1,23
 100 657 100 657 102 659 c 0,24,25
 259 852 259 852 369 852 c 0,26,27
 422 852 422 852 422 772 c 0,28,29
 422 724 422 724 406 664 c 1,30,31
 484 764 484 764 566.5 808 c 128,-1,32
 649 852 649 852 707 852 c 0,33,34
 881 852 881 852 881 684 c 0,0,1
748 682 m 256,35,36
 748 782 748 782 653 782 c 0,37,38
 585 782 585 782 487.5 687.5 c 128,-1,39
 390 593 390 593 365 483 c 2,40,-1
 260 31 l 1,41,42
 389 31 389 31 531.5 172.5 c 128,-1,43
 674 314 674 314 711 448 c 128,-1,44
 748 582 748 582 748 682 c 256,35,36
EndSplineSet
Comment: "last+AD0A-44" 
Colour: ffffff
EndChar

StartChar: uni01E5
Encoding: 485 485 360
Width: 766
GlyphClass: 2
Flags: W
LayerCount: 2
Fore
SplineSet
890 786 m 0,0,1
 890 727 890 727 867 727 c 0,2,3
 778 727 778 727 673 756 c 1,4,5
 701 709 701 709 701 630.5 c 128,-1,6
 701 552 701 552 658.5 464 c 128,-1,7
 616 376 616 376 541.5 306 c 128,-1,8
 467 236 467 236 348 199 c 0,9,10
 322 191 322 191 310 185 c 0,11,12
 248 153 248 153 248 104.5 c 128,-1,13
 248 56 248 56 371 -10 c 2,14,-1
 566 -118 l 2,15,16
 684 -184 684 -184 712 -266 c 1,17,-1
 838 -266 l 2,18,19
 844 -266 844 -266 844 -287.5 c 128,-1,20
 844 -309 844 -309 828.5 -345 c 128,-1,21
 813 -381 813 -381 803 -381 c 2,22,-1
 708 -381 l 1,23,24
 672 -460 672 -460 529.5 -509.5 c 128,-1,25
 387 -559 387 -559 224 -559 c 0,26,27
 90 -559 90 -559 -5 -509.5 c 128,-1,28
 -100 -460 -100 -460 -115 -381 c 1,29,-1
 -218 -381 l 2,30,31
 -224 -381 -224 -381 -224 -358 c 128,-1,32
 -224 -335 -224 -335 -208.5 -300.5 c 128,-1,33
 -193 -266 -193 -266 -185 -266 c 2,34,-1
 -93 -266 l 1,35,36
 -62 -214 -62 -214 22.5 -158.5 c 128,-1,37
 107 -103 107 -103 225 -66 c 1,38,39
 133 -22 133 -22 133 26 c 0,40,41
 133 84 133 84 239 187 c 1,42,43
 76 229 76 229 76 401.5 c 128,-1,44
 76 574 76 574 214 713 c 128,-1,45
 352 852 352 852 530 852 c 0,46,47
 554 852 554 852 592 834 c 128,-1,48
 630 816 630 816 649 814 c 0,49,50
 706 808 706 808 752 808 c 128,-1,51
 798 808 798 808 873 813 c 0,52,53
 890 814 890 814 890 786 c 0,0,1
587 720 m 0,54,55
 587 791 587 791 508 791 c 0,56,57
 401 791 401 791 297 630 c 128,-1,58
 193 469 193 469 193 321 c 0,59,60
 193 248 193 248 272 248 c 0,61,62
 386 248 386 248 486.5 411.5 c 128,-1,63
 587 575 587 575 587 720 c 0,54,55
580 -381 m 1,64,-1
 40 -381 l 1,65,66
 68 -429 68 -429 153 -459.5 c 128,-1,67
 238 -490 238 -490 317.5 -490 c 128,-1,68
 397 -490 397 -490 479.5 -460.5 c 128,-1,69
 562 -431 562 -431 580 -381 c 1,64,-1
540 -266 m 1,70,71
 493 -217 493 -217 410 -166 c 128,-1,72
 327 -115 327 -115 270 -115 c 128,-1,73
 213 -115 213 -115 140 -162.5 c 128,-1,74
 67 -210 67 -210 40 -266 c 1,75,-1
 540 -266 l 1,70,71
EndSplineSet
Comment: "last+AD0A-75" 
Colour: ffffff
EndChar

StartChar: uni01F6
Encoding: 502 502 1336
Width: 1789
Flags: W
AnchorPoint: "above" 1056 1415 basechar 0
LayerCount: 2
Fore
SplineSet
1173 207 m 18,0,1
 1163 172 1163 172 1163 147 c 0,2,3
 1164 76 1164 76 1286 76 c 256,4,5
 1412 76 1412 76 1540 238.5 c 128,-1,6
 1668 401 1668 401 1668 584 c 0,7,8
 1668 703 1668 703 1632 778 c 1,9,10
 1632 852 1632 852 1701 852 c 0,11,12
 1751 852 1751 852 1774 803 c 128,-1,13
 1797 754 1797 754 1797 705 c 0,14,15
 1797 579 1797 579 1717.5 399 c 128,-1,16
 1638 219 1638 219 1490.5 96 c 128,-1,17
 1343 -27 1343 -27 1197 -27 c 0,18,19
 1086 -27 1086 -27 1045 11.5 c 128,-1,20
 1004 50 1004 50 1004 85 c 128,-1,21
 1004 120 1004 120 1010 141 c 10,22,-1
 1148 627 l 2,23,24
 1152 642 1152 642 1152 652.5 c 128,-1,25
 1152 663 1152 663 1123 663 c 2,26,-1
 576 663 l 2,27,28
 544 663 544 663 534 627 c 2,29,-1
 407 186 l 2,30,31
 401 165 401 165 401 151 c 0,32,33
 401 69 401 69 558 69 c 0,34,35
 565 69 565 69 565 47.5 c 128,-1,36
 565 26 565 26 554 9.5 c 128,-1,37
 543 -7 543 -7 536 -7 c 1,38,39
 451 0 451 0 279 0 c 128,-1,40
 107 0 107 0 29 -7 c 1,41,42
 21 -7 21 -7 21 11 c 128,-1,43
 21 29 21 29 32 49 c 128,-1,44
 43 69 43 69 49 69 c 0,45,46
 167 69 167 69 206.5 100 c 128,-1,47
 246 131 246 131 262 186 c 2,48,-1
 545 1172 l 2,49,50
 550 1189 550 1189 550 1207 c 0,51,52
 550 1287 550 1287 394 1287 c 0,53,54
 386 1287 386 1287 386 1306.5 c 128,-1,55
 386 1326 386 1326 397 1344.5 c 128,-1,56
 408 1363 408 1363 414 1363 c 1,57,58
 460 1358 460 1358 669 1358 c 128,-1,59
 878 1358 878 1358 924 1363 c 1,60,61
 932 1363 932 1363 932 1343.5 c 128,-1,62
 932 1324 932 1324 921 1305.5 c 128,-1,63
 910 1287 910 1287 904 1287 c 0,64,65
 787 1287 787 1287 746 1257.5 c 128,-1,66
 705 1228 705 1228 689 1172 c 2,67,-1
 577 780 l 2,68,69
 572 761 572 761 572 750 c 128,-1,70
 572 739 572 739 600 739 c 2,71,-1
 1146 739 l 2,72,73
 1180 739 1180 739 1192 780 c 2,74,-1
 1305 1172 l 2,75,76
 1310 1189 1310 1189 1310 1207 c 0,77,78
 1310 1287 1310 1287 1154 1287 c 0,79,80
 1146 1287 1146 1287 1146 1308.5 c 128,-1,81
 1146 1330 1146 1330 1157 1346.5 c 128,-1,82
 1168 1363 1168 1363 1175 1363 c 1,83,84
 1250 1358 1250 1358 1428 1358 c 128,-1,85
 1606 1358 1606 1358 1684 1363 c 1,86,87
 1692 1363 1692 1363 1692 1342 c 128,-1,88
 1692 1321 1692 1321 1681 1304 c 128,-1,89
 1670 1287 1670 1287 1664 1287 c 0,90,91
 1553 1285 1553 1285 1512 1261 c 0,92,93
 1467 1235 1467 1235 1449 1172 c 10,94,-1
 1173 207 l 18,0,1
EndSplineSet
Substitution2: "'ss19' Latin to Gothic transliteration subtable" u10348
EndChar

StartChar: uni021C
Encoding: 540 540 414
Width: 980
GlyphClass: 2
Flags: W
LayerCount: 2
Fore
SplineSet
907 529 m 0,0,1
 907 398 907 398 800 246.5 c 128,-1,2
 693 95 693 95 491 19 c 128,-1,3
 289 -57 289 -57 56 -57 c 0,4,5
 47 -57 47 -57 47 -39 c 128,-1,6
 47 -21 47 -21 52 -7 c 128,-1,7
 57 7 57 7 69 7 c 0,8,9
 308 7 308 7 513.5 146.5 c 128,-1,10
 719 286 719 286 719 508 c 0,11,12
 719 672 719 672 559 672 c 0,13,14
 488 672 488 672 361 600 c 1,15,16
 338 594 338 594 338 618 c 0,17,18
 338 634 338 634 350 640 c 0,19,20
 537 743 537 743 617 811 c 128,-1,21
 697 879 697 879 734.5 965.5 c 128,-1,22
 772 1052 772 1052 772 1131 c 0,23,24
 772 1282 772 1282 591 1282 c 0,25,26
 476 1282 476 1282 395 1200.5 c 128,-1,27
 314 1119 314 1119 284 970 c 0,28,29
 281 955 281 955 245 955 c 128,-1,30
 209 955 209 955 209 968 c 2,31,-1
 209 970 l 1,32,-1
 285 1362 l 2,33,34
 288 1376 288 1376 324 1376 c 128,-1,35
 360 1376 360 1376 360 1364 c 2,36,-1
 357 1337 l 2,37,38
 352 1291 352 1291 404 1291 c 0,39,40
 419 1291 419 1291 514.5 1338.5 c 128,-1,41
 610 1386 610 1386 696 1386 c 0,42,43
 814 1386 814 1386 885.5 1331.5 c 128,-1,44
 957 1277 957 1277 957 1190 c 0,45,46
 957 1107 957 1107 897.5 1007 c 128,-1,47
 838 907 838 907 755 831 c 0,48,49
 733 811 733 811 733 798.5 c 128,-1,50
 733 786 733 786 744 780 c 0,51,52
 907 681 907 681 907 529 c 0,0,1
EndSplineSet
Substitution2: "'ss08' Flat Top Yogh lookup 0-1" uni01B7
Comment: "last+AD0A-52" 
Colour: ffffff
EndChar

StartChar: uni021D
Encoding: 541 541 415
Width: 773
GlyphClass: 2
Flags: W
AnchorPoint: "above" 540 900 basechar 0
LayerCount: 2
Fore
SplineSet
663 104 m 0,0,1
 663 -10 663 -10 579.5 -147 c 128,-1,2
 496 -284 496 -284 305 -419.5 c 128,-1,3
 114 -555 114 -555 5 -555 c 256,4,5
 -104 -555 -104 -555 -104 -488 c 0,6,7
 -104 -448 -104 -448 -82 -429 c 128,-1,8
 -60 -410 -60 -410 -32 -410 c 256,9,10
 -18 -410 -18 -410 19 -428 c 128,-1,11
 56 -446 56 -446 67 -446 c 0,12,13
 190 -446 190 -446 287.5 -365 c 128,-1,14
 385 -284 385 -284 435 -177.5 c 128,-1,15
 485 -71 485 -71 485 34 c 0,16,17
 485 131 485 131 434 180 c 0,18,19
 384 229 384 229 298 229 c 256,20,21
 252 229 252 229 146 184 c 1,22,23
 123 185 123 185 123 223 c 0,24,25
 123 229 123 229 129 233 c 0,26,27
 410 363 410 363 483.5 447 c 128,-1,28
 557 531 557 531 557 630 c 0,29,30
 557 703 557 703 515 739.5 c 128,-1,31
 473 776 473 776 412 776 c 0,32,33
 324 776 324 776 248 698.5 c 128,-1,34
 172 621 172 621 150 510 c 0,35,36
 148 502 148 502 120 502 c 128,-1,37
 92 502 92 502 92 509 c 2,38,-1
 92 510 l 1,39,-1
 152 823 l 2,40,41
 154 831 154 831 182 831 c 128,-1,42
 210 831 210 831 210 824 c 2,43,-1
 208 804 l 2,44,45
 204 768 204 768 245 768 c 0,46,47
 265 768 265 768 351.5 819 c 128,-1,48
 438 870 438 870 523 870 c 0,49,50
 628 870 628 870 680 818 c 128,-1,51
 732 766 732 766 732 687 c 256,52,53
 732 613 732 613 698.5 551.5 c 128,-1,54
 665 490 665 490 499 377 c 0,55,56
 476 362 476 362 476 352 c 128,-1,57
 476 342 476 342 489 336 c 0,58,59
 663 261 663 261 663 104 c 0,0,1
EndSplineSet
Substitution2: "'ss08' Flat Top Yogh lookup 0-1" uni0292
Comment: "last+AD0A-58" 
Colour: ffffff
EndChar

StartChar: uni0229
Encoding: 553 553 421
Width: 696
GlyphClass: 2
Flags: W
AnchorPoint: "above" 608 900 basechar 0
LayerCount: 2
Fore
SplineSet
352 -269.5 m 128,-1,1
 352 -340 352 -340 286 -388.5 c 128,-1,2
 220 -437 220 -437 143 -437 c 0,3,4
 41 -437 41 -437 41 -371 c 0,5,6
 41 -322 41 -322 92 -322 c 0,7,8
 112 -322 112 -322 142 -352 c 128,-1,9
 172 -382 172 -382 184 -382 c 0,10,11
 241 -382 241 -382 241 -312 c 0,12,13
 241 -249 241 -249 150 -200 c 0,14,15
 129 -189 129 -189 142 -170 c 2,16,-1
 252 -23 l 1,17,18
 96 3 96 3 96 215 c 0,19,20
 96 406 96 406 256 629 c 128,-1,21
 416 852 416 852 592 852 c 0,22,23
 723 852 723 852 723 737 c 0,24,25
 723 602 723 602 559.5 493 c 128,-1,26
 396 384 396 384 242 356 c 1,27,28
 227 281 227 281 227 238 c 0,29,30
 227 72 227 72 338 72 c 0,31,32
 378 72 378 72 422 93 c 128,-1,33
 466 114 466 114 563 197 c 0,34,35
 570 203 570 203 581.5 197.5 c 128,-1,36
 593 192 593 192 594.5 180.5 c 128,-1,37
 596 169 596 169 592 164 c 0,38,39
 446 -15 446 -15 317 -26 c 1,40,-1
 266 -93 l 2,41,42
 248 -116 248 -116 276 -138 c 0,43,0
 352 -199 352 -199 352 -269.5 c 128,-1,1
580 711 m 0,44,45
 580 772 580 772 526 772 c 0,46,47
 452 772 452 772 379.5 669.5 c 128,-1,48
 307 567 307 567 260 420 c 1,49,50
 383 446 383 446 481.5 524 c 128,-1,51
 580 602 580 602 580 711 c 0,44,45
EndSplineSet
EndChar

StartChar: uni0238
Encoding: 568 568 2337
Width: 1345
Flags: W
AnchorPoint: "above" 630 1545 basechar 0
LayerCount: 2
Fore
SplineSet
710 688 m 1,0,1
 666 786 666 786 578 786 c 0,2,3
 442 786 442 786 326.5 563 c 128,-1,4
 211 340 211 340 211 180 c 0,5,6
 211 82 211 82 270 82 c 0,7,8
 340 82 340 82 469 226.5 c 0,9,10
 597.107 370 597.107 370 667.028 502.159 c 1,11,-1
 710 688 l 1,0,1
1200.5 602 m 0,12,13
 1200.5 754 1200.5 754 1116.5 754 c 0,14,15
 1020.5 754 1020.5 754 903 594 c 128,-1,16
 785.5 434 785.5 434 753 331.5 c 128,-1,17
 720.5 229 720.5 229 720.5 163 c 0,18,19
 720.5 45 720.5 45 819.5 45 c 0,20,21
 961.5 45 961.5 45 1081 242.5 c 128,-1,22
 1200.5 440 1200.5 440 1200.5 602 c 0,12,13
1343.5 659 m 0,23,24
 1343.5 406 1343.5 406 1163.5 189.5 c 128,-1,25
 983.5 -27 983.5 -27 735.5 -27 c 0,26,27
 590.5 -27 590.5 -27 590.5 133 c 0,28,29
 590.5 172 590.5 172 602.5 225 c 2,30,-1
 623.145 313.672 l 1,31,32
 616.572 318.836 616.572 318.836 610 324 c 1,33,34
 508 175 508 175 396.5 74 c 128,-1,35
 285 -27 285 -27 186 -27 c 0,36,37
 126 -27 126 -27 94.5 24.5 c 128,-1,38
 63 76 63 76 63 145 c 0,39,40
 63 358 63 358 236 605 c 128,-1,41
 409 852 409 852 604 852 c 0,42,43
 684 852 684 852 735 789 c 1,44,-1
 827 1200 l 2,45,46
 843 1267 843 1267 843 1296 c 0,47,48
 843 1378 843 1378 766 1378 c 0,49,50
 751 1378 751 1378 751 1404 c 128,-1,51
 751 1430 751 1430 766 1430 c 0,52,53
 836 1430 836 1430 914 1457.5 c 128,-1,54
 992 1485 992 1485 997 1485 c 0,55,56
 1010 1485 1010 1485 1010 1472 c 0,57,58
 1010 1469 1010 1469 1008 1460 c 2,59,-1
 810.244 598.005 l 1,60,-1
 810.5 598 l 1,61,-1
 831.5 592 l 1,62,63
 1029.5 852 1029.5 852 1177.5 852 c 0,64,65
 1343.5 852 1343.5 852 1343.5 659 c 0,23,24
EndSplineSet
EndChar

StartChar: uni0239
Encoding: 569 569 2338
Width: 1366
Flags: W
LayerCount: 2
Fore
SplineSet
756 643 m 3,0,1
 756 788 756 788 674 788 c 3,2,3
 536 788 536 788 389 542 c 128,-1,4
 242 296 242 296 242 141 c 3,5,6
 242 63 242 63 291 63 c 3,7,8
 337 63 337 63 454 158.5 c 128,-1,9
 571 254 571 254 663.5 388.5 c 128,-1,10
 756 523 756 523 756 643 c 3,0,1
1214 476.999 m 259,11,12
 1214 594.999 1214 594.999 1154 675.499 c 128,-1,13
 1094 755.999 1094 755.999 1005 755.999 c 3,14,15
 958 755.999 958 755.999 913 742.999 c 1,16,-1
 765 116.999 l 1,17,18
 763 102.999 763 102.999 763 97.999 c 0,19,20
 763 38.999 763 38.999 839 38.999 c 0,21,22
 985 38.999 985 38.999 1099.5 173.999 c 128,-1,23
 1214 308.999 1214 308.999 1214 476.999 c 259,11,12
1353 509.999 m 259,24,25
 1353 306.999 1353 306.999 1186 139.999 c 128,-1,26
 1019 -27.001 1019 -27.001 821 -27.001 c 0,27,28
 785 -27.001 785 -27.001 737 -14.001 c 1,29,-1
 643 -420.001 l 2,30,31
 639 -437.001 639 -437.001 639 -448.001 c 0,32,33
 639 -504.001 639 -504.001 763 -504.001 c 0,34,35
 772 -504.001 772 -504.001 772 -516.001 c 128,-1,36
 772 -528.001 772 -528.001 765 -543.501 c 128,-1,37
 758 -559.001 758 -559.001 745 -559.001 c 1,38,39
 655 -551.001 655 -551.001 551.5 -551.001 c 256,40,41
 448 -551.001 448 -551.001 358 -559.001 c 1,42,43
 349 -559.001 349 -559.001 349 -546.001 c 0,44,45
 349 -534.001 349 -534.001 356 -519.001 c 128,-1,46
 363 -504.001 363 -504.001 376 -504.001 c 0,47,48
 502 -504.001 502 -504.001 520 -428.001 c 2,49,-1
 695.781 337.102 l 1,50,51
 619.419 221.491 619.419 221.491 495 108 c 0,52,53
 347 -27.001 347 -27.001 227 -27.001 c 3,54,55
 166 -27.001 166 -27.001 130 17 c 128,-1,56
 94 61 94 61 94 133 c 3,57,58
 94 358 94 358 277 605 c 128,-1,59
 460 852 460 852 707 852 c 3,60,61
 767.57 852 767.57 852 801.559 797.507 c 1,62,-1
 849 1004 l 2,63,64
 854 1029 854 1029 896 1055 c 128,-1,65
 938 1081 938 1081 968 1081 c 0,66,67
 992 1081 992 1081 989 1068 c 2,68,-1
 933 828.999 l 1,69,70
 971 841.999 971 841.999 1052 841.999 c 3,71,72
 1184 841.999 1184 841.999 1268.5 751.999 c 128,-1,73
 1353 661.999 1353 661.999 1353 509.999 c 259,24,25
EndSplineSet
EndChar

StartChar: uni0251
Encoding: 593 593 433
Width: 918
GlyphClass: 2
Flags: W
LayerCount: 2
Fore
SplineSet
738 792 m 1,0,-1
 744 810 l 18,1,2
 755 843 755 843 817 862 c 0,3,4
 849 872 849 872 864 873 c 0,5,6
 879 873 879 873 880 863 c 0,7,8
 880 861 880 861 879 858 c 2,9,-1
 690 203 l 2,10,11
 680 168 680 168 680 144 c 0,12,13
 680 103 680 103 712 103 c 0,14,15
 745 103 745 103 842 197 c 0,16,17
 851 206 851 206 870 186 c 0,18,19
 883 172 883 172 884 164 c 0,20,21
 884 160 884 160 881 156 c 0,22,23
 815 75 815 75 735.5 24 c 128,-1,24
 656 -27 656 -27 596 -27 c 0,25,26
 535 -27 535 -27 535 52 c 0,27,28
 535 83 535 83 542 116 c 1,29,30
 425 -27 425 -27 338 -27 c 0,31,32
 216 -28 216 -28 156 64 c 128,-1,33
 96 156 96 156 96 305 c 0,34,35
 96 552 96 552 247 702 c 128,-1,36
 398 852 398 852 578 852 c 0,37,38
 679 852 679 852 738 792 c 1,0,-1
577 248 m 9,39,-1
 716 716 l 1,40,41
 664 786 664 786 578 786 c 0,42,43
 432 786 432 786 338 648 c 128,-1,44
 244 510 244 510 244 306 c 0,45,46
 244 180 244 180 282 130.5 c 128,-1,47
 320 81 320 81 366 81 c 0,48,49
 467 81 467 81 577 248 c 9,39,-1
EndSplineSet
Comment: "last+AD0A-49" 
Colour: ffffff
EndChar

StartChar: uni0252
Encoding: 594 594 434
Width: 918
GlyphClass: 2
Flags: W
LayerCount: 2
Fore
SplineSet
853 523 m 0,0,1
 853 276 853 276 702 126 c 128,-1,2
 551 -24 551 -24 371 -24 c 0,3,4
 270 -24 270 -24 210 36 c 1,5,-1
 205 18 l 18,6,7
 194 -15 194 -15 131 -35 c 0,8,9
 99 -45 99 -45 82 -45 c 128,-1,10
 65 -45 65 -45 70 -30 c 2,11,-1
 259 625 l 2,12,13
 269 660 269 660 269 684 c 0,14,15
 269 725 269 725 236 725 c 0,16,17
 203 725 203 725 107 631 c 0,18,19
 98 622 98 622 78 641 c 0,20,21
 65 655 65 655 65 664 c 0,22,23
 65 668 65 668 68 672 c 0,24,25
 134 753 134 753 213.5 804 c 128,-1,26
 293 855 293 855 353 855 c 0,27,28
 414 855 414 855 414 776 c 0,29,30
 414 745 414 745 406 711 c 1,31,32
 523 854 523 854 611 855 c 0,33,34
 733 856 733 856 793 764 c 128,-1,35
 853 672 853 672 853 523 c 0,0,1
705 522 m 0,36,37
 705 648 705 648 667 697.5 c 128,-1,38
 629 747 629 747 583 747 c 0,39,40
 481 747 481 747 371 579 c 9,41,-1
 233 112 l 1,42,43
 286 42 286 42 371 42 c 0,44,45
 517 42 517 42 611 180 c 128,-1,46
 705 318 705 318 705 522 c 0,36,37
EndSplineSet
Comment: "last+AD0A-49" 
Colour: ffffff
EndChar

StartChar: uni0253
Encoding: 595 595 435
Width: 852
GlyphClass: 2
Flags: W
LayerCount: 2
Fore
SplineSet
850 659 m 0,0,1
 850 406 850 406 670 189.5 c 128,-1,2
 490 -27 490 -27 242 -27 c 0,3,4
 97 -27 97 -27 97 133 c 0,5,6
 97 173 97 173 109 225 c 2,7,-1
 267 905 l 18,8,9
 340 1221 340 1221 451.5 1341 c 128,-1,10
 563 1461 563 1461 712 1461 c 0,11,12
 765 1461 765 1461 792 1433.5 c 128,-1,13
 819 1406 819 1406 819 1372 c 256,14,15
 819 1338 819 1338 786 1316.5 c 128,-1,16
 753 1295 753 1295 725 1295 c 0,17,18
 676 1295 676 1295 644 1334 c 128,-1,19
 612 1373 612 1373 586 1373 c 0,20,21
 496 1372 496 1372 447 1161 c 2,22,-1
 317 598 l 1,23,-1
 338 592 l 1,24,25
 536 852 536 852 684 852 c 0,26,27
 850 852 850 852 850 659 c 0,0,1
707 602 m 0,28,29
 707 754 707 754 623 754 c 0,30,31
 527 754 527 754 409.5 594 c 128,-1,32
 292 434 292 434 259.5 331.5 c 128,-1,33
 227 229 227 229 227 163 c 0,34,35
 227 45 227 45 326 45 c 0,36,37
 468 45 468 45 587.5 242.5 c 128,-1,38
 707 440 707 440 707 602 c 0,28,29
EndSplineSet
Comment: "last+AD0A-38" 
Colour: ffffff
EndChar

StartChar: uni0255
Encoding: 597 597 437
Width: 772
GlyphClass: 2
Flags: W
LayerCount: 2
Fore
SplineSet
718 216 m 0,0,1
 718 118 718 118 617 45.5 c 128,-1,2
 516 -27 516 -27 358 -27 c 3,3,4
 248 -27 248 -27 182 18 c 1,5,6
 39 -156 39 -156 -23 -255 c 0,7,8
 -28 -263 -28 -263 -39.5 -263 c 128,-1,9
 -51 -263 -51 -263 -60 -252 c 128,-1,10
 -69 -241 -69 -241 -69 -237.5 c 128,-1,11
 -69 -234 -69 -234 -65 -226 c 0,12,13
 -5 -108 -5 -108 141 73 c 1,14,15
 98 147 98 147 98 256 c 3,16,17
 98 459 98 459 241.5 655.5 c 128,-1,18
 385 852 385 852 557 852 c 3,19,20
 619 852 619 852 670 822.5 c 128,-1,21
 721 793 721 793 721 754 c 3,22,23
 721 722 721 722 696 699.5 c 128,-1,24
 671 677 671 677 645 677 c 3,25,26
 618 677 618 677 608 696 c 1,27,28
 599 753 599 753 593 762 c 0,29,30
 573 788 573 788 504 788 c 3,31,32
 414 788 414 788 324 626.5 c 128,-1,33
 234 465 234 465 233 324 c 3,34,35
 233 251 233 251 248 196 c 1,36,37
 399 344 399 344 558 344 c 3,38,39
 636 344 636 344 677 313 c 128,-1,40
 718 282 718 282 718 216 c 0,0,1
634 208 m 0,41,42
 634 239 634 239 612.5 256.5 c 128,-1,43
 591 274 591 274 542 274 c 3,44,45
 420 274 420 274 277 127 c 1,46,47
 320 69 320 69 402 70 c 3,48,49
 482 70 482 70 558 114 c 128,-1,50
 634 158 634 158 634 208 c 0,41,42
EndSplineSet
EndChar

StartChar: uni025A
Encoding: 602 602 442
Width: 1132
GlyphClass: 2
Flags: W
LayerCount: 2
Fore
SplineSet
916 332 m 3,0,1
 916 215 916 215 999 215 c 3,2,3
 1030 215 1030 215 1066 248 c 1,4,-1
 1085 232 l 1,5,6
 1037 179 1037 179 959 179 c 259,7,8
 900 179 900 179 871.5 231.5 c 128,-1,9
 843 284 843 284 843 318 c 259,10,11
 843 352 843 352 852 395 c 1,12,-1
 772 376 l 1,13,14
 735 241 735 241 609.5 109 c 128,-1,15
 484 -23 484 -23 335 -23 c 0,16,17
 200 -23 200 -23 130.5 66 c 128,-1,18
 61 155 61 155 61 213 c 3,19,20
 61 284 61 284 131 302 c 2,21,-1
 631 428 l 2,22,23
 656 434 656 434 656 480 c 3,24,25
 656 616 656 616 585.5 698 c 128,-1,26
 515 780 515 780 420 780 c 3,27,28
 279 780 279 780 191 692 c 0,29,30
 189 690 189 690 181 690 c 0,31,32
 157 690 157 690 157 711 c 0,33,34
 157 723 157 723 164 729 c 0,35,36
 346 868 346 868 511 868 c 3,37,38
 656 868 656 868 723.5 756 c 128,-1,39
 791 644 791 644 791 533 c 0,40,41
 791 520 791 520 788 466 c 1,42,-1
 907 495 l 2,43,44
 932 501 932 501 933 477 c 3,45,46
 933 467 933 467 924.5 418 c 128,-1,47
 916 369 916 369 916 332 c 3,0,1
640 324 m 3,48,49
 640 345 640 345 619 340 c 2,50,-1
 224 244 l 2,51,52
 205 240 205 240 205 189 c 3,53,54
 206 140 206 140 246 88 c 0,55,56
 288 36 288 36 339 37 c 0,57,58
 468 37 468 37 554 149.5 c 128,-1,59
 640 262 640 262 640 324 c 3,48,49
EndSplineSet
EndChar

StartChar: uni0261
Encoding: 609 609 449
Width: 869
GlyphClass: 2
Flags: W
LayerCount: 2
Fore
SplineSet
788 522 m 10,0,-1
 674 -67 l 18,1,2
 625 -322 625 -322 468.5 -441 c 128,-1,3
 312 -560 312 -560 137 -560 c 0,4,5
 105 -560 105 -560 84 -534.5 c 128,-1,6
 63 -509 63 -509 63 -484 c 0,7,8
 63 -455 63 -455 89.5 -440 c 128,-1,9
 116 -425 116 -425 145 -425 c 0,10,11
 176 -425 176 -425 204 -449.5 c 128,-1,12
 232 -474 232 -474 255 -474 c 0,13,14
 347 -474 347 -474 420.5 -416 c 128,-1,15
 494 -358 494 -358 517 -237 c 2,16,-1
 604 220 l 17,17,-1
 592 224 l 1,18,19
 374 -27 374 -27 198 -27 c 0,20,21
 138 -27 138 -27 106.5 21 c 128,-1,22
 75 69 75 69 75 141 c 0,23,24
 75 352 75 352 248.5 598 c 128,-1,25
 422 844 422 844 616 844 c 0,26,27
 675 844 675 844 729 805 c 1,28,-1
 843 866 l 1,29,-1
 851 866 l 2,30,31
 866 866 866 866 873 853 c 128,-1,32
 880 840 880 840 880 833 c 128,-1,33
 880 826 880 826 873 821 c 0,34,35
 841 797 841 797 788 522 c 10,0,-1
652 469 m 2,36,-1
 699 727 l 1,37,38
 661 778 661 778 590 778 c 0,39,40
 454 778 454 778 338.5 558 c 128,-1,41
 223 338 223 338 223 176 c 0,42,43
 223 82 223 82 282 82 c 0,44,45
 361 82 361 82 450.5 162 c 128,-1,46
 540 242 540 242 588 312 c 128,-1,47
 636 382 636 382 652 469 c 2,36,-1
EndSplineSet
EndChar

StartChar: uni0263
Encoding: 611 611 451
Width: 838
GlyphClass: 2
Flags: W
LayerCount: 2
Fore
SplineSet
970 856 m 0,0,1
 980 856 980 856 980.5 832 c 128,-1,2
 981 808 981 808 959 803 c 1,3,4
 863 803 863 803 824 731 c 2,5,-1
 495 120 l 1,6,-1
 548 -304 l 2,7,8
 552 -330 552 -330 552 -343 c 0,9,10
 552 -427 552 -427 477.5 -493 c 128,-1,11
 403 -559 403 -559 319 -559 c 0,12,13
 268 -559 268 -559 223 -526 c 0,14,15
 215 -520 215 -520 211 -515 c 0,16,17
 169 -461 169 -461 169 -411 c 128,-1,18
 169 -361 169 -361 188 -323 c 2,19,-1
 376 27 l 1,20,21
 327 257 327 257 239 731 c 0,22,23
 226 803 226 803 150 803 c 0,24,25
 140 803 140 803 140 826 c 128,-1,26
 140 849 140 849 157 855 c 0,27,28
 159 856 159 856 187.5 853 c 128,-1,29
 216 850 216 850 335 850 c 128,-1,30
 454 850 454 850 516 856 c 0,31,32
 528 856 528 856 528.5 831.5 c 128,-1,33
 529 807 529 807 505 803 c 1,34,35
 417 804 417 804 414 732 c 0,36,37
 414 723 414 723 415 719 c 2,38,-1
 478 252 l 2,39,40
 479 246 479 246 486.5 246 c 128,-1,41
 494 246 494 246 503 264 c 2,42,-1
 747 727 l 2,43,44
 757 746 757 746 757 760 c 0,45,46
 757 803 757 803 670 803 c 0,47,48
 660 803 660 803 660 825.5 c 128,-1,49
 660 848 660 848 677 855 c 0,50,51
 679 856 679 856 707.5 853 c 128,-1,52
 736 850 736 850 822 850 c 128,-1,53
 908 850 908 850 970 856 c 0,0,1
322 -484 m 0,54,55
 376 -484 376 -484 413.5 -439.5 c 128,-1,56
 451 -395 451 -395 451 -352 c 0,57,58
 451 -340 451 -340 448 -326 c 2,59,-1
 395 -63 l 1,60,-1
 242 -344 l 2,61,62
 230 -368 230 -368 230 -398 c 0,63,64
 230 -454 230 -454 279 -475 c 0,65,66
 298 -484 298 -484 322 -484 c 0,54,55
EndSplineSet
EndChar

StartChar: uni0268
Encoding: 616 616 456
Width: 528
GlyphClass: 2
Flags: W
LayerCount: 2
Fore
SplineSet
540 1135 m 0,0,1
 540 1077 540 1077 506.5 1043.5 c 128,-1,2
 473 1010 473 1010 428 1010 c 0,3,4
 341 1010 341 1010 341 1100 c 0,5,6
 341 1152 341 1152 376 1188.5 c 128,-1,7
 411 1225 411 1225 455 1225 c 0,8,9
 540 1224 540 1224 540 1135 c 0,0,1
152 137 m 2,10,-1
 217 369 l 1,11,-1
 60 369 l 2,12,13
 54 369 54 369 54 388 c 128,-1,14
 54 407 54 407 68 445.5 c 128,-1,15
 82 484 82 484 93 484 c 2,16,-1
 249 484 l 1,17,-1
 289 625 l 2,18,19
 294 643 294 643 294 661 c 0,20,21
 294 711 294 711 269.5 711 c 128,-1,22
 245 711 245 711 152 623 c 0,23,24
 143 614 143 614 124 634 c 0,25,26
 111 648 111 648 111 657 c 0,27,28
 111 660 111 660 113 663 c 0,29,30
 150 722 150 722 238.5 787 c 128,-1,31
 327 852 327 852 385 852 c 0,32,33
 441 852 441 852 441 766 c 0,34,35
 441 729 441 729 430 690 c 2,36,-1
 372 484 l 1,37,-1
 531 484 l 2,38,39
 537 484 537 484 537 462.5 c 128,-1,40
 537 441 537 441 522 405 c 128,-1,41
 507 369 507 369 498 369 c 2,42,-1
 340 369 l 1,43,-1
 293 203 l 2,44,45
 282 164 282 164 282 142 c 0,46,47
 282 102 282 102 310.5 102 c 128,-1,48
 339 102 339 102 442 195 c 0,49,50
 451 203 451 203 469 186 c 0,51,52
 483 173 483 173 483 164 c 0,53,54
 483 161 483 161 481 158 c 0,55,56
 461 123 461 123 363.5 48 c 128,-1,57
 266 -27 266 -27 195 -27 c 0,58,59
 141 -27 141 -27 141 60 c 0,60,61
 141 98 141 98 152 137 c 2,10,-1
EndSplineSet
EndChar

StartChar: uni026B
Encoding: 619 619 459
Width: 496
GlyphClass: 2
Flags: W
LayerCount: 2
Fore
SplineSet
258 209 m 2,0,1
 251 178 251 178 251 162 c 0,2,3
 251 113 251 113 276 113 c 0,4,5
 328 113 328 113 410 207 c 0,6,7
 412 210 412 210 416 210 c 0,8,9
 433 210 433 210 447 189 c 0,10,11
 457 177 457 177 451 170 c 0,12,13
 276 -27 276 -27 174 -27 c 0,14,15
 114 -27 114 -27 114 80 c 0,16,17
 114 104 114 104 121 135 c 2,18,-1
 247 687 l 1,19,20
 198 710 198 710 160 710 c 0,21,22
 96 710 96 710 34 648 c 0,23,24
 30 644 30 644 25 644 c 128,-1,25
 20 644 20 644 15.5 651 c 128,-1,26
 11 658 11 658 11 664 c 1,27,28
 138 810 138 810 242 810 c 0,29,30
 258 810 258 810 275 807 c 1,31,-1
 364 1197 l 2,32,33
 379 1263 379 1263 379 1295 c 0,34,35
 379 1377 379 1377 302 1377 c 0,36,37
 287 1377 287 1377 287 1403 c 128,-1,38
 287 1429 287 1429 302 1429 c 0,39,40
 375 1429 375 1429 451.5 1456.5 c 128,-1,41
 528 1484 528 1484 534 1484 c 0,42,43
 550 1484 550 1484 546 1470 c 2,44,-1
 387 771 l 1,45,46
 439 750 439 750 473 750 c 0,47,48
 530 750 530 750 612 818 c 1,49,-1
 619 820 l 1,50,51
 632 816 632 816 637 804 c 1,52,-1
 637 800 l 1,53,54
 629 759 629 759 538 702.5 c 128,-1,55
 447 646 447 646 402 646 c 0,56,57
 380 646 380 646 359 649 c 1,58,-1
 258 209 l 2,0,1
EndSplineSet
EndChar

StartChar: uni026C
Encoding: 620 620 460
Width: 524
GlyphClass: 2
Flags: W
LayerCount: 2
Fore
SplineSet
258 209 m 2,0,1
 251 178 251 178 251 162 c 0,2,3
 251 113 251 113 276 113 c 0,4,5
 328 113 328 113 410 207 c 0,6,7
 412 210 412 210 416 210 c 0,8,9
 427 210 427 210 440 197 c 128,-1,10
 453 184 453 184 453 176 c 0,11,12
 453 173 453 173 451 170 c 0,13,14
 281 -27 281 -27 174 -27 c 0,15,16
 114 -27 114 -27 114 80 c 0,17,18
 114 104 114 104 121 135 c 2,19,-1
 226 595 l 1,20,21
 191 596 191 596 129.5 603 c 128,-1,22
 68 610 68 610 50.5 640.5 c 128,-1,23
 33 671 33 671 33 697 c 0,24,25
 33 768 33 768 86 801 c 128,-1,26
 139 834 139 834 182.5 834 c 128,-1,27
 226 834 226 834 270 790 c 0,28,29
 271 789 l 2,30,-1
 364 1197 l 2,31,32
 379 1263 379 1263 379 1295 c 0,33,34
 379 1377 379 1377 302 1377 c 0,35,36
 287 1377 287 1377 287 1403 c 128,-1,37
 287 1429 287 1429 302 1429 c 0,38,39
 375 1429 375 1429 451.5 1456.5 c 128,-1,40
 528 1484 528 1484 534 1484 c 0,41,42
 550 1484 550 1484 546 1470 c 2,43,-1
 364 672 l 1,44,-1
 538 673 l 2,45,46
 554 673 554 673 550 656 c 2,47,-1
 547 639 l 2,48,49
 544 624 544 624 528 622 c 0,50,51
 427 606 427 606 347 599 c 1,52,-1
 258 209 l 2,0,1
246 683 m 1,53,-1
 214 724 l 2,54,55
 185 761 185 761 162 762 c 259,56,57
 136 762 136 762 124 747.5 c 128,-1,58
 112 733 112 733 112 719 c 3,59,60
 112 672 112 672 187 671 c 2,61,-1
 244 671 l 1,62,63
 245 677 245 677 246 683 c 1,53,-1
EndSplineSet
EndChar

StartChar: uni026D
Encoding: 621 621 461
Width: 524
GlyphClass: 2
Flags: W
LayerCount: 2
Fore
SplineSet
274 1311 m 0,0,1
 261 1311 261 1311 262 1336.5 c 128,-1,2
 263 1362 263 1362 285 1366 c 1,3,4
 328 1366 328 1366 420 1415 c 128,-1,5
 512 1464 512 1464 524 1474.5 c 128,-1,6
 536 1485 536 1485 546 1485 c 128,-1,7
 556 1485 556 1485 556 1475 c 2,8,-1
 556 1470 l 1,9,-1
 536 1397 l 1,10,-1
 214 -258 l 2,11,12
 172 -471 172 -471 271 -471 c 0,13,14
 296 -471 296 -471 343 -432 c 128,-1,15
 390 -393 390 -393 440 -393 c 128,-1,16
 490 -393 490 -393 503 -431 c 2,17,-1
 505 -451 l 2,18,19
 505 -510 505 -510 429 -544 c 0,20,21
 394 -559 394 -559 360 -559 c 0,22,23
 155 -559 155 -559 108 -332 c 0,24,25
 95 -270 95 -270 95 -176 c 128,-1,26
 95 -82 95 -82 122 55 c 2,27,-1
 339 1171 l 2,28,29
 345 1203 345 1203 345 1228 c 0,30,31
 345 1311 345 1311 274 1311 c 0,0,1
EndSplineSet
EndChar

StartChar: uni0271
Encoding: 625 625 465
Width: 1507
GlyphClass: 2
Flags: W
LayerCount: 2
Fore
SplineSet
1276 203 m 2,0,1
 1247 91 1247 91 1171 -129 c 128,-1,2
 1095 -349 1095 -349 974.5 -451 c 128,-1,3
 854 -553 854 -553 717 -553 c 0,4,5
 685 -553 685 -553 664 -527.5 c 128,-1,6
 643 -502 643 -502 643 -477 c 0,7,8
 643 -448 643 -448 669.5 -433 c 128,-1,9
 696 -418 696 -418 725 -418 c 0,10,11
 756 -418 756 -418 784 -442.5 c 128,-1,12
 812 -467 812 -467 835 -467 c 0,13,14
 904 -467 904 -467 954 -401 c 0,15,16
 996 -345 996 -345 1020 -260 c 2,17,-1
 1135 137 l 25,18,-1
 1260 582 l 2,19,20
 1292 696 1292 696 1292 729 c 0,21,22
 1292 772 1292 772 1260 772 c 0,23,24
 1209 772 1209 772 1140.5 701 c 128,-1,25
 1072 630 1072 630 955.5 454.5 c 128,-1,26
 839 279 839 279 725 2 c 0,27,28
 713 -27 713 -27 654 -27 c 128,-1,29
 595 -27 595 -27 604 6 c 2,30,-1
 754 532 l 2,31,32
 795 676 795 676 795 725 c 256,33,34
 795 772 795 772 754 772 c 0,35,36
 709 772 709 772 617 676.5 c 128,-1,37
 525 581 525 581 419 397 c 128,-1,38
 313 213 313 213 233 2 c 0,39,40
 222 -27 222 -27 163 -27 c 128,-1,41
 104 -27 104 -27 113 6 c 2,42,-1
 289 625 l 2,43,44
 295 646 295 646 295 664 c 0,45,46
 294 711 294 711 266 711 c 0,47,48
 242 711 242 711 156 625 c 0,49,50
 153 622 153 622 148 622 c 0,51,52
 134 622 134 622 123.5 635 c 128,-1,53
 113 648 113 648 113 656 c 0,54,55
 113 660 113 660 115 662 c 0,56,57
 305 852 305 852 383 852 c 0,58,59
 442 852 442 852 442 762 c 0,60,61
 442 724 442 724 432 690 c 2,62,-1
 342 383 l 1,63,-1
 350 379 l 1,64,65
 438 578 438 578 567.5 715 c 128,-1,66
 697 852 697 852 805 852 c 0,67,68
 915 852 915 852 915 723 c 0,69,70
 915 666 915 666 895 596 c 2,71,-1
 834 383 l 1,72,-1
 846 379 l 1,73,74
 1092 852 1092 852 1300 852 c 0,75,76
 1407 852 1407 852 1407 727 c 0,77,78
 1407 661 1407 661 1380 567 c 2,79,-1
 1276 203 l 2,0,1
EndSplineSet
EndChar

StartChar: uni0272
Encoding: 626 626 466
Width: 1008
GlyphClass: 2
Flags: W
LayerCount: 2
Fore
SplineSet
774 203 m 2,0,1
 764 168 764 168 764 135 c 256,2,3
 764 102 764 102 793 102 c 0,4,5
 829 102 829 102 922 195 c 0,6,7
 929 202 929 202 942 195.5 c 128,-1,8
 955 189 955 189 961.5 175 c 128,-1,9
 968 161 968 161 963 156 c 0,10,11
 802 -27 802 -27 678 -27 c 0,12,13
 622 -27 622 -27 622 57 c 0,14,15
 622 98 622 98 633 137 c 2,16,-1
 758 582 l 2,17,18
 788 689 788 689 788 730 c 256,19,20
 788 772 788 772 758 772 c 0,21,22
 670 772 670 772 497 515 c 128,-1,23
 324 258 324 258 267.5 34 c 128,-1,24
 211 -190 211 -190 151 -301.5 c 128,-1,25
 91 -413 91 -413 1.5 -483 c 128,-1,26
 -88 -553 -88 -553 -219 -553 c 0,27,28
 -249 -553 -249 -553 -271 -529.5 c 128,-1,29
 -293 -506 -293 -506 -293 -470 c 256,30,31
 -293 -448 -293 -448 -265.5 -433 c 128,-1,32
 -238 -418 -238 -418 -205 -418 c 256,33,34
 -180 -418 -180 -418 -152 -442.5 c 128,-1,35
 -124 -467 -124 -467 -101 -467 c 0,36,37
 -30 -467 -30 -467 19 -399 c 128,-1,38
 68 -331 68 -331 84 -260 c 10,39,-1
 285 617 l 2,40,41
 291 643 291 643 291 656 c 0,42,43
 291 702 291 702 256 702 c 0,44,45
 247 702 247 702 157 612 c 0,46,47
 154 609 154 609 144 609 c 128,-1,48
 134 609 134 609 124 623 c 128,-1,49
 114 637 114 637 114 642 c 128,-1,50
 114 647 114 647 116 649 c 0,51,52
 269 852 269 852 366 852 c 0,53,54
 431 852 431 852 431 762 c 0,55,56
 431 724 431 724 408 624 c 2,57,-1
 359 410 l 1,58,-1
 365 407 l 1,59,60
 602 852 602 852 799 852 c 0,61,62
 905 852 905 852 905 727 c 0,63,64
 905 666 905 666 877 567 c 2,65,-1
 774 203 l 2,0,1
EndSplineSet
Comment: "last+AD0A-65" 
Colour: ffffff
EndChar

StartChar: uni0278
Encoding: 632 632 472
Width: 838
GlyphClass: 2
Flags: W
LayerCount: 2
Fore
SplineSet
819 537 m 0,0,1
 819 324 819 324 682 148 c 0,2,3
 570 5 570 5 412 -21 c 1,4,-1
 338 -343 l 2,5,6
 336 -353 336 -353 336 -360 c 0,7,8
 334 -421 334 -421 440 -421 c 0,9,10
 449 -421 449 -421 449 -439 c 0,11,12
 449 -453 449 -453 441.5 -465.5 c 128,-1,13
 434 -478 434 -478 426 -478 c 1,14,15
 366 -470 366 -470 263.5 -470 c 128,-1,16
 161 -470 161 -470 68 -478 c 1,17,18
 58 -478 58 -478 58 -460 c 0,19,20
 58 -444 58 -444 64.5 -432.5 c 128,-1,21
 71 -421 71 -421 82 -421 c 0,22,23
 199 -421 199 -421 216 -343 c 2,24,-1
 290 -23 l 1,25,26
 204 -8 204 -8 156 64 c 0,27,28
 96 156 96 156 96 305 c 0,29,30
 96 500 96 500 247 676 c 0,31,32
 359 807 359 807 487 840 c 1,33,-1
 568 1193 l 2,34,35
 570 1203 570 1203 571 1210 c 0,36,37
 573 1271 573 1271 467 1271 c 0,38,39
 458 1271 458 1271 458 1294 c 0,40,41
 458 1305 458 1305 464.5 1316.5 c 128,-1,42
 471 1328 471 1328 481 1328 c 1,43,44
 556 1320 556 1320 663 1320 c 128,-1,45
 770 1320 770 1320 839 1328 c 1,46,47
 850 1328 850 1328 849 1308 c 0,48,49
 849 1292 849 1292 843.5 1281.5 c 128,-1,50
 838 1271 838 1271 825 1271 c 0,51,52
 708 1271 708 1271 690 1193 c 2,53,-1
 612 850 l 1,54,55
 706 839 706 839 758 767 c 0,56,57
 818 682 818 682 819 537 c 0,0,1
707 588 m 0,58,59
 707 758 707 758 593 767 c 1,60,-1
 440 100 l 1,61,62
 508 144 508 144 581 254 c 0,63,64
 707 440 707 440 707 588 c 0,58,59
311 71 m 1,65,-1
 460 721 l 1,66,67
 399 674 399 674 337 578 c 0,68,69
 213 388 213 388 213 231 c 0,70,71
 213 91 213 91 311 71 c 1,65,-1
EndSplineSet
EndChar

StartChar: uni0279
Encoding: 633 633 473
Width: 808
GlyphClass: 2
Flags: W
LayerCount: 2
Fore
SplineSet
581 198 m 2,0,1
 574 172 574 172 574 163 c 0,2,3
 574 120 574 120 598 120 c 128,-1,4
 622 120 622 120 713 211 c 0,5,6
 716 214 716 214 721 214 c 0,7,8
 737 214 737 214 749 194 c 0,9,10
 753 187 753 187 753 181 c 0,11,12
 753 176 753 176 751 174 c 0,13,14
 628 40 628 40 575 6.5 c 128,-1,15
 522 -27 522 -27 479 -27 c 256,16,17
 425 -27 425 -27 425 55 c 0,18,19
 425 71 425 71 459 198 c 2,20,-1
 504 366 l 1,21,-1
 494 368 l 1,22,23
 285 -27 285 -27 121 -27 c 0,24,25
 71 -27 71 -27 49.5 -5.5 c 128,-1,26
 28 16 28 16 28 53 c 0,27,28
 28 89 28 89 56 115 c 128,-1,29
 84 141 84 141 114 141 c 0,30,31
 150 141 150 141 167 126.5 c 128,-1,32
 184 112 184 112 214 112 c 0,33,34
 274 112 274 112 418.5 349 c 128,-1,35
 563 586 563 586 624 821 c 0,36,37
 632 852 632 852 689.5 852 c 128,-1,38
 747 852 747 852 747 827 c 0,39,40
 747 825 747 825 746 821 c 2,41,-1
 581 198 l 2,0,1
EndSplineSet
EndChar

StartChar: uni027A
Encoding: 634 634 474
Width: 808
GlyphClass: 2
Flags: W
LayerCount: 2
Fore
SplineSet
581 198 m 2,0,1
 574 171 574 171 574 163 c 0,2,3
 574 120 574 120 598 120 c 128,-1,4
 622 120 622 120 713 211 c 0,5,6
 716 214 716 214 721 214 c 0,7,8
 737 214 737 214 749 194 c 0,9,10
 753 187 753 187 753 181 c 0,11,12
 753 176 753 176 751 174 c 0,13,14
 628 40 628 40 575 6.5 c 128,-1,15
 522 -27 522 -27 479 -27 c 259,16,17
 425 -27 425 -27 425 55 c 3,18,19
 425 71 425 71 459 198 c 2,20,-1
 504 366 l 1,21,-1
 494 368 l 1,22,23
 285 -27 285 -27 121 -27 c 0,24,25
 71 -27 71 -27 49.5 -5.5 c 128,-1,26
 28 16 28 16 28 53 c 0,27,28
 28 89 28 89 56 115 c 128,-1,29
 84 141 84 141 114 141 c 0,30,31
 150 141 150 141 167 126.5 c 128,-1,32
 184 112 184 112 214 112 c 0,33,34
 271 112 271 112 415.5 343.5 c 128,-1,35
 560 575 560 575 622 813 c 2,36,-1
 772 1391 l 0,37,38
 780 1422 780 1422 837 1422 c 256,39,40
 894 1422 894 1422 895 1397 c 0,41,42
 895 1395 895 1395 894 1391 c 2,43,-1
 581 198 l 2,0,1
EndSplineSet
EndChar

StartChar: uni027B
Encoding: 635 635 475
Width: 808
GlyphClass: 2
Flags: W
LayerCount: 2
Fore
SplineSet
469 -196 m 2,0,1
 449 -268 449 -268 449 -337 c 259,2,3
 449 -471 449 -471 526 -471 c 3,4,5
 549 -471 549 -471 600 -432 c 128,-1,6
 651 -393 651 -393 698 -393 c 259,7,8
 728 -393 728 -393 745 -408 c 0,9,10
 762 -422 762 -422 762 -446 c 3,11,12
 762 -492 762 -492 712 -525.5 c 128,-1,13
 662 -559 662 -559 608 -559 c 259,14,15
 446 -559 446 -559 396 -428 c 0,16,17
 369 -358 369 -358 368 -214 c 256,18,19
 367 -122 367 -122 417 55 c 10,20,-1
 504 366 l 1,21,-1
 494 368 l 1,22,23
 285 -27 285 -27 121 -27 c 0,24,25
 71 -27 71 -27 49.5 -5.5 c 128,-1,26
 28 16 28 16 28 53 c 0,27,28
 28 89 28 89 56 115 c 128,-1,29
 84 141 84 141 114 141 c 0,30,31
 150 141 150 141 167 126.5 c 128,-1,32
 184 112 184 112 214 112 c 0,33,34
 274 112 274 112 418.5 349 c 128,-1,35
 563 586 563 586 624 821 c 0,36,37
 632 852 632 852 689.5 852 c 128,-1,38
 747 852 747 852 747 827 c 0,39,40
 747 825 747 825 746 821 c 2,41,-1
 469 -196 l 2,0,1
EndSplineSet
EndChar

StartChar: uni027C
Encoding: 636 636 476
Width: 808
GlyphClass: 2
Flags: W
LayerCount: 2
Fore
SplineSet
279 627 m 2,0,1
 286 654 286 654 286 662 c 0,2,3
 286 705 286 705 262 705 c 128,-1,4
 238 705 238 705 147 614 c 0,5,6
 144 611 144 611 139 611 c 0,7,8
 123 611 123 611 111 631 c 0,9,10
 107 638 107 638 107 644 c 0,11,12
 107 649 107 649 109 651 c 0,13,14
 232 785 232 785 285 818.5 c 128,-1,15
 338 852 338 852 381 852 c 259,16,17
 435 852 435 852 435 770 c 3,18,19
 435 754 435 754 401 627 c 2,20,-1
 356 459 l 1,21,-1
 366 457 l 1,22,23
 575 852 575 852 739 852 c 0,24,25
 789 852 789 852 810.5 830.5 c 128,-1,26
 832 809 832 809 832 772 c 0,27,28
 832 736 832 736 803.5 710 c 128,-1,29
 775 684 775 684 746 684 c 0,30,31
 710 684 710 684 693 698.5 c 128,-1,32
 676 713 676 713 646 713 c 0,33,34
 589 713 589 713 444 481.5 c 128,-1,35
 299 250 299 250 238 12 c 2,36,-1
 88 -566 l 0,37,38
 80 -597 80 -597 23 -597 c 256,39,40
 -34 -597 -34 -597 -35 -572 c 0,41,42
 -35 -570 -35 -570 -34 -566 c 2,43,-1
 279 627 l 2,0,1
EndSplineSet
EndChar

StartChar: uni027E
Encoding: 638 638 478
Width: 662
GlyphClass: 2
Flags: W
LayerCount: 2
Fore
SplineSet
308 494 m 2,0,-1
 239 142 l 2,1,2
 236 126 236 126 236 105 c 3,3,4
 236 49 236 49 373 49 c 3,5,6
 384 49 384 49 384 31 c 0,7,8
 384 24 384 24 379.5 8 c 128,-1,9
 375 -8 375 -8 362 -8 c 1,10,11
 263 0 263 0 167 0 c 128,-1,12
 71 0 71 0 -26 -8 c 1,13,14
 -39 -8 -39 -8 -39 10 c 3,15,16
 -39 20 -39 20 -34 34.5 c 128,-1,17
 -29 49 -29 49 -15 49 c 3,18,19
 100 49 100 49 115 127 c 2,20,-1
 173 425 l 2,21,22
 205 590 205 590 300 688.5 c 128,-1,23
 395 787 395 787 489.5 828.5 c 128,-1,24
 584 870 584 870 638 870 c 259,25,26
 685 870 685 870 706.5 842 c 128,-1,27
 728 814 728 814 728 794 c 3,28,29
 728 730 728 730 692 700 c 128,-1,30
 656 670 656 670 626 670 c 0,31,32
 599 670 599 670 562.5 694.5 c 128,-1,33
 526 719 526 719 497 719 c 0,34,35
 410 719 410 719 365 637 c 128,-1,36
 320 555 320 555 308 494 c 2,0,-1
EndSplineSet
EndChar
